<?xml version="1.0" standalone="no"?>
<!DOCTYPE svg PUBLIC "-//W3C//DTD SVG 1.1//EN" "http://www.w3.org/Graphics/SVG/1.1/DTD/svg11.dtd" >
<svg xmlns="http://www.w3.org/2000/svg">
<metadata>
This is a custom SVG webfont generated by Font Squirrel.
Copyright   : Copyright 2005 Sudtipos All rights reserved Designed by Angel Koziupa and digitized by Alejandro Paul Buenos Aires Argentina
Foundry     : Sudtipos
</metadata>
<defs>
<font id="FelipeRegular" horiz-adv-x="552" >
<font-face units-per-em="2048" ascent="1638" descent="-410" />
<missing-glyph horiz-adv-x="500" />
<glyph unicode=" " />
<glyph unicode="!" horiz-adv-x="608" d="M0 82q0 47 18.5 92t47 82t65.5 59.5t74 22.5q49 0 76.5 -37t27.5 -94q0 -47 -17.5 -93t-46 -83t-65.5 -60.5t-76 -23.5q-47 0 -75.5 38t-28.5 97zM180 555q0 4 2 8q66 139 123 297q49 135 99.5 311.5t72.5 370.5q0 4 3 12.5t14 12.5q80 41 158.5 52t131.5 11h29 q12 0 23 -2q10 -2 20 -2q6 -2 6 -8t-2 -10t-4 -6q-39 -59 -83 -143.5t-88 -179.5t-86 -193.5t-77 -188.5q-27 -68 -44 -124t-27 -97q-12 -49 -19 -88q0 -4 -2 -8q-4 -10 -14 -15q-12 -8 -35 -16q-18 -6 -45 -11.5t-64 -5.5q-53 0 -72.5 6.5t-19.5 16.5z" />
<glyph unicode="&#x22;" horiz-adv-x="643" d="M211 1182q0 2 4 10q39 68 62.5 130t37.5 112q16 57 25 106q2 10 14 19q6 4 11 4q45 10 81.5 13t65.5 3q12 -2 12 -16q0 -6 -13 -52.5t-41 -107t-70 -119.5t-97 -92q-35 -18 -49 -22.5t-27 -4.5q-16 1 -16 17zM516 1182q0 2 4 10q39 68 62.5 130t38.5 112q16 57 24 106 q2 10 14 19q6 4 11 4q45 10 81.5 13t65.5 3q12 -2 12 -16q0 -6 -13 -52.5t-40.5 -107t-69.5 -119.5t-98 -92q-35 -18 -49 -22.5t-27 -4.5q-16 1 -16 17z" />
<glyph unicode="#" horiz-adv-x="1357" d="M-33 516q0 4 7.5 23.5t21.5 45t37.5 53.5t54.5 48q4 2 10 6q10 6 29 6q8 0 20 -4q18 -2 43 -4q23 -2 58 -4t84 -6l43 -2l65 190q-72 -2 -126 -4t-91 -6l-73 -6q-10 -2 -25 -2q-20 0 -26.5 6t-6.5 12q0 4 7 23.5t21.5 44.5t38 51.5t54.5 46.5l12 6q12 6 29 7q10 0 16 -3 q16 -2 43 -4q23 -2 59 -4t85 -6l37 -2q29 86 50 160t38 129q0 6 4 12q6 10 24 17q16 6 55.5 11t73.5 5q23 0 38.5 -3t15.5 -11t-5 -15q-27 -59 -59.5 -138t-66.5 -169h208q29 86 50.5 161t37.5 130q0 6 5 12q6 10 24 17q16 6 55 11t74 5q23 0 38 -3t15 -11t-4 -15 q-27 -57 -58.5 -135t-66.5 -166q88 4 170 5t154 12q2 2 6 2h10q6 0 12.5 -2t6.5 -11q0 -8 -26.5 -57t-86.5 -104q-2 0 -10 -3q-8 -2 -37 -2q-80 2 -140.5 3.5t-115.5 1.5q-18 -49 -35.5 -98.5t-34.5 -96.5q90 4 172 5t154 11q2 2 6 2h10q6 0 12.5 -2t6.5 -10q0 -4 -6 -19.5 t-20.5 -38t-36 -49t-50.5 -53.5q-2 0 -8 -2t-27 -2q-86 2 -148.5 3t-115.5 1l-19 -58q-9 -28 -16 -50q-12 -41 -21 -76t-18 -63q-8 -33 -14 -60q-2 -12 -14 -20q-6 -4 -10 -4q-20 -4 -43 -9q-18 -4 -40 -7t-42 -3q-16 0 -36 4t-20 21q0 6 6 14q16 31 33 68q14 33 30.5 74.5 t33.5 89.5l26 79q-59 0 -112.5 -1t-102.5 -3q-10 -29 -18 -55.5t-14 -48.5q-12 -41 -21.5 -76t-17.5 -63q-8 -33 -15 -60q-2 -12 -14 -20q-6 -4 -10 -4q-20 -4 -43 -9q-18 -4 -40 -7t-42 -3q-16 0 -35.5 4t-19.5 21q0 6 6 14q14 33 30 70q14 33 32 73.5t34 88.5 q4 16 10 34.5t14 36.5q-72 -4 -128 -6t-93 -6l-73 -6q-10 -2 -27 -2q-18 0 -24.5 5t-6.5 11zM535 676h215q16 47 34.5 97t34.5 104l-213 -3q-18 -51 -36.5 -101t-34.5 -97z" />
<glyph unicode="$" horiz-adv-x="1249" d="M2 244q0 106 51 189t123 139.5t149.5 85t129.5 28.5q23 0 40 -6t17 -25q0 -10 -6 -20q-4 -6 -8 -8q-70 -57 -110 -105.5t-60.5 -90.5t-25.5 -75.5t-5 -62.5q0 -37 12.5 -66.5t31.5 -51t44 -36t47 -22.5q55 145 114.5 312t119.5 339q-51 41 -100.5 81t-88.5 83t-61.5 91 t-22.5 105q0 74 38 151t108.5 143.5t171 116.5t225.5 69q10 35 16 59l11 41q6 20 6 35q0 4 4 10q8 10 18 16q18 8 45 15q23 4 56.5 8t78.5 4q4 0 8.5 -1t4.5 -9q0 -6 -6 -19q-10 -16 -21 -38q-10 -18 -23.5 -46t-29.5 -63q68 -2 115 -16.5t76.5 -37t42 -52t12.5 -64.5 q0 -53 -26 -110.5t-63.5 -104.5t-79.5 -78t-73 -31q-16 0 -34.5 8.5t-18.5 28.5q0 10 8 25q20 31 32.5 65.5t12.5 67.5q0 35 -18.5 63.5t-65.5 40.5q-4 -12 -9 -24t-9 -27q-29 -80 -64 -177t-70 -206q51 -37 104.5 -77t97.5 -91t72 -115.5t28 -150.5q0 -29 -10.5 -83 t-37 -117.5t-72.5 -132t-116 -127t-167 -101.5t-228 -57q-10 -35 -18.5 -66t-12.5 -57q-2 -14 -21.5 -24.5t-45 -16.5t-50 -8.5t-39.5 -2.5h-28q-8 0 -13 3q-20 0 -20 14q0 6 2 12t4 10q14 29 27.5 63t29.5 68q-98 6 -166.5 31t-110.5 65t-60.5 93t-18.5 121zM592 119 q92 18 149.5 63t88 95.5t41 97.5t10.5 69q0 70 -33 126.5t-82 107.5q-47 -147 -92 -290.5t-82 -268.5zM688 1221q0 -45 22.5 -80t57.5 -68l115 348q-33 -8 -68 -23.5t-63.5 -40t-46 -58t-17.5 -78.5z" />
<glyph unicode="%" horiz-adv-x="1744" d="M123 -53q0 2 4 10q92 98 196.5 220t212 254t214 267.5t204.5 262.5q229 297 459 612q6 14 15.5 28.5t24.5 24.5t43 17.5t71 7.5q49 0 81.5 -3t32.5 -26q0 -8 -4 -18.5t-16 -24.5q-49 -51 -111 -119q-53 -59 -125.5 -142t-162.5 -194q-72 -86 -152 -187t-163 -206.5 t-164 -212t-151.5 -205t-129 -183.5t-94.5 -148q-14 -23 -52.5 -37.5t-79.5 -22.5q-47 -8 -102 -12q-23 2 -37 13.5t-14 23.5zM131 1053q0 94 34 194.5t94 183t146.5 136t190.5 53.5q74 0 126 -25.5t87 -70.5t51.5 -103.5t16.5 -124.5q0 -94 -32 -192t-92.5 -179 t-146.5 -132.5t-194 -51.5q-74 0 -127.5 25t-87 68t-50 99.5t-16.5 119.5zM344 1049q0 -70 23.5 -116t76.5 -46q39 0 78 45t71 112.5t51.5 145.5t19.5 143q0 63 -21.5 104.5t-71.5 41.5q-45 0 -87 -42t-72.5 -106.5t-49 -140t-18.5 -141.5zM944 264q0 94 34 194.5 t94.5 183.5t146.5 136t190 53q74 0 126 -25.5t87 -70.5t51.5 -103.5t16.5 -123.5q0 -94 -32 -192.5t-92.5 -179.5t-146.5 -132t-194 -51q-74 0 -127.5 24.5t-87 67.5t-50 99.5t-16.5 119.5zM1157 260q0 -70 23.5 -116t76.5 -46q39 0 78 45t71 113t51.5 145.5t19.5 143.5 q0 63 -21.5 104t-71.5 41q-45 0 -87 -42t-72.5 -106.5t-49 -140t-18.5 -141.5z" />
<glyph unicode="&#x26;" horiz-adv-x="1413" d="M39 336q0 90 38 186t109.5 183.5t176 158t237.5 109.5v26q0 176 53.5 290t132 180.5t171 93t169.5 26.5q59 0 119 -9t107 -32q4 0 8 -4q6 -6 6 -14q0 -4 -7 -38t-25.5 -82t-49.5 -104.5t-78 -103.5q-6 -6 -20 -6q-31 0 -31 23q0 6 1 10t1 8q0 18 -3 51t-15.5 67t-38 58.5 t-70.5 24.5q-14 0 -49 -10.5t-71 -47.5t-63.5 -105.5t-27.5 -184.5v-36q0 -19 2 -42q6 0 12.5 1t16.5 1q18 0 39.5 -1t40 -2t29 -3t6.5 -2q6 0 14 -7.5t19.5 -24t21.5 -46t18 -76.5q0 -4 -1 -11t-11 -7q-2 0 -14 4q-16 4 -39 10q-41 10 -107 10h-28l6 -37q18 -111 53 -236.5 t90 -256.5q72 84 113 211q2 6 5 13t11 11q20 10 45 19q23 6 51.5 11t63.5 5q29 0 54.5 -3t25.5 -13q0 -2 -4 -15q-66 -135 -139.5 -231t-151.5 -162q8 -16 12 -22q35 -61 66.5 -100.5t81.5 -84.5q2 0 4 -2t2 -8q0 -10 -10 -14q-72 -41 -136.5 -52.5t-99.5 -11.5h-23 q-6 0 -8 2q-10 2 -14 4l-8 4q-4 2 -6 5q-20 35 -39 71l-37 74q-113 -47 -207 -59.5t-145 -12.5q-117 0 -203 30t-142.5 80t-83 116.5t-26.5 142.5zM338 395q0 -53 16.5 -100t49 -82t83 -55.5t117.5 -20.5q16 0 66.5 7.5t115.5 35.5q-37 98 -65.5 194.5t-50 179.5 t-34.5 148.5t-20 102.5q-68 -33 -120 -80t-87.5 -101.5t-53 -114t-17.5 -114.5z" />
<glyph unicode="'" horiz-adv-x="337" d="M211 1182q0 2 4 10q39 68 62.5 130t37.5 112q16 57 25 106q2 10 14 19q6 4 11 4q45 10 81.5 13t65.5 3q12 -2 12 -16q0 -6 -13 -52.5t-41 -107t-70 -119.5t-97 -92q-35 -18 -49 -22.5t-27 -4.5q-16 1 -16 17z" />
<glyph unicode="(" horiz-adv-x="634" d="M106 297q0 102 11.5 196.5t27.5 165.5q18 84 39 158q51 172 118 304t140.5 231.5t151.5 169t151 116.5q172 111 359 138q35 -4 35 -27q0 -18 -33 -33q-127 -63 -244 -178q-100 -98 -207.5 -261t-183.5 -409q-33 -109 -59 -229q-23 -104 -41.5 -231t-18.5 -258 q0 -117 19.5 -223.5t70.5 -188.5q6 -12 7 -21q0 -16 -19 -24q-8 -4 -20 -6q-90 41 -148.5 106.5t-93.5 147.5t-48.5 173t-13.5 183z" />
<glyph unicode=")" horiz-adv-x="614" d="M-324 -287q0 18 33 33q127 63 244 178q49 49 103.5 113.5t105.5 147.5t98 184.5t84 224.5q33 109 59 229q23 104 41.5 232.5t18.5 257.5q0 117 -19.5 223t-70.5 188q-6 12 -6 21q0 16 20 24q8 4 19 7q90 -41 148 -106.5t93 -147.5t48.5 -173.5t13.5 -183.5 q0 -102 -11.5 -195t-27.5 -165q-18 -84 -39 -160q-49 -172 -115.5 -304t-141.5 -231.5t-153 -169t-151 -116.5q-172 -111 -359 -137q-35 3 -35 26z" />
<glyph unicode="*" horiz-adv-x="700" d="M184 1298v19q0 25 6.5 44t14.5 36q8 18 20 33q6 6 13 6h4q2 0 2 -2q31 -10 63.5 -16.5t61 -10.5t50 -6t30.5 -2q12 0 15 3t3 7q0 6 -10.5 22.5t-25.5 37t-33.5 40t-35.5 29.5q0 2 -2 4q-4 4 -4 8t1 6l3 7q8 18 27 36q16 16 40 35t60 35q8 0 11 -8q6 -37 14 -74 q6 -31 15.5 -66.5t21.5 -66.5l2 -2q2 -2 6 -2q6 0 8 4q20 29 43 59q18 27 37 61t31 68l4 5q4 4 10 4q23 -4 45 -13q20 -8 42 -21t40 -40l2 -4q0 -4 -6 -8q-31 -23 -61 -47q-27 -23 -57.5 -51.5t-59.5 -63.5v-2q0 -2 -1 -3t-1 -3q0 -4 6 -4q29 0 89 5t138 29q8 0 11 -8 q0 -4 2 -10t2 -27q0 -16 -4.5 -39.5t-18.5 -52.5q-2 -8 -8 -8t-10 2q-20 4 -45 10q-47 10 -119 11h-23q-12 0 -24 -3q0 2 -2 0q-4 -4 -4 -8q0 -2 6 -19.5t18 -41t30.5 -47t43.5 -39.5q4 -2 4 -6v-4q0 -2 -2 -2q-18 -23 -41 -36.5t-43 -21.5q-23 -8 -47 -14q-6 0 -10 4 q-2 2 -2 4q-8 55 -16.5 90t-16.5 55q-8 23 -17 35q-6 6 -10 6t-8 -4q-2 -2 -2 -4q-29 -43 -49.5 -82t-32.5 -67q-14 -35 -22 -62q-2 -8 -9 -8q-35 10 -57.5 29.5t-34.5 40.5q-14 23 -20 49q0 4 6 10q2 2 4 2q39 29 67.5 53.5t47.5 44.5q23 23 36 46q2 2 3 8q0 6 -9 6 q-47 -4 -90 -11.5t-76.5 -13.5t-54 -12t-22.5 -6t-7 4l-2 2q-4 10 -4 18z" />
<glyph unicode="+" horiz-adv-x="1220" d="M61 725q0 4 11.5 30.5t30 57.5t44 55.5t54.5 24.5q8 0 14 -2q12 -4 58 -8t101.5 -6.5t110 -3.5t82.5 -1h4q35 100 67 199.5t54 185.5q0 6 4 13q6 10 25 16q16 4 37 8q16 4 37.5 6.5t42.5 2.5h14q10 0 21.5 -2.5t20.5 -4.5t9 -8q0 -8 -4 -16q-41 -86 -82 -188.5 t-82 -211.5q117 4 230.5 9.5t212.5 13.5q6 0 13 -2t7 -10q0 -2 -6 -18.5t-18.5 -39t-31 -50t-42.5 -52.5q-4 0 -10 -2t-31 -2q-86 4 -162 4h-147h-68q-16 -53 -32.5 -102.5l-31.5 -94.5q-12 -41 -21 -75.5t-17 -63.5q-8 -33 -15 -59q-6 -23 -46 -33t-105 -10q-16 0 -35 3 t-19 19q0 8 7 17q14 33 30 69q14 33 30.5 73t33.5 87q12 39 27.5 81t31.5 85q-205 -4 -310.5 -13.5t-109.5 -9.5q-27 0 -34 15q-5 8 -5 14z" />
<glyph unicode="," d="M-80 -201q0 6 6 17q51 53 88 120.5t62 129.5q29 72 47 143q2 4 4 10q4 12 14 19q25 12 54 22q25 10 57.5 17.5t73.5 5.5q31 0 43 -1t12 -12q0 -4 -2 -8q-27 -78 -55.5 -141.5t-67.5 -119.5t-92 -107.5t-129 -102.5q-31 -20 -68 -20q-20 0 -33.5 8t-13.5 20z" />
<glyph unicode="-" horiz-adv-x="1079" d="M100 483q0 4 11.5 31t30 57.5t44 55t54.5 24.5q8 0 14 -2q12 -4 45 -8t73 -6t82 -3t70 -1q74 0 138.5 1t124 4t120 7t125.5 10q6 0 13.5 -2t7.5 -10q0 -2 -6.5 -18.5t-18.5 -39t-30.5 -50t-43.5 -52.5q-4 0 -10 -2t-31 -2q-86 4 -161 4h-148q-156 0 -247 -4t-138 -9 t-61.5 -9t-18.5 -4q-27 0 -35 14q-4 8 -4 14z" />
<glyph unicode="." horiz-adv-x="423" d="M2 106q0 39 14.5 77t39 69t56 49t64.5 18q47 0 76 -35.5t29 -88.5q0 -45 -16.5 -84t-42 -67t-57.5 -43t-61 -15q-47 0 -74.5 33.5t-27.5 86.5z" />
<glyph unicode="/" horiz-adv-x="962" d="M-326 -131q0 6 4 10l5 4q84 88 190.5 214t224 270.5t239.5 300t236 305.5q268 350 555 735l21 29q8 10 15 21t12 14q20 8 45 14q23 4 50 8t60 4q27 0 53.5 -3t55.5 -13q4 0 8 -2q6 -2 6 -11q-106 -119 -203 -227q-41 -45 -83 -94t-81.5 -95t-73.5 -86t-57 -69 q-80 -100 -171 -216t-185 -236.5t-186 -242.5t-174 -233.5t-148.5 -208t-109.5 -167.5q-12 -20 -38 -32t-58.5 -18t-68.5 -8t-65 -2q-47 0 -62.5 12.5t-15.5 22.5z" />
<glyph unicode="0" horiz-adv-x="1226" d="M31 428q0 125 26.5 262t77.5 267t125 248t169 207t212 141.5t250 52.5q94 0 161.5 -36t110.5 -97.5t63.5 -145.5t20.5 -182q0 -115 -27.5 -246t-78.5 -261t-126 -251t-170 -212t-208 -146.5t-242 -55.5q-174 0 -269 122t-95 333zM317 397q0 -111 34 -174t108 -63 q63 0 126.5 55t119 145.5t103.5 203t83 227t54.5 221t19.5 180.5q0 106 -33 167.5t-101 61.5q-59 0 -120.5 -48t-118.5 -128t-107.5 -184.5t-87.5 -218t-58.5 -229.5t-21.5 -216z" />
<glyph unicode="1" horiz-adv-x="763" d="M-25 -16q0 2 2 2q53 84 94.5 177t80.5 179q66 150 112.5 275.5t77.5 220.5q37 111 59 198v8q0 10 -6 12.5t-10 2.5q-66 8 -107.5 20.5t-64.5 26.5q-27 16 -39 35q-6 10 -6 16q0 12 20 21q104 37 199 90q80 47 163 118.5t128 169.5q0 2 2 7q4 8 16 12q23 8 52 16 q25 6 58.5 11.5t74.5 5.5q51 0 51 -11q0 -6 -2 -8q-61 -113 -121 -239q-51 -109 -107.5 -246t-101.5 -279q-37 -113 -74 -227.5t-68.5 -221t-53 -197.5t-25.5 -156q0 -10 -10 -21q-4 -4 -9 -4q-80 -23 -151.5 -31t-124.5 -8h-41q-18 0 -31 2q-14 2 -26 4q-10 0 -11 10v9z " />
<glyph unicode="2" horiz-adv-x="1071" d="M-213 16q10 41 20.5 65.5t20.5 39.5q10 16 22 22q90 66 200 162t219.5 207t213 228.5t182 228t127 207t48.5 163.5q0 37 -12.5 58.5t-31 33t-38 14.5t-31.5 3q-88 -8 -154.5 -58.5t-111.5 -107.5q-53 -68 -90 -149q-14 -35 -44 -43.5t-46 -8.5q-25 0 -33 12.5t-8 28.5 t2 23q16 90 44.5 162.5t57.5 126.5q35 63 72 112l12 13q4 4 11 9t12 7q33 14 73 24q35 10 88.5 16.5t118.5 6.5q59 0 132 -7t135.5 -35t104.5 -83t42 -151q0 -98 -43 -186.5t-112.5 -172.5t-157 -165t-177.5 -165t-174 -174t-145 -190v-2q0 -2 -1 -3t-1 -5q0 -16 41 -20.5 t100 -4.5q41 0 88 4t97.5 15.5t100.5 32t95 50.5q4 2 10 7q12 8 17 8q23 0 27.5 -6.5t4.5 -22.5q-10 -59 -34.5 -112.5t-51.5 -94.5q-31 -49 -65 -90q-31 -29 -51 -37q-12 -6 -23 -6q-111 -25 -233.5 -34t-239.5 -9q-86 0 -161.5 3t-133.5 7q-68 6 -123 13q-12 1 -12 30z " />
<glyph unicode="3" horiz-adv-x="1077" d="M-76 176q0 63 26.5 118.5t57.5 98.5q37 51 82 92q55 47 103.5 73t82.5 38q41 14 74 16q29 0 38 -7t9 -17q0 -8 -8 -21q-4 -6 -8 -10q-57 -51 -93 -97t-56.5 -85t-26.5 -72t-6 -57q0 -72 29.5 -93.5t76.5 -21.5q78 0 143.5 51t113.5 125t76 158t28 147q0 61 -25 102.5 t-62.5 65t-87 32.5t-98.5 9q-23 0 -42 -1t-34 -3q-16 -2 -30 -4q-4 -2 -11 -2q-8 0 -8 10q10 41 23.5 69t25.5 46q14 23 31 35q4 4 7 5t7 3t9 2q12 -2 24 -2h23q135 0 219 44t131 101.5t64.5 115.5t17.5 85q0 45 -19.5 69.5t-44 37t-48 14.5t-29.5 2q-82 0 -142.5 -37 t-101.5 -82q-47 -53 -78 -119q-10 -27 -30.5 -31.5t-28.5 -4.5q-27 0 -33 9t-6 15q0 61 18.5 121.5t44 110t55 84t54.5 42.5q35 16 78 29q37 10 89 19.5t117 9.5q100 0 173 -22.5t121 -59.5t71 -87t23 -106q0 -63 -30 -130.5t-87.5 -127t-141 -105.5t-192.5 -71q-2 -2 -6 -4 q-8 -4 -8 -10t12 -8q76 -18 133 -56q49 -33 90 -92t41 -160q0 -43 -14.5 -104t-47 -128t-86 -133.5t-129 -119.5t-178 -86t-233.5 -33q-180 0 -256 53.5t-76 151.5z" />
<glyph unicode="4" horiz-adv-x="1234" d="M2 514q0 10 4 18q2 4 2 9q25 37 62 86q31 41 77 98t107 125q68 76 155 164t190 181t221 190.5t247 189.5q16 14 39 22q20 8 49 14.5t70 6.5h20q14 0 29.5 -2t28 -6t12.5 -13q0 -4 -6 -14q-25 -43 -54 -102q-25 -51 -57.5 -124t-71.5 -167q-43 -106 -88 -229t-86 -248v-4 q0 -2 -1 -3t-1 -4q0 -12 17 -12q53 2 100 7t88 20q6 0 14.5 -3t8.5 -20q0 -23 -10.5 -47t-25 -46.5t-28.5 -39t-20 -22.5q-39 -31 -90.5 -40.5t-79.5 -9.5h-17q-12 0 -22 -10q-6 -6 -8 -10q-39 -137 -62.5 -250t-23.5 -184q0 -4 -1.5 -11.5t-9.5 -11.5q-72 -37 -147.5 -49 t-134.5 -12q-25 0 -44.5 1t-35.5 3q-18 2 -31 4q-12 2 -12 12q0 4 4 9q2 2 2 4q43 86 81 169t65.5 148.5t44 107.5t16.5 44q0 12 -23 12q-74 -4 -134 -4h-109q-78 0 -129.5 1t-83.5 5q-37 4 -60 6q-29 2 -38 15.5t-9 25.5zM395 702q0 -6 2 -12q4 -14 17 -16h24q12 0 27.5 -1 t36.5 -1q31 0 69.5 1t79.5 5h2q4 0 13.5 3t15.5 17q51 125 85 215.5t54 149.5q23 68 37 115q2 4 2 12t-8 8q-6 0 -16 -6q-6 -4 -11 -6q-102 -90 -190 -178q-37 -37 -75 -78t-70.5 -81t-57.5 -78t-37 -69z" />
<glyph unicode="5" horiz-adv-x="1153" d="M-25 129q0 78 40 159t101.5 146.5t134.5 107.5t136 42q20 0 34.5 -5.5t14.5 -19.5q0 -8 -6 -18l-6 -9q-96 -98 -127 -167.5t-31 -110.5q0 -59 35 -83t78 -24q86 0 155.5 50.5t117.5 122t75 154.5t27 147q0 131 -70 189t-178 58q-35 0 -66.5 -4t-56.5 -10q-29 -8 -53 -14 q-18 -10 -40 -15.5t-26 -5.5q-16 0 -22 8.5t-6 18.5t4 18q2 4 2 8q10 18 24.5 43t32.5 66q35 76 73 171t70 181q37 98 74 201l8 12q8 12 19 17q45 12 102 22q49 10 116.5 16.5t149.5 6.5q61 0 130 -5.5t141 -19.5q18 -2 30 -10q10 -8 19.5 -22.5t9.5 -43.5q0 -8 -8 -47 t-22.5 -84t-35 -80.5t-42.5 -35.5q-6 0 -14.5 3t-12.5 19q-6 27 -33 49q-23 18 -71 32.5t-134 14.5q-66 0 -108.5 -6t-65.5 -16q-27 -10 -39 -25q-16 -20 -34 -49q-16 -25 -35 -63.5t-37 -92.5v-2q0 -2 -1 -3t-1 -5q0 -8 9 -17t40 -9q23 0 63.5 -3.5t89 -15.5t98.5 -35.5 t91 -65.5t66.5 -105.5t25.5 -153.5q0 -131 -55 -264.5t-160.5 -240t-259.5 -174t-348 -67.5q-86 0 -133 22.5t-68.5 51.5t-26 55.5t-4.5 34.5z" />
<glyph unicode="6" horiz-adv-x="1112" d="M20 365q0 94 28 224t83 269t137 274.5t190.5 243t244 174t294.5 66.5q20 0 58.5 -2t75 -10.5t63.5 -24.5t27 -47q0 -2 -5.5 -23.5t-15.5 -49t-26.5 -54.5t-40.5 -43l-5 -2q-8 -4 -12 -4q-8 0 -15 6t-11 24q-8 20 -27 37q-16 14 -41 24.5t-66 10.5q-35 0 -94 -18.5 t-129.5 -75.5t-145.5 -159.5t-141 -272.5q0 -4 1.5 -12.5t9.5 -8.5t18 11q41 33 90 57q41 23 94.5 39t108.5 16q10 0 53 -5t91.5 -34.5t87 -93t38.5 -180.5q0 -53 -15 -130t-49 -161t-88.5 -167t-133 -148.5t-183 -106.5t-239.5 -41q-82 0 -140.5 30t-96.5 83t-55.5 126 t-17.5 159zM283 307q0 -70 27.5 -123t105.5 -53q49 0 108.5 40t110.5 112.5t86 176t35 228.5q0 57 -14.5 89t-33 47.5t-36 18.5t-21.5 3q-41 0 -77.5 -14.5t-68.5 -39t-57.5 -55t-48.5 -63.5q-51 -76 -86 -172q-6 -29 -14 -62q-6 -29 -11 -62.5t-5 -70.5z" />
<glyph unicode="7" horiz-adv-x="915" d="M-72 -25q0 2 2 5q27 76 66 156.5t86 162.5t98 161t101 148q115 166 243 328q76 96 129.5 170t87.5 125q41 59 68 104q6 12 6 19q0 8 -8 12q-4 2 -8 2q-57 6 -109 6q-100 0 -167.5 -17.5t-108.5 -39.5q-49 -25 -76 -60q-16 -12 -27 -16q-6 -2 -10 -2q-18 0 -23.5 9 t-5.5 20q0 4 1 6t1 4v4q23 74 49.5 125t49.5 86q27 39 55 63q6 6 12 11q4 4 11.5 7t11.5 3q59 10 127 18q59 6 136 11.5t165 5.5q66 0 135.5 -4t136.5 -15q4 2 8 -2q8 -8 9 -22q0 -4 -7.5 -30t-19.5 -58.5t-28.5 -64.5t-34.5 -50q-49 -47 -103 -106q-47 -51 -107.5 -122 t-125.5 -163q-72 -98 -142.5 -216t-132 -243t-109.5 -253t-73 -247q0 -14 -18 -22q-76 -29 -147 -37t-120 -8q-39 0 -61.5 3t-22.5 15v8z" />
<glyph unicode="8" horiz-adv-x="1144" d="M-18 315q0 92 31.5 171t80.5 145.5t110.5 120t120 93.5t108.5 66.5t79 36.5q6 4 6 10l-4 9q-2 4 -6 6q-72 70 -92.5 131t-20.5 102q0 16 7.5 52t30 81t62.5 93.5t103.5 88.5t155.5 65.5t219 25.5q37 0 89 -7.5t101 -29t83 -60t34 -102.5q0 -53 -23.5 -107.5t-65.5 -100.5 t-100.5 -76.5t-127.5 -38.5q-20 0 -39 4q-16 4 -27.5 10t-11.5 16q0 12 10 24.5t43 33.5q25 23 47 49q18 23 32.5 53.5t14.5 65.5q0 14 -4 32.5t-17.5 36t-40 29.5t-69.5 12q-25 0 -63.5 -8t-75.5 -29.5t-63.5 -57.5t-26.5 -89q0 -51 28.5 -99.5t70.5 -96.5t91 -101 t91 -115.5t71 -138.5t29 -170q0 -37 -11.5 -95.5t-39 -123t-74.5 -130t-117 -117.5t-165 -85t-220 -33t-210 26.5t-137 73t-74.5 110.5t-22.5 138zM274 352q0 -76 27 -119t60.5 -64.5t65.5 -26.5t42 -5q66 0 114 25.5t80.5 64.5t53 85t32 89t14.5 75t3 40q0 98 -40 182 t-87 131q-10 10 -25 11q-8 0 -12 -2t-6 -2q-94 -45 -156.5 -109.5t-99.5 -133.5t-51.5 -133.5t-14.5 -107.5z" />
<glyph unicode="9" horiz-adv-x="1138" d="M-41 49q0 4 5 24.5t15.5 48.5t27 55.5t40.5 41.5q2 2 6 4t10 2q8 0 15.5 -6t11.5 -24q8 -18 27 -35q16 -14 41.5 -25.5t64.5 -11.5q35 0 94.5 18.5t130 75.5t146.5 160.5t139 271.5q0 4 -1 12.5t-9 8.5t-18 -11q-41 -31 -91 -55q-41 -23 -93 -40t-109 -17q-10 0 -53.5 5 t-91.5 34.5t-87 93t-39 180.5q0 53 15.5 130t49.5 161t88 167t133 148.5t184.5 106.5t238.5 41q82 0 140.5 -30t96 -83t55 -125.5t17.5 -158.5q0 -94 -27.5 -224.5t-83 -269.5t-137.5 -274.5t-190.5 -243t-242.5 -174t-296 -66.5q-20 0 -58 2t-75 10.5t-63.5 24.5t-26.5 47z M424 893q0 -57 14.5 -89t32.5 -47.5t35.5 -18.5t21.5 -3q41 0 78 14.5t69 39t58.5 55t46.5 63.5q51 76 86 172q8 29 17 62q6 29 10 63.5t4 69.5q0 70 -27.5 123t-105.5 53q-49 0 -108.5 -40t-110.5 -112.5t-86 -175t-35 -229.5z" />
<glyph unicode=":" horiz-adv-x="544" d="M2 106q0 39 14.5 77t39 69t56 49t64.5 18q47 0 76 -35.5t29 -88.5q0 -45 -16.5 -84t-42 -67t-57.5 -43t-61 -15q-47 0 -74.5 33.5t-27.5 86.5zM264 881q0 39 14.5 76.5t39 68.5t56.5 49.5t64 18.5q47 0 76 -36t29 -89q0 -45 -16.5 -84t-42 -66.5t-57.5 -43t-60 -15.5 q-47 0 -75 34t-28 87z" />
<glyph unicode=";" horiz-adv-x="630" d="M-80 -201q0 6 6 17q51 53 88 120.5t62 129.5q29 72 47 143q2 4 4 10q4 12 14 19q25 12 54 22q25 10 57.5 17.5t73.5 5.5q31 0 43 -1t12 -12q0 -4 -2 -8q-27 -78 -55.5 -141.5t-67.5 -119.5t-92 -107.5t-129 -102.5q-31 -20 -68 -20q-20 0 -33.5 8t-13.5 20zM352 881 q0 39 14.5 76.5t39 68.5t56.5 49.5t64 18.5q47 0 76 -36t29 -89q0 -45 -16.5 -84t-42 -66.5t-57.5 -43t-60 -15.5q-47 0 -75 34t-28 87z" />
<glyph unicode="&#x3c;" horiz-adv-x="1275" d="M39 616q0 4 2 7l2 2q20 41 43 70.5t43 49.5q23 23 47 39q57 16 130 42t152 60t160.5 70.5t157.5 73.5q180 86 373 184l8 5q8 4 17 4q10 0 37.5 -13.5t57 -34t52 -44t22.5 -44.5q0 -4 -5 -10t-21 -10q-78 -20 -197 -63q-102 -37 -261 -103.5t-386 -177.5q-2 0 -6 -4 q-6 -6 -6 -12q0 -2 4 -7l55 -18q49 -16 134 -41t202 -53.5t256 -55.5q8 0 8 -8q0 -4 -4 -16q-16 -41 -39.5 -69.5t-46 -46t-40 -25t-21.5 -7.5q-8 0 -11 2q-2 2 -4 3q-39 18 -78.5 33.5t-76.5 29.5q-166 59 -301.5 95t-233.5 55q-113 23 -205 30q-20 0 -20 8z" />
<glyph unicode="=" horiz-adv-x="1349" d="M61 518q0 4 11.5 30.5t30 57.5t44 55.5t54.5 24.5q8 0 14 -2q12 -4 58 -8t101.5 -6t110 -3t82.5 -1q150 0 313.5 6t297.5 16q6 0 13 -2t7 -10q0 -2 -6 -18.5t-18.5 -39t-31 -50t-42.5 -52.5q-4 0 -10 -2t-31 -2q-86 4 -162 4h-147q-313 0 -478.5 -13.5t-171.5 -13.5 q-27 0 -34 15q-5 8 -5 14zM190 913q0 4 11.5 31t30 57.5t44 55t54.5 24.5q8 0 14 -2q12 -4 58.5 -8t101.5 -6t109.5 -3t82.5 -1q150 0 314 6t297 16q6 0 13 -2t7 -10q0 -2 -6 -18.5t-18.5 -39t-31 -50t-42.5 -52.5q-4 0 -10 -2t-31 -2q-86 4 -162 4h-147q-313 0 -478 -13 t-172 -13q-27 0 -34 14q-5 8 -5 14z" />
<glyph unicode="&#x3e;" horiz-adv-x="1366" d="M61 397q10 45 24.5 80t27.5 60q14 29 28 51q4 10 14.5 14t16.5 4q55 4 118.5 14.5t130 22.5t133.5 27.5t128 29.5q143 35 293 76q14 8 14 15q0 8 -6 10q-4 2 -8 2q-170 82 -305 129t-232 72q-113 29 -196 38l-13 5q-14 4 -14 14q0 8 4 12q14 29 37 55q18 23 46 50.5 t69 48.5q2 2 6 4t18 2q10 0 23 -6q98 -59 235 -121q117 -53 290 -116.5t400 -127.5l13 -4q10 -4 10 -14q0 -2 -12.5 -33t-31.5 -68.5t-45 -69.5t-54 -36q-94 -10 -194.5 -26.5t-198 -36t-190.5 -41t-177 -44.5q-195 -51 -377 -106l-6 -3q-2 -1 -6 -1q-8 0 -10.5 6t-2.5 12z " />
<glyph unicode="?" horiz-adv-x="804" d="M43 94q0 47 18.5 92t47 82t65.5 59.5t74 22.5q49 0 76.5 -37t27.5 -94q0 -47 -17.5 -93t-46 -83t-65.5 -60.5t-76 -23.5q-47 0 -75.5 38t-28.5 97zM176 518q0 12 8.5 44t42 82t99 122t180.5 164q72 57 125 121q47 53 85 119.5t38 132.5q-2 37 -17 67q-12 27 -38.5 47.5 t-75.5 20.5q-16 0 -58.5 -9.5t-85.5 -40t-75.5 -89t-32.5 -156.5v-33q0 -16 4 -35q0 -6 -8 -12q-6 -4 -18.5 -9t-35.5 -5q-12 0 -18 1t-10 9q-16 39 -31 92q-12 45 -21.5 110.5t-9.5 151.5q0 10 10 21q55 55 132 86.5t147 47t122 18.5t58 3q125 0 194.5 -34.5t104.5 -81 t43 -90.5t8 -62q0 -84 -43 -151.5t-108.5 -126t-141 -112.5t-141 -110.5t-108.5 -119t-43 -138.5q0 -6 1 -10t1 -8v-6q0 -12 -10 -19q-25 -10 -56 -18q-27 -8 -60.5 -13.5t-74.5 -5.5q-59 0 -70.5 6t-11.5 29z" />
<glyph unicode="@" horiz-adv-x="2136" d="M0 172q0 135 42 282.5t122 289t196.5 268.5t268 223t335 152.5t394.5 56.5q201 0 341 -51.5t228 -138.5t127 -202.5t39 -242.5q0 -117 -29.5 -237.5t-82 -234.5t-124 -214t-155.5 -175t-178 -118t-191 -43q-39 0 -85 9t-86 37t-67.5 75t-27.5 125q0 35 6 73q0 12 -6 13 q-2 0 -10 -4q-4 -2 -6 -4q-45 -51 -94.5 -79t-93.5 -42.5t-75.5 -17.5t-42.5 -3q-49 2 -84.5 23.5t-59 53.5t-34 73t-10.5 82q0 145 71.5 244.5t175 160t217.5 88t200 29.5q10 0 15 3t9 7t6 8q14 41 15 72q0 33 -14.5 51.5t-33 27.5t-35 11t-22.5 2q-43 0 -78.5 -13 t-62.5 -28.5t-40 -29t-13 -15.5q-12 -14 -23 -14q-20 0 -29.5 31.5t-9.5 70.5t8.5 72t22.5 37q29 14 65 24q33 10 78 17.5t105 7.5q37 0 92 -5t107.5 -28.5t90 -72t37.5 -136.5q0 -41 -11 -92t-38 -115q-43 -100 -80 -198q-14 -41 -29.5 -86t-25.5 -88t-17 -84t-7 -74 q0 -55 24.5 -84t93.5 -29q84 0 161 65.5t137.5 170t96 237t35.5 265.5q0 113 -30.5 218t-98 186t-178 129t-270.5 48q-182 0 -360.5 -75.5t-318.5 -217t-227 -343t-87 -453.5q0 -82 23.5 -170t78.5 -159t146.5 -117t226.5 -46q41 0 89 9.5t93 37.5q10 0 18 -4q18 -8 19 -28 q-16 -51 -68 -93q-43 -35 -122.5 -63.5t-215.5 -28.5q-82 0 -181 38t-185 116t-144.5 196.5t-58.5 280.5zM850 313q0 -14 3 -31.5t10 -31.5t21.5 -23.5t39.5 -9.5q23 0 55.5 10.5t68 45t70.5 102t60 180.5q0 10 -7 12q-4 2 -6 2h-20q-27 0 -76 -10t-98 -38.5t-85 -78 t-36 -129.5z" />
<glyph unicode="A" horiz-adv-x="1417" d="M-156 121q0 59 19.5 124.5t52.5 120t73 89t83 34.5q20 0 28 -20q6 -18 19 -35q10 -14 27.5 -25.5t41.5 -11.5q29 0 60 15q37 12 96 67q51 47 134 147.5t206 280.5q92 137 186 260q41 53 84 107.5t88 105t88.5 92t81.5 70.5q31 25 80 45q41 16 103.5 31.5t148.5 15.5 q6 0 12 -4q4 -4 8.5 -7t4.5 -13q0 -2 -4 -19q-78 -193 -130.5 -368.5t-82.5 -313.5q-37 -160 -58 -301q-16 -96 -23 -172t-7 -135q0 -129 18 -187.5t18 -62.5q0 -8 -4 -12l-4 -4q-53 -35 -107.5 -54.5t-102.5 -29.5t-88 -13.5t-68 -3.5q-4 0 -8 5q-2 2 -3 4q-4 16 -6 37.5 t-2 46.5q0 92 9.5 159.5t20.5 125t20.5 110.5t9.5 115q0 68 -14.5 107.5t-32.5 62.5q-23 25 -50 32q-8 8 -8 21q0 23 26.5 36t59.5 20t62.5 9t33.5 2q8 4 11 13q2 6 4 10q18 68 37.5 134.5t36.5 119.5q20 63 38 119q6 18 7 24q0 10 -7 10q-4 0 -14 -6q-6 -4 -10 -6 q-23 -18 -54.5 -56t-69.5 -88t-79 -107.5t-80 -114.5q-92 -135 -194 -295q-162 -223 -278 -351.5t-194.5 -192t-126.5 -78.5t-75 -15q-82 0 -117 51t-35 123z" />
<glyph unicode="B" horiz-adv-x="1228" d="M-113 -2q0 6 2 8l2 2q33 43 67 103.5t65.5 129t61.5 143.5t56 146q61 168 117 351q53 125 81 223t40 173t13 127t1 83q0 45 -4 53t-4 16t8 13q4 2 6 4q4 2 47 10t107.5 16.5t145.5 15.5t163 7q131 0 223.5 -26.5t150.5 -70.5t86 -102.5t28 -119.5q0 -72 -32 -142.5 t-90.5 -129t-139 -97.5t-179.5 -45q-2 0 -4 -2q-4 -4 -4 -8q0 -6 8 -9q61 -10 109.5 -41.5t82.5 -76.5t51 -102.5t17 -119.5q0 -98 -47 -202.5t-148.5 -188.5t-259 -138t-380.5 -54q-123 0 -206 6t-136 14q-61 8 -98 23q-7 2 -7 8zM360 164q0 -16 14.5 -29.5t67.5 -13.5 q86 0 159 46t126 116.5t83 155.5t30 161q0 88 -45 148.5t-144 60.5q-10 0 -10 8q0 12 8 36t18.5 47.5t21.5 44t20 26.5q6 6 12 6q74 10 131 41t95 75t57.5 95t19.5 98q0 70 -41 119t-125 49q-41 0 -56.5 -6t-23.5 -18q-25 -47 -61 -130q-31 -72 -77 -186.5t-108 -292.5 q-27 -80 -57.5 -167t-55 -173t-41 -167.5t-18.5 -149.5z" />
<glyph unicode="C" horiz-adv-x="1085" d="M20 408q0 88 24 211.5t74 260t128 270.5t187.5 239.5t251.5 172t321 66.5q37 0 82 -4t84.5 -16.5t66.5 -36t27 -64.5q0 -35 -16.5 -88t-44 -113.5t-63.5 -122t-77 -110.5t-83 -79.5t-83 -30.5q-16 0 -29.5 8t-13.5 30q0 16 14 43q25 47 45 101q16 45 31 103.5t15 119.5 q0 37 -26 51.5t-48 14.5q-51 0 -109.5 -42t-115 -113t-107.5 -165t-90 -199.5t-62.5 -216t-23.5 -215.5q0 -47 7 -90t25.5 -74.5t52.5 -50t85 -18.5q37 0 86 14.5t105.5 59.5t115.5 126.5t113 217.5q2 4 6 8q6 6 24 6q29 0 51.5 -24.5t22.5 -57.5q0 -27 -18.5 -86t-55 -132 t-92 -151.5t-131.5 -143t-173 -106.5t-216 -42q-106 0 -177 38.5t-113 103t-59.5 150t-17.5 177.5z" />
<glyph unicode="D" horiz-adv-x="1210" d="M-102 4q0 6 2 8l2 2q66 86 124 203t103 225q53 127 96 256q47 129 73 218.5t39 145.5t16 85t3 39q0 4 2 9t9 7q27 8 57 17q27 6 62.5 11t76.5 5q16 0 42 -2t49.5 -6t41 -10.5t17.5 -12.5q-8 -16 -39 -89t-72 -176t-86 -223t-82 -228.5t-61.5 -190.5t-24.5 -113 q0 -20 11.5 -27t48.5 -7q4 0 7 -1q58 0 114 29q60 31 114 84q53 53 105.5 140t93.5 190.5t66.5 215.5t25.5 214q0 84 -20.5 155.5t-64.5 124t-111.5 82t-164.5 29.5q-84 0 -149.5 -11t-110.5 -26q-53 -16 -92 -39q-2 -2 -6 -2q-6 0 -8 6.5t-2 12.5q0 27 11 54.5t26 49.5 q16 27 34 55q20 27 61.5 41.5t82.5 24.5q49 10 102 14q29 2 52.5 3t46.5 1q305 -6 470.5 -150t165.5 -441q0 -115 -27.5 -237t-83.5 -239.5t-140 -222t-198 -184.5t-256 -126t-314 -46q-158 0 -249 19.5t-91 33.5z" />
<glyph unicode="E" horiz-adv-x="1171" d="M-113 -4q0 8 2 10l5 4q33 39 67.5 98.5t68 130t66.5 147.5t62 153q68 176 129 374q43 147 68.5 258t38 189t15.5 125t3 69q0 14 6 17q4 2 6 2q92 6 190 14q86 6 189.5 10.5t208.5 4.5q94 0 177 -5.5t142 -17.5q10 -4 10 -14q0 -2 -14 -57.5t-44 -128t-75 -141.5t-106 -99 q-6 -4 -18.5 -7.5t-28.5 -3.5q-10 0 -19.5 4.5t-9.5 14.5q0 4 4 16q4 14 8 35q4 16 6.5 39t2.5 45q0 76 -34 123t-124 47q-31 0 -55 -8q-31 -12 -68 -66q-33 -45 -75 -135t-89 -252q0 -4 1 -9t7 -7h31q16 0 36.5 -1t47.5 -1q90 0 215 6q4 0 9 -3t7 -15q0 -18 -11 -59.5 t-30.5 -83.5t-44 -73.5t-51.5 -31.5q-14 0 -22 14q-10 20 -33 35q-20 12 -54 22.5t-87 10.5q-25 0 -56.5 -5.5t-40.5 -23.5q-39 -100 -73 -203q-29 -88 -54.5 -192.5t-29.5 -202.5q0 -6 8 -21.5t49 -15.5q25 0 84 9.5t140 46t176.5 112.5t189.5 209q10 14 24 27 q12 10 28.5 18t37.5 8q6 0 22.5 -3t16.5 -23q0 -2 -1 -4.5t-1 -6.5q-4 -18 -17.5 -57t-31 -87t-38 -101.5t-41 -100.5t-39 -84t-32.5 -53q-4 -8 -14 -12l-8 -4q-137 -39 -286 -52.5t-286 -13.5q-96 0 -179 4t-144 10q-72 8 -133 15q-7 2 -7 8z" />
<glyph unicode="F" horiz-adv-x="962" d="M-213 -303q0 6 2 8q31 41 69 116t80 167t85 197.5t83 207.5q96 242 195 520q35 121 56.5 215.5t32.5 167t15.5 122.5t4.5 81v41q0 8 -2 12q0 10 6 17q2 2 4 2q111 12 225 20q98 8 219 13.5t234 5.5q86 0 159.5 -5.5t124.5 -15.5q12 -2 13 -14q0 -2 -9.5 -37t-27 -84 t-43 -106.5t-57 -105.5t-70.5 -81t-84 -33q-6 0 -19.5 2.5t-13.5 14.5q0 2 4 18q4 14 6 31q2 14 3 32.5t1 41.5q0 84 -33.5 136t-131.5 52q-18 0 -38 -2t-36 -8q-29 -14 -66 -68q-31 -47 -71.5 -137t-90.5 -250q0 -4 1 -9t8 -7h30q16 0 37 -1t47 -1q43 0 98.5 1t116.5 5 q4 0 10.5 -3t6.5 -15q-6 -49 -23 -97q-14 -41 -36.5 -81t-61.5 -66l-4 -2q-4 -2 -12 -2q-12 0 -21 14q-12 20 -35 35q-20 12 -54 22.5t-87 10.5q-25 0 -55.5 -5.5t-40.5 -23.5q-49 -133 -97 -270q-41 -117 -86 -257.5t-79 -269.5q-6 -14 -13 -26q-4 -10 -10 -23.5t-14 -23.5 q-57 -78 -134 -120t-145 -63q-80 -23 -162 -28q-14 0 -14 12z" />
<glyph unicode="G" horiz-adv-x="1146" d="M41 315q0 102 23.5 240.5t72.5 284t127 287t187.5 252t252 179t322.5 68.5q37 0 79 -4t78 -17.5t59.5 -37t23.5 -60.5q0 -80 -32 -161.5t-80 -149.5t-102.5 -111t-101.5 -43q-18 0 -29.5 4.5t-11.5 28.5q0 23 10.5 40.5t22.5 46t22.5 76.5t10.5 134q0 6 -1 16.5t-7 20.5 t-18.5 17.5t-35.5 7.5q-49 0 -107 -45.5t-116.5 -122t-114 -178t-98.5 -212t-68.5 -225t-25.5 -217.5q0 -16 2 -41.5t11.5 -50.5t26.5 -42t50 -17q37 0 90 31.5t104.5 93t90.5 152.5t51 210q0 23 -4 36t-9 21.5t-9.5 13.5t-4.5 13q0 12 21 20q25 4 55 9q27 4 65 6t85 2 q35 0 75.5 -2t85.5 -6q6 0 11 -2q8 -4 8 -11q0 -2 -4 -10q-35 -72 -70 -155q-29 -72 -62.5 -166.5t-58.5 -204.5q-6 -43 -14 -90q-6 -41 -11 -87t-5 -91q0 -20 3 -42t3 -30q0 -16 -13 -21q-16 -8 -38 -14q-18 -4 -41 -8t-50 -4q-31 0 -59.5 6t-51 25.5t-35.5 54.5t-13 92 q0 31 6 74q2 6 0 10q-4 8 -8 8t-11 -8q-61 -86 -121.5 -136t-111.5 -76t-91 -32t-59 -6q-70 4 -114.5 36t-71.5 82t-36 112.5t-9 125.5z" />
<glyph unicode="H" horiz-adv-x="1179" d="M-113 -29q0 8 2 11q2 2 2 4q23 37 49.5 91t53 118.5t53.5 134t51 137.5q57 158 113 332q80 205 119 344t53 226q13 81 13 123q0 15 -0.5 37t-0.5 23q0 4 2 14.5t13 14.5q37 8 77 16q35 6 83 11.5t102 5.5q133 0 133 -23q0 -6 -2 -8q-31 -45 -68 -127q-33 -70 -78 -181.5 t-102 -279.5q0 -2 -2 -4t-2 -8q0 -8 12 -8h111q47 0 102 2t103 4q6 0 15 2t13 10q4 4 15 27q10 20 25.5 60t37.5 116q20 63 39.5 150.5t54.5 212.5q2 12 17 20q23 14 67 23q39 8 106.5 14t172.5 6q4 0 8 -2q8 -4 8 -12q0 -2 -4 -11q-72 -96 -139 -239q-59 -123 -126 -312.5 t-120 -451.5q-25 -78 -45 -160q-16 -70 -31.5 -149.5t-15.5 -147.5q0 -29 3 -53.5t11 -42.5q4 -8 4 -14q0 -14 -14 -21q-82 -35 -152.5 -46t-115.5 -11h-23q-10 0 -18 2t-17 2q-12 4 -15 17.5t-3 31.5q0 94 24.5 186.5t54 180.5t54.5 170t25 153q0 35 -14.5 56.5t-37 34 t-53.5 17.5t-63 5q-53 0 -90 -6q-23 -4 -41 -8q-8 -2 -17 -11l-6 -6q-70 -197 -108.5 -333t-59 -225t-26 -138t-5.5 -72q0 -8 -8 -16q-4 -4 -10 -4q-78 -20 -141.5 -27.5t-110.5 -7.5q-29 0 -48 1t-34 3q-16 2 -28 6q-7 2 -7 10z" />
<glyph unicode="I" horiz-adv-x="550" d="M-113 -31q0 2 4 11q51 90 101.5 208.5t97.5 248.5t92 263.5t84 251.5q47 135 78 248t49.5 194t26.5 126l8 45q0 4 2 9t8 7q12 4 41 9t69 9.5t87 8.5t96 4h43q14 0 31 -2q4 0 9 -2t5 -6q0 -2 -24.5 -55.5t-63.5 -146.5t-89 -218t-99 -273q-39 -115 -77 -223t-71 -214.5 t-60.5 -216.5t-45.5 -226q0 -4 -2 -9q-4 -8 -8 -10q-86 -35 -167 -44t-137 -9h-33q-15 0 -26 2q-12 2 -20 2q-9 0 -9 8z" />
<glyph unicode="J" horiz-adv-x="655" d="M-471 -483q0 12 8 20q4 4 8 6q104 66 178 136.5t121 130.5q53 68 90 133q57 96 109.5 202.5t99.5 217t88 220t74 210.5q80 233 141 467q18 74 24.5 126t6.5 87q0 27 -2 42t-4 24t-4 13t-2 11q0 4 4 10t20 10q31 8 70 16q35 6 84 11.5t115 5.5q18 0 43.5 -1t49 -2t39 -4 t15.5 -10q0 -6 -2 -8l-2 -2q-23 -37 -53.5 -105.5t-65 -157.5t-71.5 -191.5t-72 -202.5q-82 -236 -168 -510q-43 -115 -76 -204t-58.5 -156.5t-45 -114.5t-31.5 -78q-31 -74 -41 -92q-39 -55 -88 -97t-101.5 -74t-106.5 -53.5t-103 -35.5q-117 -35 -238 -39 q-16 0 -34.5 14.5t-18.5 24.5z" />
<glyph unicode="K" horiz-adv-x="1189" d="M-113 -39q0 2 2 2q43 76 93.5 191.5t102.5 255t104.5 293t99.5 305.5q41 133 64.5 232t34.5 164.5t13 99.5t2 36q0 4 2.5 8t10.5 8q35 14 82 25q41 10 99 17.5t136 7.5h37q18 0 39 -2q4 0 8 -2q6 -2 6 -11v-4q0 -2 -2 -2q-39 -59 -82 -151q-37 -78 -84 -197t-98 -283 q0 -4 2 -8t2 -7t4 -3t13 12q127 147 245 275q51 55 104.5 110.5t104.5 105.5t96.5 90t79.5 62q33 23 87.5 30t107.5 7q33 0 60.5 -1t49.5 -3q25 -2 48 -6q16 -2 16 -12q0 -8 -10 -15q-123 -61 -240 -150t-209 -171q-109 -96 -203 -199q-4 -4 -8 -12q-4 -6 -7 -12.5t-3 -14.5 q6 -213 31 -403q10 -82 25.5 -166t37 -162t50 -144.5t65.5 -111.5l8 -4q8 -4 8 -12q0 -4 -10 -15q-41 -31 -90 -49t-95 -26.5t-81 -10.5t-47 -2q-18 0 -27 13q-4 6 -6 12q-37 92 -59.5 227t-36.5 264q-16 150 -23 310q-2 16 -10 16q-4 0 -12 -4q-4 -2 -7 -6 q-59 -72 -100 -129.5t-67 -98.5q-31 -47 -48 -81q-39 -78 -64.5 -156t-39.5 -141.5t-19.5 -102.5t-5.5 -41q0 -8 -8 -16q-4 -4 -8 -4q-78 -33 -155.5 -41t-131.5 -8h-51q-10 0 -18 2q-14 2 -15 14v6z" />
<glyph unicode="L" horiz-adv-x="1071" d="M-113 -20q0 8 7 14l6 6q31 35 60.5 90t59 122t56 140.5t51.5 145.5q55 168 109 356q61 156 91.5 268.5t44 189.5t13.5 123v66v25q0 4 -2 6q0 4 2 11t12 11q33 14 78 25q39 10 97.5 16.5t136.5 6.5h44q22 0 46 -3q4 2 8 0q6 -2 6 -8q0 -4 -2 -6q-37 -45 -82 -137 q-39 -78 -89 -212t-108 -349q-45 -133 -83 -262q-16 -55 -34 -115.5t-32 -120t-25.5 -116t-17.5 -105.5v-6q0 -18 10 -21.5t37 -3.5q123 0 218 51.5t163 114.5q80 74 137 166q35 47 61.5 57.5t34.5 10.5q20 0 27 -11q4 -6 6 -10q-23 -104 -54.5 -193.5t-61.5 -154.5 q-37 -78 -74 -141q-6 -10 -19 -15l-12 -4q-154 -33 -304.5 -44t-277.5 -11q-74 0 -135 2t-106 6q-53 4 -92 8q-11 5 -11 11z" />
<glyph unicode="M" horiz-adv-x="1691" d="M-113 -23q0 2 2 3q33 37 86 135q45 84 113 235.5t158 401.5q51 129 94 264q37 117 70.5 253t42.5 261q0 2 2 6q6 10 10 12q47 16 110 29q53 10 131 18.5t177 8.5q4 0 8 -2q6 -2 6 -9q0 -4 -10 -71.5t-10 -231.5q0 -92 5 -216t21 -286q0 -6 2 -14q4 -16 13 -16q8 0 22 16 q115 137 219 279q45 59 91 125.5t88 133t79 131t62 122.5q0 2 2 6t14 10q47 12 100 21q47 8 105.5 14t118.5 6q29 0 57.5 -2t56.5 -6q4 0 6 -2q4 -4 5 -8q0 -6 -5 -13q-37 -59 -77 -145q-35 -74 -81 -182.5t-98 -255.5q-23 -66 -49 -150t-50.5 -171t-45 -169t-33.5 -145 q-12 -66 -16 -119t-4 -94q0 -63 6 -99q4 -20 6 -32q2 -2 2 -9q0 -8 -6 -14q-4 -4 -8 -6q-111 -45 -191 -57.5t-123 -12.5h-30q-6 0 -11 2q-16 4 -20 13.5t-4 19.5q0 49 14.5 124t38 163t53 182t60.5 187q72 215 164 454q4 8 4 19q0 6 -4 6t-15 -6q-6 -4 -10 -9 q-166 -193 -282.5 -367.5t-190.5 -309.5q-86 -158 -141 -297q-8 -12 -24.5 -19.5t-37 -11.5t-39 -5t-30.5 -1q-35 0 -54 6q-10 4 -16 6q-4 2 -5 6t-1 8q10 51 14 133t4 175q0 59 -1 158.5t-3 201.5t-6 189t-8 118q-6 27 -12 27t-15 -12q-4 -6 -6 -15q-31 -80 -59.5 -155.5 t-51.5 -145.5q-63 -186 -100 -324.5t-59 -234.5q-25 -113 -35 -192q0 -8 -8 -17q-4 -4 -8 -6q-78 -27 -145.5 -35t-115.5 -8h-31q-13 0 -24 2q-10 2 -20 2q-12 4 -13 12v4z" />
<glyph unicode="N" horiz-adv-x="1241" d="M-113 -39q0 4 2 6l5 4q27 37 55 90.5t58 116t58.5 130t53.5 132.5q59 154 119 324q74 170 110.5 297t53 219t17.5 149.5t1 88.5q0 23 -1 32t-1 13q0 10 6 12q4 2 6 2q33 8 72 16q35 6 81 11.5t101 5.5q68 0 89.5 -4t21.5 -15q0 -41 4 -115.5t20.5 -186t49 -260 t89.5 -337.5l5 -12q4 -12 12 -12q10 0 20 24q55 145 97 289q18 61 34.5 128t29.5 133.5t21.5 129t8.5 117.5q0 35 -3 51t-3 25q0 10 8 12q39 6 80 14q35 6 82 10.5t94 4.5q51 0 100 -7q2 0 6 -2q6 -2 6 -8q0 -4 -2 -8q-53 -51 -106 -147q-47 -82 -100.5 -215.5 t-100.5 -335.5q-57 -166 -102 -326q-18 -68 -38 -141.5t-34 -146t-23.5 -141.5t-9.5 -126q0 -10 -4 -14l-4 -4q-57 -27 -106 -35t-84 -8h-27q-10 0 -20 2t-19 4q-12 2 -12 10q-16 223 -53 411.5t-74 329.5q-43 164 -94 299q-6 18 -13 19q-6 0 -10 -8l-4 -9 q-92 -229 -143 -403t-76 -295t-30 -190.5t-5 -87.5q0 -10 -6 -15q-4 -2 -6 -4q-84 -35 -157 -44t-124 -9q-82 0 -82 10z" />
<glyph unicode="O" horiz-adv-x="1292" d="M43 489q0 125 28.5 258.5t83 260.5t132.5 241.5t178 200.5t220 136t257 50q113 0 195 -42t134 -115.5t77.5 -173t25.5 -211.5q0 -125 -28.5 -259.5t-84 -262.5t-134 -243.5t-178 -202.5t-218.5 -138t-254 -51q-113 0 -194.5 43t-135 118.5t-79 175.5t-25.5 215zM365 442 q0 -135 43 -224t137 -89q66 0 128 49t117.5 131t103.5 186.5t83 218t54.5 227.5t19.5 210q0 129 -39 212t-127 83q-68 0 -133.5 -47t-124 -126t-106.5 -182.5t-83 -215t-54 -223.5t-19 -210z" />
<glyph unicode="P" horiz-adv-x="1187" d="M-113 -31q0 6 2 8t2 5q61 92 116.5 210.5t105 248.5t91.5 262.5t79 248.5q43 139 68.5 242.5t38.5 176.5t16.5 120t3.5 74q0 10 12 14q-4 0 37 5t108.5 12.5t150.5 13.5t163 6q125 0 216 -28.5t151.5 -80t89 -121t28.5 -149.5q0 -119 -49 -224.5t-144.5 -184t-233.5 -125 t-316 -46.5q-20 0 -54 -1t-65 -7q-4 0 -10 -2q-10 -4 -15 -10q-57 -147 -89 -262t-46 -193q-16 -92 -18 -159q0 -16 -9 -25q-4 -4 -8 -4q-86 -27 -166 -34t-139 -7h-43q-18 0 -33 2q-16 2 -26 2q-15 2 -15 12zM545 856q0 -14 12 -16q10 -2 23 -4q10 -2 24 -3.5t33 -1.5 q80 0 154.5 33t132 91.5t91.5 139.5t34 179q0 72 -41 122t-150 50q-20 0 -35.5 -1t-25.5 -3q-12 -2 -21 -6q-10 -2 -20 -13q-4 -4 -6 -8q-39 -76 -77 -172t-65.5 -182t-45 -144.5t-17.5 -60.5z" />
<glyph unicode="Q" horiz-adv-x="1288" d="M41 475q0 125 26.5 259t79 263t129 246t176 205t221.5 139t263 51q104 0 185 -38.5t136.5 -108.5t84 -168t28.5 -215q0 -137 -37 -286.5t-103.5 -286t-159.5 -247t-206 -169.5l-2 -2q-4 -4 -4 -6l2 -9q12 -47 35 -92q18 -39 49 -79t72 -62q10 -6 10 -14q0 -4 -4 -9 q-39 -31 -79 -49t-77 -27.5t-65.5 -12.5t-46.5 -3q-29 0 -34 3t-15 14q-63 80 -87 176q-2 4 -8 4q-18 -4 -32.5 -7t-28.5 -5t-31 -2h-39q-106 0 -188 39.5t-137.5 111.5t-84 170t-28.5 217zM371 432q0 -141 42 -227t128 -86q12 0 33.5 4t19.5 22l-4 37q-2 16 -3 33.5 t-1 34.5q2 12 8 15t10 3h23q70 0 128 47t104 123t82 171.5t59.5 193.5t35 190t11.5 160q0 133 -39 213t-121 80q-72 0 -137.5 -50t-123 -133t-104.5 -190.5t-80.5 -220.5t-52 -222.5t-18.5 -197.5z" />
<glyph unicode="R" horiz-adv-x="1243" d="M-113 -31q0 6 2 8t2 5q61 92 116.5 210.5t105 248.5t91.5 262.5t79 248.5q43 139 68.5 242.5t38.5 174.5t16.5 114t3.5 61v21q0 10 12 14l39 6q39 6 101.5 13.5t139 12.5t150.5 5q31 0 80 -2t103.5 -11.5t110.5 -30t100 -56t73 -90t29 -134.5q0 -96 -28 -169.5t-71 -130 t-96 -95.5t-106.5 -64.5t-100.5 -38t-76 -16.5q-6 0 -12 -10q-2 -4 -2 -8q29 -209 71 -345t83 -216q47 -94 96 -146q10 -6 10 -10q0 -6 -6 -10q-4 -2 -6 -4q-111 -59 -192 -74.5t-115 -15.5q-39 0 -49 14q-23 43 -41.5 100.5t-33 120t-25.5 128t-19 126.5q-20 143 -29 299 q0 10 -27 10h-19q-9 0 -17 -2t-19 -4q-8 0 -14 -6l-4 -4q-59 -147 -92 -274.5t-52 -221.5q-23 -111 -28 -202q0 -16 -9 -25q-4 -4 -10 -4q-86 -27 -166 -34t-139 -7h-43q-18 0 -33 2q-16 2 -26 2q-15 2 -15 12zM563 920q0 -12 12 -13q127 0 211 39t135.5 97.5t73 126 t21.5 122.5q0 49 -15.5 79t-39 47.5t-52 23.5t-57.5 6q-37 0 -55 -6q-10 -4 -21 -6q-8 -2 -18 -13q-4 -4 -6 -8q-25 -47 -57.5 -124t-62.5 -154.5t-49.5 -139t-19.5 -77.5z" />
<glyph unicode="S" horiz-adv-x="1216" d="M2 254q0 76 42 154.5t107.5 142t144.5 103.5t153 40q29 0 48 -5t19 -27q0 -10 -6 -21q-4 -6 -8 -8q-55 -49 -91 -96.5t-56.5 -89t-29 -77.5t-8.5 -65q0 -66 30 -103.5t65 -54.5q41 -20 92 -24q104 2 174 43t111.5 95t59 110.5t17.5 89.5q0 72 -34.5 130t-87 110.5 t-114 100.5t-113.5 99t-87 108.5t-35 129.5q0 86 49.5 172t139.5 156.5t217 114.5t282 44q49 0 97.5 -6t87.5 -22.5t62.5 -48t23.5 -81.5q0 -49 -22.5 -108.5t-58.5 -110.5t-82 -86t-95 -35q-14 0 -33 7.5t-19 35.5q0 23 18.5 52.5t18.5 93.5q0 113 -133 113 q-29 0 -69.5 -12.5t-78.5 -38t-64.5 -63.5t-26.5 -89q0 -47 34.5 -88t87 -83t113 -88t112.5 -104.5t87 -131.5t35 -169q0 -129 -61.5 -242.5t-166 -198.5t-242 -134t-288.5 -49q-213 0 -315.5 82.5t-102.5 232.5z" />
<glyph unicode="T" horiz-adv-x="1024" d="M2 322q0 125 35 242.5t92 224t133 197.5t159 163t168 120t159 68q4 0 10 2t22 2q14 0 24.5 -4t10.5 -20q0 -6 -4 -13.5t-18 -17.5q-43 -29 -93 -78q-41 -41 -91 -106.5t-101 -157.5v-2q0 -2 -1 -2t-1 -2q0 -4 6 -8q6 -2 24.5 -7t38 -14.5t35 -22t15.5 -24.5 q0 -14 -19 -22q-41 -12 -89 -47t-90 -87.5t-69.5 -123t-27.5 -154.5q0 -31 6 -66.5t24.5 -65.5t51 -49.5t86.5 -19.5q6 0 48 5.5t101.5 38t128 101t131.5 195.5q6 8 15 17q8 6 17 12t22 8q8 0 18 -6t10 -31q0 -125 -50 -238.5t-137 -199.5t-202 -137t-244 -51 q-111 0 -180.5 35.5t-108 91t-52 123.5t-13.5 131zM184 1337q0 4 10.5 34t32 69t53 79t72.5 62q16 6 45 12q25 4 63 7.5t97 3.5q45 0 85 -2.5t83 -5.5t90 -6t107 -3q61 0 137 3t148.5 13.5t135 29t97.5 46.5q4 2 10 4.5t12 2.5q23 0 23 -21q0 -18 -29 -73.5t-74 -114 t-100 -103.5t-108 -45q-49 0 -98.5 14.5t-111 33t-143.5 32.5t-198 14q-90 0 -156 -12t-111 -29q-53 -18 -88 -41q-20 -14 -43 -22q-10 -4 -20 -4q-6 0 -13.5 3t-7.5 19z" />
<glyph unicode="U" horiz-adv-x="1173" d="M0 274q0 33 11.5 86.5t29.5 114t38.5 124t39 113.5t31 82.5t14.5 34.5q61 174 97 300t54.5 212t22.5 135.5t4 67.5q0 10 -1 14.5t-1 8.5q0 10 16 16q33 10 72 19q35 6 82 11t104 5q18 0 48 -1t58 -3t48 -7t20 -16q0 6 -33.5 -61.5t-83.5 -179t-108.5 -253t-109 -284.5 t-84 -273t-33.5 -218q0 -33 7 -67t26.5 -60.5t52.5 -43t82 -16.5q16 0 47 6t67.5 31t76.5 72t73 127q80 186 147 387q29 86 56.5 181t51.5 196.5t39 205t21 203.5q0 2 2 6q4 6 11 11q31 14 71 22q35 8 86.5 14.5t116.5 6.5q53 0 115 -7q4 0 8 -2q6 -2 6 -10q0 -6 -4 -12 q-53 -70 -115 -184q-53 -98 -122.5 -259t-149.5 -401q-14 -49 -33 -102q-16 -45 -33.5 -98.5t-35.5 -106.5q-49 -141 -112 -233.5t-138.5 -145.5t-166.5 -74.5t-198 -21.5q-135 0 -213 39t-118 93t-50 109t-10 86z" />
<glyph unicode="V" horiz-adv-x="894" d="M0 -37q0 6 2 8t2 4q31 92 51.5 210t34.5 223q16 123 25 249q29 174 30.5 313.5t1.5 243.5q0 86 -3 148.5t-7 103.5l-10 82q0 12 10 15q37 14 80 22q37 8 89 14.5t114 6.5q53 0 110 -7q4 0 9 -2q6 -2 6 -10l-2 -8q-35 -102 -64 -254q-25 -129 -48 -322.5t-34 -455.5 q0 -10 2 -19.5t7 -9.5q6 0 16 17q139 199 258 387q51 80 102.5 168t97.5 173t81.5 164.5t54.5 145.5q0 4 2 8q4 6 14 10q35 8 126 24.5t200 16.5h34q17 0 33 -2q6 0 11 -2q8 -4 8 -8q0 -6 -8 -14q-33 -29 -72 -70q-35 -35 -82 -89t-104 -132q-63 -84 -140 -189.5 t-155 -222.5t-155 -237.5t-141.5 -236.5t-112.5 -220.5t-71 -188.5q0 -4 -4 -8q-8 -8 -16 -12q-86 -33 -161 -43t-126 -10h-37q-16 0 -26 2q-12 2 -23 4q-10 2 -10 10z" />
<glyph unicode="W" horiz-adv-x="1583" d="M0 -39q0 2 4 14q27 94 46.5 212t33.5 223q16 123 31 247q29 174 30.5 313.5t1.5 243.5q0 86 -3 148.5t-7 103.5l-10 82q0 12 10 15q37 14 80 22q37 8 89 14.5t114 6.5q53 0 110 -7q4 0 9 -2q6 -2 6 -10l-2 -8q-35 -102 -64 -254q-25 -129 -48 -322.5t-34 -455.5 q0 -10 2 -19.5t7 -9.5q6 0 16 17q53 76 110 161q49 74 112 169.5t124 199.5q37 70 70 137q29 59 52 126t28 124q0 16 10 25q43 16 96 28q45 10 101.5 19.5t121.5 9.5h24q11 0 23 -2q4 0 9 -2q6 -2 6 -10l-2 -9q-31 -86 -60 -221q-25 -117 -48 -299t-34 -444q0 -6 1 -16.5 t8 -10.5q4 0 16 15q139 199 258 387q51 80 102.5 168t97.5 173t81.5 164.5t54.5 145.5l4 8q4 8 14 10q41 12 92 21q43 8 102.5 14t129.5 6h35q18 0 34 -2q4 0 9 -2q8 -4 8 -8q0 -6 -8 -14q-33 -29 -72 -70q-35 -35 -81 -89t-105 -132q-63 -84 -139 -189.5t-155 -222.5 t-155 -237.5t-141.5 -236.5t-113.5 -220.5t-71 -188.5q0 -4 -4 -8q-8 -8 -16 -12q-86 -33 -158.5 -43t-126.5 -10h-38q-17 0 -27 2q-12 2 -23 4q-10 2 -10 10q0 6 2 8t2 4q31 92 51.5 210t34.5 223q16 123 25 249q10 66 16 125.5t6 114.5q0 12 -8 12t-10 -2l-4 -4 q-78 -117 -155 -237.5t-141.5 -236.5t-112.5 -220.5t-71 -188.5q0 -4 -4 -8q-8 -8 -16 -12q-86 -33 -161 -43t-126 -10h-37q-16 0 -26 2q-12 2 -23 4q-10 2 -10 8z" />
<glyph unicode="X" horiz-adv-x="1380" d="M-240 -33q0 10 11 17q80 49 161.5 113.5t161.5 137t154 149.5t139 151q154 172 293 356q6 8 7 15t1 16q-33 207 -70.5 328.5t-70.5 187.5q-37 76 -76 104q-6 6 -6 8q0 6 8 11q4 2 6 4q31 16 82 28q43 10 109.5 19.5t158.5 9.5q4 0 9.5 -2t7.5 -10q16 -59 33 -137 q14 -66 32.5 -159t36.5 -212l2 -2q4 -4 8 -4q6 0 11 4q68 74 131 151q53 66 108.5 144t83.5 143q0 4 2 8t6.5 8.5t8.5 6.5q47 14 102 26q47 10 113.5 18.5t142.5 8.5h51q25 0 54 -4q23 -4 22 -17q0 -6 -10 -14q-119 -72 -250 -174q-113 -88 -254 -218t-287 -306 q-2 -4 -4 -11q-2 -4 -4 -10t-2 -12q0 -14 6 -68.5t18.5 -131.5t32 -168t45 -179t58.5 -164t71 -125q6 -6 7 -12q0 -6 -2 -8l-2 -2q-51 -31 -105.5 -48.5t-101.5 -25.5t-82 -10t-49 -2q-16 0 -21.5 4t-9.5 12q-16 41 -33.5 130t-32.5 181q-16 106 -30 230q-16 98 -20.5 129 t-14.5 31q-6 0 -8 -3q-2 -2 -4 -2q-88 -78 -168 -181t-140 -195q-70 -109 -131 -220q-6 -16 -16 -22q-6 -4 -10 -6q-98 -31 -180.5 -42t-143.5 -11q-70 0 -106 6q-23 4 -39 8q-11 2 -11 14z" />
<glyph unicode="Y" horiz-adv-x="882" d="M0 -92q0 2 1 3t1 3v2q76 131 127 251t82 221t44 179t13 123q0 82 -12 174t-30.5 181.5t-40 168t-40.5 134.5q-14 47 -30.5 81.5t-28.5 57.5q-14 27 -29 45l-4 4q-6 6 -6 12t8 15q39 16 90 28q43 10 105.5 18.5t142.5 8.5h45q23 0 47 -4q4 0 8.5 -2t4.5 -8 q0 -4 -8.5 -52.5t-8.5 -146.5q0 -88 12.5 -215t51.5 -295q0 -4 2 -8q4 -8 10 -8q8 0 16 8q78 80 160 182q70 88 152 209t155 272q2 6 7 13q4 4 8 10t10 8q37 8 82 16q39 6 89 11.5t105 5.5h30q24 0 51.5 -2t49 -7.5t21.5 -13.5q0 -4 -6 -10q-164 -131 -324 -291 q-68 -68 -142.5 -149.5t-149 -174t-146.5 -193.5t-135 -212q-45 -100 -82 -203q-31 -88 -57.5 -189t-26.5 -192q0 -4 -3 -16t-18 -16q-100 -35 -179 -45.5t-130 -10.5h-36q-15 0 -25 2q-12 2 -21 5q-12 2 -12 12z" />
<glyph unicode="Z" horiz-adv-x="1245" d="M-68 -20q0 8 2 10t3 4q80 141 180 280.5t206.5 273.5t213 260t202 237.5t172 209t121.5 172.5q2 4 2 11q0 6 -8 10q-4 2 -10 2q-156 0 -259.5 -52t-164.5 -118q-72 -76 -111 -172q-6 -14 -16 -17.5t-16 -3.5q-39 0 -50.5 24t-11.5 44q0 31 19.5 89.5t45 119.5t51 115.5 t40.5 74.5q14 25 35 27q66 10 145 18q68 6 162 11.5t205 5.5q106 0 221.5 -6t238.5 -25q8 -2 14.5 -6t6.5 -16q0 -14 -17 -31q-227 -231 -440 -473q-90 -102 -187.5 -217t-190.5 -232.5t-178 -236.5t-152 -230l-3 -4q-2 -4 -2 -12q0 -14 17.5 -17.5t50.5 -3.5 q43 0 114.5 13.5t155.5 59.5t175.5 135t175.5 239q2 6 8 10q12 8 26 8q16 0 36 -8t20 -49q0 -14 -12.5 -70.5t-37 -130t-61.5 -153.5t-84 -146q-8 -10 -24 -18q-8 -4 -17 -4q-135 -29 -286.5 -40t-288.5 -11q-88 0 -164 2t-133 6q-68 4 -121 10q-10 2 -14.5 8.5t-4.5 12.5z " />
<glyph unicode="[" horiz-adv-x="854" d="M2 -121q0 10 4 23q2 6 2 10q68 143 133.5 307t123 330t105.5 322.5t83 281.5q33 117 53 203t33 145q14 68 22 117q6 25 17 39q6 8 8 12q59 47 141 79t158 52q88 23 180 39q12 -2 20 -8q8 -4 14.5 -9t6.5 -16q0 -10 -19 -26q-59 -27 -112 -70q-47 -37 -93 -94t-75 -141 q-35 -94 -74 -205q-35 -94 -77 -219t-89 -267q-51 -162 -100 -315.5t-87 -281.5t-60.5 -221t-22.5 -134q0 -47 9 -85t22 -64q14 -31 30 -56q8 -14 9 -24q0 -23 -27 -31q-12 -4 -27 -4q-111 63 -173 116.5t-93 94.5t-38 67.5t-7 32.5z" />
<glyph unicode="\" horiz-adv-x="1161" d="M109 1776q0 16 35.5 20t68.5 4q41 0 68.5 -5t48.5 -13q23 -8 39 -21q4 -4 7 -15t7 -22q4 -12 6 -24q106 -365 219 -705q47 -145 100.5 -299.5t108.5 -303t111.5 -284t107.5 -241.5q0 -12 -8 -23q-8 -10 -23.5 -16t-43.5 -10q-16 -2 -35 -6q-31 -6 -72 -7q-29 0 -49.5 6.5 t-22.5 22.5q-6 63 -28.5 157.5t-54 206t-70.5 235.5t-81 248t-84 242.5t-79 221.5q-43 123 -91 234.5t-89 199.5q-47 102 -94 190q-2 3 -2 7z" />
<glyph unicode="]" horiz-adv-x="688" d="M-270 -397q0 10 18 26q59 27 113 70q47 37 93 94t75 141q35 94 73 205q35 94 78 219t88 267q53 162 101.5 315.5t86.5 281.5t60.5 221t22.5 134q0 47 -9.5 85t-21.5 64q-14 31 -31 56q-8 14 -8 24q0 23 27 31q12 4 26 4q111 -63 173.5 -116.5t93 -94.5t38 -67.5 t7.5 -32.5v-11q0 -7 -3 -12q-2 -6 -4 -10q-68 -143 -133 -307t-122.5 -330t-105.5 -321.5t-83 -282.5q-33 -117 -53.5 -203t-32.5 -145q-14 -68 -23 -117q-6 -29 -14 -39q-6 -8 -10 -12q-59 -47 -141 -79t-158 -52q-88 -23 -180 -39q-12 2 -21 8q-8 4 -14 9.5t-6 15.5z" />
<glyph unicode="_" horiz-adv-x="1024" d="M-43 -193q0 4 8 26t23.5 46.5t36 45t45.5 20.5q6 0 12 -2q10 -4 36.5 -7.5t59.5 -4.5l66 -2q33 -1 57 -1q61 0 141 1t163 3t161 6.5t131 8.5q4 0 10 -2t6 -8q0 -2 -5 -15.5t-15 -33t-24.5 -41t-34.5 -42.5q-2 -2 -9 -2h-24q-70 2 -131 2h-119q-127 0 -229.5 -3t-176 -7 t-114.5 -7t-43 -3q-20 0 -27 10q-4 6 -4 12z" />
<glyph unicode="`" horiz-adv-x="380" d="M2 1446q0 12 13.5 28.5t34 32t44 25.5t41.5 10q29 0 39 -8q66 -53 105.5 -96t62.5 -74q25 -37 37 -66q2 0 2 -2v-10q0 -16 -8 -24q-4 -4 -11 -5q-6 0 -14 5q-4 2 -6 2q-53 37 -108.5 65.5t-100.5 46.5q-53 23 -102 37q-20 4 -24.5 13.5t-4.5 19.5z" />
<glyph unicode="a" horiz-adv-x="993" d="M-20 215q0 102 33.5 182t90 140.5t128 102.5t149.5 68.5t153.5 39t139.5 14.5q10 0 15 3t9 7t4 8q16 45 17 74q0 37 -16.5 56.5t-38.5 29.5q-25 10 -58 10q-47 0 -84 -14t-63 -31q-31 -20 -51 -45q-14 -14 -27 -14q-10 0 -17.5 13t-12.5 31.5t-7 36t-2 23.5q0 18 2 36 t6 30q4 14 6 26l4 9q2 4 6.5 8t8.5 6q29 14 67 25q35 10 82 17t107 7q37 0 95 -4t112.5 -26.5t94.5 -74t40 -143.5q0 -72 -32 -164t-71 -193t-70.5 -208.5t-31.5 -210.5q0 -25 3 -45t13 -35l4 -4q2 -2 3 -10q0 -6 -3 -8q-2 -2 -4 -2q-49 -33 -100 -43.5t-88 -10.5 q-35 0 -54.5 3.5t-29.5 19.5q-8 14 -10 36.5t-2 45.5q0 29 2 49t2 25q0 12 -8 12q-2 0 -11 -4q-4 -2 -6 -4q-43 -49 -89 -77t-86 -41t-71.5 -17.5t-48.5 -4.5q-55 0 -94 21.5t-63.5 56.5t-35.5 77t-11 85zM293 322q0 -29 13 -61t61 -32q61 0 110 46.5t84 105.5t53.5 115.5 t18.5 81.5q0 12 -6 14q-4 2 -6 2q-61 0 -120 -15.5t-105 -49t-74.5 -84.5t-28.5 -123z" />
<glyph unicode="b" horiz-adv-x="962" d="M-123 -16q0 8 2 10t2 4q25 37 59.5 110.5t73.5 172t80 213t82 233.5t80 235.5t70 217.5q25 78 41 143.5t26 114.5q12 57 19 104q0 4 4 10q4 4 8 9.5t14 9.5q41 14 86 26q39 10 88.5 18.5t100.5 8.5q35 0 42 -3t7 -7t-6 -17q-37 -74 -76 -161q-35 -76 -74 -176.5 t-78 -217.5v-4q0 -2 -1 -4t-1 -6q0 -10 6 -10t23.5 13t46.5 29.5t67 30t85 13.5q23 0 54.5 -8.5t61 -37t51 -84.5t21.5 -155q0 -78 -16.5 -172t-48 -188t-80.5 -182.5t-116 -157t-149.5 -109.5t-185.5 -41q-47 0 -74.5 9.5t-43 21.5t-22.5 21.5t-18 9.5q-6 0 -10 -2t-6 -4 q-72 -43 -129 -56.5t-94 -13.5q-35 0 -53.5 4.5t-18.5 24.5zM268 240q0 -10 11 -17q8 -2 16 -6q16 -6 39 -6q51 0 98 31.5t86 83t71 116t54.5 130t33.5 126t11 101.5q0 109 -63 108q-23 0 -43.5 -10t-36.5 -25q-18 -16 -35 -36q-41 -55 -75 -121t-60.5 -131.5t-46 -127 t-32.5 -109.5t-20.5 -76.5t-7.5 -30.5z" />
<glyph unicode="c" horiz-adv-x="921" d="M41 313q0 129 48 270.5t137 261.5t213 197.5t274 77.5q104 0 168.5 -38t64.5 -130q0 -53 -26.5 -111.5t-67.5 -106.5t-91 -78.5t-97 -30.5q-16 0 -27.5 7t-11.5 25q0 8 7 23.5t17 36.5q16 25 27 49q10 23 17 49.5t7 52.5q0 33 -12 53.5t-55 20.5q-39 0 -93.5 -41 t-103.5 -114.5t-84 -178t-35 -233.5q2 -47 19 -84q14 -33 43 -59.5t82 -26.5q25 0 57.5 7t72.5 29.5t86 64.5t93 114q2 4 6 8q8 8 19 8q2 0 9 -2t15 -8t15.5 -16.5t7.5 -26.5q0 -18 -27 -86t-86 -142.5t-155.5 -134t-235.5 -59.5q-78 0 -134.5 27.5t-92 75t-53 111.5 t-17.5 138z" />
<glyph unicode="d" horiz-adv-x="1038" d="M31 215q0 59 16 148.5t52 187.5t90.5 195.5t130 175t173 127t218.5 49.5q25 0 50 -5.5t48 -17.5h2q2 0 3 -1t3 -1q12 0 17 17q35 88 63 176q25 76 48.5 165t33.5 164q0 4 2 10.5t10 10.5q33 18 74 33q35 12 84 21t108 9h28q13 0 30 -2q10 -2 10 -10q0 -4 -4 -12 q-61 -141 -119 -275q-25 -57 -50.5 -117.5t-49 -120t-43 -113.5t-33.5 -97q-27 -84 -61.5 -200t-66.5 -237.5t-53.5 -233t-21.5 -187.5v-31q0 -14 4 -27q2 0 2 -2v-8q0 -18 -33.5 -32.5t-76.5 -23.5t-85 -14.5t-61 -5.5h-28q-6 0 -10 2q-14 0 -19 15q-2 6 -2 12 q2 76 16.5 135.5t14.5 71.5q0 8 -4 8t-17 -8q-6 -4 -10 -10q-57 -66 -112.5 -102t-99.5 -53t-73.5 -21.5t-38.5 -4.5q-49 0 -79.5 21.5t-49 56.5t-24.5 77t-6 85zM340 362q0 -41 12.5 -69.5t46.5 -30.5q45 4 93 35q41 27 85 81t85 154q33 94 55 173q10 33 19 64.5t17.5 58 t12.5 44t4 21.5q0 20 -10 31.5t-25 15.5q-16 6 -35 6q-43 0 -105.5 -49t-118.5 -130t-96 -186.5t-40 -218.5z" />
<glyph unicode="e" horiz-adv-x="937" d="M41 319q0 70 18.5 156t54.5 175t90 173t128 150.5t166 106.5t202 40q33 0 74 -7t78 -27.5t61.5 -57.5t24.5 -96q0 -27 -16.5 -97.5t-77 -157.5t-180 -174t-328.5 -147q-4 -2 -6 -4l-4 -4q-2 -2 -2 -4q4 -72 44 -101.5t105 -29.5q25 0 61.5 6t80.5 25.5t93.5 56.5 t94.5 100l8 9q8 8 18 8q4 0 19.5 -6t15.5 -39q0 -39 -27.5 -106.5t-88 -134t-153.5 -115t-222 -48.5q-63 0 -124 17.5t-107 58.5t-73.5 108.5t-27.5 165.5zM330 522q0 -2 2 -6q4 -6 12 -6q66 16 125 60t105.5 97.5t74 110t27.5 94.5q0 29 -15.5 45.5t-50.5 16.5 q-49 0 -97 -43t-87 -106.5t-64.5 -135.5t-31.5 -127z" />
<glyph unicode="f" horiz-adv-x="669" d="M-236 -373q0 10 3 15q2 4 2 6q35 43 80 137t94 218t100 268.5t100 287.5q113 338 236 739q4 12 10 23q4 10 10.5 19.5t12.5 15.5q63 76 147 135q72 51 173.5 93t230.5 42q47 0 66.5 -6t19.5 -29q0 -8 -17.5 -56t-60.5 -101q-12 -16 -29.5 -34t-30.5 -18q-10 0 -19 4.5 t-9 24.5q0 8 -5.5 28.5t-33.5 20.5q-10 0 -42 -10t-74 -49t-85 -113t-76 -201q0 -23 17 -22q6 0 14 -2t22 -2h31q23 0 54 -1h6q29 0 67 7q2 2 4 2h9q12 0 12 -12q0 -2 -7.5 -24.5t-20.5 -50.5t-34.5 -52.5t-52.5 -30.5q-23 0 -47 -2q-23 -2 -47.5 -3t-46.5 -1 q-16 0 -26.5 -3t-16.5 -16q-59 -139 -113 -303q-47 -141 -97 -323t-85 -387q0 -6 -3 -21.5t-20 -32.5q-59 -72 -127.5 -111.5t-129 -59t-101.5 -24.5t-43 -5q-21 0 -21 20z" />
<glyph unicode="g" horiz-adv-x="1042" d="M-31 -659q0 16 15 24q8 4 14 6q78 20 143.5 65.5t120.5 105t99.5 128t78.5 135.5q82 160 133 353q2 6 2 14t-4 8t-16 -8q-6 -4 -10 -10q-55 -63 -106.5 -101t-95.5 -56.5t-75.5 -24t-48.5 -5.5q-55 0 -91 24t-55.5 60.5t-26.5 81.5t-7 88q0 76 20.5 170.5t59.5 190.5 t97 187t134 162t168 114t199 43q35 0 73.5 -8.5t65.5 -34.5q0 -2 2 -4q6 -6 8 -7q6 0 17.5 15.5t29.5 64.5l9 8q10 10 18 13q27 12 59 20q29 8 67 13.5t85 5.5h26q13 0 27 -2q2 0 6 -2q6 -2 7 -11q0 -4 -3 -8q-41 -68 -77 -141q-33 -63 -70 -140t-66 -155 q-12 -33 -32.5 -100.5t-46 -151.5t-52 -177t-51 -177t-43 -152.5t-28.5 -101.5q-41 -141 -112 -249t-160 -181.5t-188.5 -111.5t-199.5 -38q-74 0 -96.5 23t-22.5 35zM354 360q0 -41 11.5 -68.5t46.5 -29.5q47 4 94 35q41 27 86 81t82 154q27 63 49 125q20 53 40.5 108.5 t31.5 90.5q2 8 3 14.5t1 12.5q0 23 -11.5 35t-25.5 16q-16 6 -37 6q-53 0 -117.5 -48t-121 -129t-94.5 -185.5t-38 -217.5z" />
<glyph unicode="h" horiz-adv-x="1007" d="M-123 -29q0 2 2 2q47 76 105.5 210t119 292t116.5 324t97 305q27 90 44.5 166t28.5 131t17 87l5 32q0 4 3 11t13 13q12 8 38 20.5t64.5 25t92 21.5t118.5 9q6 0 20.5 -1t14.5 -9t-4 -17q-37 -66 -78 -157q-35 -78 -81 -192t-93 -261q0 -8 1 -15t7 -7q4 0 19 10 q43 41 96 71q47 27 108.5 48.5t137.5 21.5q39 -2 69 -22q27 -16 48.5 -55.5t21.5 -110.5q0 -55 -17.5 -132t-58.5 -184q-39 -96 -69 -192q-27 -82 -49.5 -171t-22.5 -155q0 -35 8 -55.5t8 -24.5q0 -6 -8 -12q-33 -23 -72.5 -36t-77.5 -19t-72 -8.5t-54 -2.5h-23 q-18 0 -21 11.5t-3 23.5q0 31 8 73t20.5 89t28.5 97t35 98q41 113 92 235q39 88 54.5 146.5t15.5 93.5q0 31 -7.5 48t-18.5 24.5t-21.5 9.5t-16.5 2q-53 0 -102 -42t-86 -96q-43 -61 -82 -139q-76 -174 -117 -286.5t-59 -180.5q-23 -80 -25 -125q-2 -16 -9 -20t-11 -6 q-74 -23 -140.5 -30t-109.5 -7h-39q-8 0 -15 2q-14 2 -14 12v6z" />
<glyph unicode="i" d="M-82 -29q0 2 2 2q45 68 92 176.5t91 229.5t81 239.5t62 210.5q12 45 19 77t11 55q6 25 7 43q0 4 4 8l7 7q3 3 9 5q25 8 55 16q27 6 62 11.5t74 5.5q29 0 53 -3t53 -7q2 0 4 -3q4 -4 4 -8q0 -6 -6 -18q-12 -23 -29 -55q-14 -29 -30.5 -67t-34.5 -85q-29 -78 -64.5 -177 t-66.5 -201.5t-52.5 -201t-21.5 -174.5v-30q0 -12 -6 -19q-4 -4 -8 -4q-92 -35 -174 -45t-131 -10q-29 0 -47.5 2t-18.5 12v8zM393 1333q0 55 21.5 109.5t55.5 97.5t77 69.5t88 26.5q57 0 90 -44t33 -111q0 -68 -23.5 -123t-59.5 -96t-78 -63.5t-79 -22.5q-57 0 -91 44.5 t-34 112.5z" />
<glyph unicode="j" horiz-adv-x="526" d="M-602 -600q0 14 10 20q6 4 12 7q74 18 140.5 62t125 103.5t107.5 129t90 141.5q96 166 168 364q63 170 101 292t58.5 205t28 133t7.5 77t-3 36t-3 13q0 16 12 25q33 14 70 24q33 10 75.5 16.5t91.5 6.5t81 -4t32 -21q0 -4 -4 -16q-39 -70 -88 -191q-41 -104 -99.5 -273 t-129.5 -427q-27 -102 -64 -199q-31 -82 -71 -168t-87 -139q-104 -125 -239 -199.5t-299 -74.5q-41 0 -65.5 7t-37 16t-16.5 18.5t-4 15.5zM377 1333q0 55 21.5 109.5t55 97.5t76.5 69.5t88 26.5q57 0 90 -44t33 -111q0 -68 -23.5 -123t-59 -96t-77.5 -63.5t-79 -22.5 q-57 0 -91 44.5t-34 112.5z" />
<glyph unicode="k" horiz-adv-x="1009" d="M-123 -31q0 2 2 4q47 76 106.5 210t120 292t118 324t98.5 305q29 90 46 166t27 131q12 66 21 117q0 16 27.5 33.5t74.5 32.5t108.5 25.5t129.5 10.5q29 0 28 -10q0 -6 -6 -17q-57 -125 -114 -256q-49 -113 -102.5 -250t-94.5 -270v-4q0 -2 -1 -3t-1 -5q0 -16 10 -17 q8 0 23 15q84 96 178 170q41 31 86 61.5t93 55t99.5 39t100.5 14.5q4 0 10 -3t6 -16q0 -14 -11 -45.5t-27.5 -63.5t-35 -56.5t-32.5 -24.5q-4 0 -11.5 3t-11.5 3q-29 0 -74 -17.5t-88 -44t-73.5 -57t-30.5 -55.5q0 -14 12 -16q43 -12 76 -33q29 -16 51.5 -44t22.5 -67 q0 -18 -6.5 -80.5t-6.5 -173.5q0 -51 3 -104t10.5 -100.5t19.5 -85t33 -58.5q4 -2 6 -6q4 -8 4 -12q0 -12 -25.5 -25.5t-62.5 -25t-81 -17.5t-81 -6q-29 0 -38 6t-13 16q-16 39 -22.5 101.5t-6.5 130.5q0 57 3.5 110.5t7.5 96.5q4 51 8 96q4 41 8 75t4 56q0 33 -10 45 t-25 12q-10 0 -26 -8q-41 -20 -74 -57t-57 -74q-29 -43 -52 -90q-49 -100 -75.5 -174t-40 -123t-17.5 -77.5t-4 -39.5q0 -16 -10 -22q-6 -4 -10 -4q-76 -23 -143.5 -30t-112.5 -7h-41q-8 0 -15 2q-12 0 -12 10v6z" />
<glyph unicode="l" horiz-adv-x="509" d="M-82 -61l12 33q12 34 32 88.5t44.5 123t48.5 138.5l135 376q78 217 129.5 381t81.5 277q37 131 58 229q0 4 4 10q4 4 8 9.5t12 9.5q27 14 64 24q31 10 77 17.5t103 7.5q49 0 69.5 -3t20.5 -15q0 -6 -6 -19q-72 -86 -149 -244q-66 -135 -145 -363t-155 -577 q-23 -82 -43 -159q-16 -66 -30.5 -134.5t-14.5 -115.5q2 -16 4.5 -23.5t2.5 -11.5q0 -10 -11 -14q-37 -23 -77.5 -35t-79.5 -19.5t-73 -9.5t-58 -2h-35q-8 0 -13 2q-10 2 -13 8.5t-3 10.5z" />
<glyph unicode="m" horiz-adv-x="1601" d="M-123 -20q0 2 2 2q31 39 66 103.5t70.5 144t70.5 168.5t63.5 176.5t51 166t32.5 136.5q16 86 19.5 138t3.5 95q0 4 3 9t13 9q33 16 70 27q33 10 77 17.5t95 7.5q29 0 44 -3t15 -16q0 -4 -7 -57t-27 -119q0 -2 2 -6q4 -8 8 -8q8 0 20 10q41 41 93 76q43 29 100 52.5 t123 23.5q10 0 37.5 -3.5t55.5 -17.5t49.5 -45t21.5 -86v-18q0 -8 -2 -19q0 -2 2 -4q6 -6 8 -6q6 0 14 10q45 53 100 92q47 35 116 62.5t153 27.5q18 0 49 -5t60.5 -25.5t51 -60.5t21.5 -107q0 -92 -33 -188.5t-72.5 -197t-73.5 -207t-34 -220.5q0 -53 16 -92q2 0 5 -5 q2 -4 2 -12q0 -12 -26 -25.5t-66 -24.5t-88 -19.5t-93 -8.5q-27 0 -38 3t-15 16q-2 10 -2 37q0 106 37 230t82 239.5t81.5 212t36.5 149.5q0 33 -10 50.5t-22.5 25.5t-23.5 9t-13 1q-47 0 -92 -37t-80 -84q-39 -53 -76 -121q-55 -111 -94 -216t-64 -191q-29 -98 -45 -189 q0 -12 -10 -22q-4 -4 -8 -6q-61 -23 -119.5 -31t-101.5 -8h-33q-14 0 -25 2q-12 2 -22 4q-14 2 -15 14q0 4 1 5.5t1 3.5v2q76 139 127.5 264t82 224t43 168t12.5 93q0 37 -8.5 56.5t-19.5 29.5t-21.5 12.5t-14.5 2.5q-41 0 -75.5 -23t-61.5 -51q-31 -33 -55 -74 q-82 -143 -133.5 -269t-79.5 -222q-35 -113 -49 -207q0 -10 -3.5 -14.5t-7.5 -8.5t-8 -4q-76 -29 -141.5 -38t-110.5 -9h-32q-13 0 -23 2t-19 2q-14 2 -14 12v7z" />
<glyph unicode="n" horiz-adv-x="1054" d="M-123 -20q0 2 2 2q55 80 109.5 194.5t100.5 239.5t83 245.5t57 215.5q18 78 23.5 127t5.5 73q0 16 -1 22.5t-1 10.5t3 9t13 9q33 16 70 27q33 10 77 17.5t95 7.5q27 0 43 -2t16 -19q0 -4 -8 -53t-28 -115q0 -2 2 -6q4 -8 10 -8q8 0 18 10q25 23 63 48.5t82 46t92 33.5 t93 13q18 0 49 -6t59.5 -25.5t49 -59.5t20.5 -107q0 -88 -32.5 -186.5t-72.5 -203t-74 -212t-34 -213.5q0 -53 17 -92q2 0 4 -5q2 -4 2 -12q0 -12 -25.5 -25.5t-65.5 -24.5t-88.5 -19.5t-93.5 -8.5q-27 0 -38 3t-15 16q-2 10 -2 37q0 68 17.5 146.5t45 159.5t58.5 160.5 t58.5 149.5t45 126t17.5 89q0 29 -10.5 45.5t-24.5 24.5t-28.5 9t-20.5 1q-68 0 -129.5 -56.5t-112.5 -142.5t-92 -190.5t-70.5 -200.5t-47 -171t-21.5 -103q-2 -18 -34 -32.5t-75 -24t-89 -13.5t-77 -4q-41 0 -65.5 3t-24.5 13v7z" />
<glyph unicode="o" horiz-adv-x="1048" d="M41 356q0 127 48 263.5t134 249t207 185t268 72.5q90 0 156 -32.5t109 -88t63.5 -130t20.5 -158.5q0 -127 -44.5 -261t-126 -245t-199.5 -182.5t-265 -71.5q-98 0 -168 31.5t-115 86t-66.5 127t-21.5 154.5zM322 336q0 -92 30.5 -152.5t100.5 -60.5q63 0 121.5 64.5 t102.5 159.5t70.5 206t26.5 203t-28.5 150.5t-94.5 58.5q-63 0 -123.5 -63.5t-105.5 -158t-72.5 -204t-27.5 -203.5z" />
<glyph unicode="p" horiz-adv-x="1007" d="M-326 -639q0 6 2 8l2 2q53 90 108.5 207t107 247t100.5 268t92 271.5t78 257t61 224.5q39 145 45 211.5t6 77.5q0 2 3 6q4 10 16 14q33 18 76 31q37 10 90 19t121 9q4 0 8 -2q6 -2 6 -10q0 -12 -18.5 -44t-45.5 -116q0 -31 7 -30q4 0 12 8q33 27 70 47q31 16 71.5 30.5 t81.5 14.5q23 0 60.5 -8t73.5 -41t62.5 -96.5t26.5 -171.5q0 -72 -17 -162t-51 -181.5t-86 -178.5t-123 -155.5t-158 -109.5t-193 -41q-4 -2 -11 0q-12 4 -16 8q-23 23 -37 48.5t-24 50.5q-4 12 -15 12q-8 0 -12 -6l-4 -8q-78 -188 -118 -312.5t-58 -199.5q-23 -88 -25 -138 q0 -16 -12 -24q-6 -4 -12 -4q-106 -31 -175 -40t-108 -9q-31 0 -49.5 3t-18.5 13zM299 242q0 -16 20 -17q74 0 134.5 31t108.5 81t83 112.5t58.5 125t35 120t11.5 96.5q0 66 -20.5 93t-61.5 27q-49 0 -95.5 -48t-86.5 -119.5t-73.5 -156.5t-58 -158t-39 -122t-14.5 -51v-4 q0 -2 -1 -4t-1 -6z" />
<glyph unicode="q" horiz-adv-x="1071" d="M31 229q0 74 19.5 166t57 188.5t93 187.5t128 163t163 115t194.5 43q47 0 79 -9.5t52.5 -21.5t31.5 -21.5t17 -9.5q10 0 15 4l10 21l10 25q6 15 10 36q0 4 4 8q10 10 19 13q20 6 45 12q23 4 49.5 8t61.5 4q20 0 42.5 -2t45.5 -6q4 0 8 -2q8 -4 8 -12q0 -4 -2 -9 q-37 -61 -74 -129q-31 -59 -65.5 -131.5t-63.5 -150.5q-37 -94 -67 -172q-27 -66 -47.5 -126.5t-20.5 -76.5q0 -12 8 -14q20 -4 39 -15q16 -10 30.5 -27.5t22.5 -47.5q2 0 2 -2v-7q0 -6 -5 -13t-21 -11q-43 -16 -86 -62q-37 -39 -82 -108.5t-86 -190.5q-27 -80 -49 -161 q-18 -70 -33.5 -149t-15.5 -144q0 -12 2 -20.5t2 -16.5q0 -14 -17 -25q-70 -35 -133 -46t-108 -11h-27q-12 0 -21 2q-8 2 -16 2q-10 0 -16 10q-2 4 -2 11q0 14 13 59t34.5 108.5t48.5 138t55 150.5q68 178 150 393q2 6 2 15q0 8 -4 8t-17 -8q-6 -4 -10 -10q-53 -59 -101 -93 t-88 -51.5t-69 -21.5t-43 -4q-57 0 -92 22.5t-55.5 58t-27.5 79.5t-7 87zM334 354q0 -41 12 -70.5t47 -31.5q49 6 99 37q41 27 87 82t83 157q25 66 47 127q20 53 39.5 107.5t29.5 89.5q2 8 3 13t1 12q0 20 -10 31.5t-24 15.5q-16 6 -35 6q-47 0 -111.5 -44t-124 -122 t-101.5 -182.5t-42 -227.5z" />
<glyph unicode="r" horiz-adv-x="833" d="M-123 -35q20 27 44 69t47.5 94t47 109.5t43.5 114.5q49 133 99 285q55 178 70.5 272.5t15.5 132.5q0 18 -1 25.5t-1 11.5q0 8 10 17q29 14 65 24q33 10 78 16.5t103 6.5h24q12 0 29 -2q8 0 8 -11q0 -6 -9 -29.5t-19.5 -52t-19.5 -57t-9 -47.5q0 -14 10 -14q4 0 10 4 t17 16q55 61 114 109q51 41 114.5 73.5t127.5 32.5q6 0 18.5 -2t24.5 -14t22.5 -38t10.5 -73q0 -63 -21.5 -124.5t-53.5 -108.5t-68.5 -77t-67.5 -30q-20 0 -27.5 12.5t-7.5 26.5q6 41 6 60q0 33 -14.5 53t-38.5 20q-51 0 -101.5 -50t-91.5 -113.5t-68.5 -123t-35.5 -77.5 q-47 -123 -74.5 -215t-42.5 -154q-16 -72 -18 -123q-2 -14 -8.5 -19t-10.5 -7q-86 -31 -156.5 -39t-117.5 -8h-45q-8 0 -17 2q-14 2 -14 22z" />
<glyph unicode="s" horiz-adv-x="915" d="M-51 176q0 57 25.5 115.5t65.5 104.5t88 75t95 29q35 0 35 -23q0 -10 -4 -22q-2 -6 -6 -11q-35 -63 -45 -105t-10 -69q0 -55 20 -86.5t46 -47t49.5 -18.5t29.5 -3q68 0 108.5 26.5t64.5 61.5t32 68.5t8 50.5q0 57 -25.5 97t-64.5 72.5t-83 61.5t-83 62.5t-64.5 77.5 t-25.5 106q0 31 19.5 88t73.5 112.5t150.5 96.5t249.5 41q39 0 83 -4.5t81 -15.5t60.5 -31.5t23.5 -53.5q0 -43 -9 -89t-27.5 -84t-44 -62.5t-58.5 -24.5q-10 0 -19.5 7t-9.5 30q0 2 -4 30.5t-19.5 61.5t-48 59.5t-88.5 26.5q-20 0 -47.5 -5t-52 -18.5t-42 -36t-17.5 -57.5 q0 -33 26.5 -63.5t65.5 -62t86 -66.5t86 -76t65.5 -89t26.5 -107q0 -104 -42 -188.5t-116.5 -144t-177 -92t-223.5 -32.5q-139 0 -223 55t-84 172z" />
<glyph unicode="t" horiz-adv-x="714" d="M51 -18q0 121 43 273.5t105 324.5q55 154 75.5 235.5t20.5 85.5q0 14 -6 16.5t-10 2.5q-16 2 -31 2h-29h-38q-17 0 -29 -2q-14 -2 -27 -2q-14 0 -16.5 5t-2.5 15q2 18 9 35q4 14 13 28.5t22 22.5q98 59 196 135q84 66 178 156t172 205q10 12 25 20q12 8 30.5 14.5 t47.5 6.5q4 0 12 -3.5t8 -13.5q0 -6 -6 -18q-20 -41 -47 -103q-23 -53 -53.5 -133t-67.5 -190q0 -6 3 -12.5t18 -10.5h10q4 0 12 -1t19 -1q23 0 55.5 2t75.5 10q14 0 14 -14q0 -2 -7 -25.5t-21.5 -53t-36 -54.5t-50.5 -29q-10 2 -22 2h-45q-8 0 -25.5 -1t-37 -4t-35 -9 t-19.5 -16q-53 -139 -96 -277q-18 -57 -37 -121.5t-34 -129t-27.5 -128t-16.5 -118.5v-7q0 -4 -1 -8t-1 -10q0 -29 11 -74t52 -71q4 -4 14.5 -13.5t10.5 -21.5q0 -10 -9 -21.5t-34 -23.5q-25 -14 -59 -25q-29 -10 -68 -16t-86 -6q-23 0 -43 2t-31 8q-29 25 -38 72t-9 88z " />
<glyph unicode="u" horiz-adv-x="1056" d="M20 166q0 49 18.5 122.5t46.5 160t60.5 177.5t60 177t46 158.5t18.5 121.5q4 10 11.5 16.5t29.5 16.5q53 23 105.5 29t95.5 6q47 0 74.5 -3t27.5 -13q0 -6 -2 -9q-29 -39 -60.5 -109.5t-59.5 -142.5q-33 -82 -66 -174q-49 -111 -71.5 -181t-29.5 -113q-6 -38 -7 -60 q0 -8 0.5 -24t0.5 -23q0 -39 10.5 -59.5t23 -30.5t24.5 -12t16 -2q66 0 115 48t80 105q66 117 110.5 241t73.5 228q35 121 55 236q2 10 4.5 14t6.5 8t8 4q61 25 116.5 34t96.5 9q49 0 76 -6q16 -4 28 -6q16 -6 17 -16v-4q0 -2 -2 -3q-57 -82 -108.5 -196.5t-92.5 -236.5 t-73 -237.5t-52 -201.5q-14 -61 -19.5 -106.5t-5.5 -73.5q0 -31 3.5 -44.5t3.5 -17.5q0 -8 -17 -18q-35 -14 -72 -25q-33 -10 -75.5 -17t-94.5 -7q-41 0 -53 3t-14 19q2 23 8 49q4 23 12.5 52.5t18.5 64.5q0 4 -2 8q-2 6 -10 7q-4 0 -21 -13q-20 -18 -50 -41.5t-69 -45 t-87 -36t-103 -14.5q-33 0 -67 12.5t-59.5 38t-42 64.5t-16.5 92z" />
<glyph unicode="v" horiz-adv-x="948" d="M41 -43q0 2 7 40t17.5 102.5t21.5 150.5t21.5 185.5t17.5 207t7 213.5q0 102 -4 152.5t-4 54.5t2 8t12 8q31 12 68 21q33 8 76 14t96 6h39q20 0 41 -4q4 0 8 -2q8 -4 8 -14l-2 -8q-25 -86 -47 -199q-20 -96 -39.5 -228.5t-32.5 -297.5q0 -6 2 -13q4 -12 11 -12q6 0 18 14 q98 127 180 254q35 55 72 115.5t68.5 123t58.5 125t41 118.5q2 2 4 6q4 8 14 12q27 12 64 20q31 8 72.5 13.5t93.5 5.5h26q23 0 48.5 -3t46 -7t20.5 -15q0 -4 -8 -12q-70 -55 -147.5 -146.5t-155.5 -196.5t-153 -217t-140 -210q-49 -76 -87 -138.5t-65 -109.5 q-31 -53 -51 -96q-8 -20 -45 -32.5t-79 -19.5t-80 -9.5t-52 -2.5h-32q-15 0 -25 3q-12 2 -21 2q-8 2 -10 8t-2 10z" />
<glyph unicode="w" horiz-adv-x="1638" d="M41 -39q8 18 17.5 73.5t19.5 133.5t20.5 170t17.5 183t12 175t5 144q0 111 -5 165t-5 56q0 4 3 9t13 9q31 12 68 21q33 8 76 14t96 6h39q20 0 41 -4q4 0 8 -2q8 -4 8 -14l-2 -8q-25 -86 -47 -199q-20 -96 -39.5 -228.5t-32.5 -297.5q0 -6 2 -13q4 -12 11 -12q4 0 16 14 q90 117 172 236q35 51 69.5 106.5t67.5 111.5t58.5 111.5t42.5 104.5q0 4 4 8l7 7q3 3 7 6q31 12 68 20q33 8 76.5 14t97.5 6h38q19 0 39 -4q6 -2 11 -4q8 -4 8 -14l-2 -6q-20 -78 -43 -182q-18 -90 -36.5 -217.5t-31.5 -292.5q0 -6 2 -13q4 -12 11 -12q4 0 16 14 q96 127 180 254q37 55 73 115.5t68.5 123t59.5 125t41 118.5q2 2 4 6q4 8 14 12q31 12 68 20q33 8 75 13.5t95 5.5q61 0 131 -12q4 0 6 -2q4 -4 4 -11q0 -4 -8 -12q-70 -55 -148.5 -146.5t-158.5 -196.5t-156 -217t-141 -210q-49 -76 -87 -138.5t-63 -109.5q-29 -53 -49 -96 q-8 -14 -11 -17.5t-9 -7.5q-59 -27 -124 -33t-114 -6h-32q-15 0 -25 3q-12 2 -23 2q-12 2 -12 22q6 25 18.5 93.5t25.5 162.5t24.5 203.5t17.5 216.5q0 18 -8 18q-4 0 -10 -6q-4 -4 -7 -8q-55 -78 -106 -153.5t-96 -145.5q-51 -76 -88 -138.5t-64 -109.5q-31 -53 -51 -96 q-10 -20 -23 -25q-59 -25 -120.5 -32t-108.5 -7h-30q-13 0 -23 3q-10 2 -21 2q-12 2 -12 22z" />
<glyph unicode="x" horiz-adv-x="1167" d="M-168 -23q0 8 6 15l6 6q49 25 101.5 62.5t104.5 83.5t104.5 96.5t97.5 99.5q109 115 213 246q10 12 10 26q0 49 -14.5 112.5t-36 126t-46 115t-42.5 76.5q0 2 -2 5q-4 4 -4 8q0 8 10 12q31 16 72 29q35 10 84 18t114 8q6 0 15.5 -4t15.5 -20q10 -41 16.5 -64.5 t11.5 -50.5t13 -65.5t23 -112.5q0 -4 4 -8q8 -8 14 -9q8 0 18 11q51 45 99 96q41 43 82 94t63 103q2 4 6 10q8 12 23 14q29 8 63 17q29 6 69 11t83 5q6 0 29.5 -1t49 -4t46 -9.5t20.5 -16.5t-14 -18q-88 -55 -186 -133q-86 -66 -191.5 -165.5t-216.5 -234.5q-2 -6 -6 -12 q-6 -8 -6 -25l6 -33q6 -34 17 -84.5t27.5 -110.5t39 -116.5t50.5 -101.5t60 -66q10 -6 11 -16q0 -10 -11 -14q-76 -43 -135 -54.5t-94 -11.5q-23 0 -37 1t-24 11q-33 33 -54.5 82.5t-37 105.5t-25.5 118.5t-23 119.5q-2 16 -8 17q-4 0 -10 -6l-6 -6q-78 -76 -131.5 -142.5 t-85.5 -118.5q-37 -59 -62 -108q-4 -8 -9 -11t-9 -8q-6 -4 -10 -4q-72 -10 -130.5 -15t-103.5 -5q-66 0 -96.5 3t-30.5 21z" />
<glyph unicode="y" horiz-adv-x="983" d="M-449 -584q0 12 11 19q6 4 10 4q96 45 173 95t135.5 102.5t101.5 102.5t71 97q68 109 92 217q23 170 31 305.5t8 241.5q0 127 -9 214t-19 142q-12 66 -29 103l-2 2q-2 2 -2 8q0 8 10 12q37 16 90 29q45 10 112.5 18.5t156.5 8.5q4 0 7 -1t3 -12q0 -2 -10.5 -33.5 t-22.5 -108.5t-23.5 -209t-13.5 -337l4 -16q4 -16 15 -17q8 0 26 21q74 90 144 197q59 92 127.5 211.5t119.5 254.5q0 4 4 11q8 12 21 14q33 8 72 16q35 6 80 10.5t100 4.5t117 -6q4 0 8 -2q6 -2 6 -9q0 -6 -10 -16q-33 -31 -82 -82q-41 -43 -101.5 -110.5t-142.5 -167.5 q-70 -82 -168 -211t-204.5 -277.5t-209 -304.5t-180.5 -293q-51 -90 -121.5 -145.5t-143.5 -86t-141.5 -40.5t-113.5 -10q-61 0 -84 9t-23 25z" />
<glyph unicode="z" horiz-adv-x="1011" d="M-133 -8q0 6 4 18q2 6 4 8q14 25 43 61t63.5 77t73.5 84l78 86q90 98 195 209q66 76 134 150.5t124 135.5q66 72 127 137q2 2 2 7q0 12 -11.5 15t-21.5 3q-72 0 -133.5 -25.5t-108.5 -58.5q-53 -37 -100 -84q-31 -37 -54.5 -47t-37.5 -10q-37 0 -37 26q0 4 1 5.5t1 3.5v4 q23 72 47.5 123t46.5 86q25 39 47 67q4 4 11 8q4 4 11 7.5t15 5.5q49 12 113 20q53 8 127 13.5t166 5.5q6 0 60 -1.5t115.5 -5.5t112 -13t50.5 -26q0 -10 -9 -18q-49 -39 -102 -92q-47 -45 -106.5 -106.5t-120.5 -139.5q0 -2 -2 -4q-4 -4 -4 -10t6 -6q2 0 14 -5.5 t25.5 -15.5t23.5 -25.5t10 -35.5q0 -14 -18 -17q-8 0 -52 -14t-115 -61.5t-162 -136.5t-191 -240l-4 -8q-4 -8 -4 -17q0 -29 90 -29q31 0 71.5 8.5t91 33t107.5 67.5t121 113q10 8 18 16q8 6 16.5 11t18.5 5q4 0 20.5 -9t16.5 -40q0 -12 -2 -18q-18 -70 -45 -122t-49 -87 q-27 -41 -56 -72q-16 -16 -32 -22q-8 -4 -19 -4q-104 -23 -211.5 -30t-206.5 -7q-82 0 -153.5 4t-124.5 8q-61 6 -113 12q-16 3 -16 19z" />
<glyph unicode="{" horiz-adv-x="751" d="M41 -51q0 4 2 8l4 8l4 8q43 106 85 214t75 200t53.5 159.5t20.5 94.5q0 35 -9.5 60.5t-19.5 41.5q-12 20 -29 33q-10 10 -10 21q0 14 14 20q8 4 15 8q25 10 45 20.5t38.5 26t37 38t36.5 57.5q47 88 87 199.5t69 213.5q35 119 59 240q2 4 7 10q8 14 18 21q33 27 84 49 q43 20 106.5 40.5t149.5 33.5q4 0 10 -2.5t6 -8.5q0 -8 -18 -32q-53 -70 -109 -177q-47 -92 -105 -233t-114 -340q-8 -27 -35 -57q-23 -27 -66.5 -61t-119.5 -72l-8 -5q-10 -4 -10 -12q0 -4 6 -14q23 -29 43 -62q16 -29 29.5 -59.5t13.5 -58.5q0 -16 -6 -29 q-35 -84 -68 -176q-29 -78 -55.5 -173.5t-42.5 -193.5q-12 -68 -12 -125q0 -104 38 -170l4 -6q1 -2 1 -6q0 -12 -15 -18q-8 -4 -14 -5q-84 35 -138.5 80t-88.5 86q-39 47 -64 93q-4 8 -4 12z" />
<glyph unicode="|" horiz-adv-x="538" d="M-178 -156q53 113 109.5 253.5t112.5 292t110.5 308t102.5 302t89 273.5t70.5 223t46.5 152l16 56q0 10 4 29.5t19 27.5q16 12 39 21q20 8 48.5 13t67.5 5q23 0 45.5 -3t49.5 -7q-6 -33 -25.5 -71t-52.5 -106.5t-80 -179t-111 -288.5q-35 -98 -75.5 -213t-81.5 -236 t-80 -241.5t-72 -229t-55.5 -201t-30.5 -155.5q-2 -23 -22.5 -35t-47 -18t-53 -7.5t-43.5 -1.5q-41 0 -60.5 5.5t-29.5 13.5t-10 18z" />
<glyph unicode="}" horiz-adv-x="655" d="M-227 -309q0 8 18 33q53 70 109 176q47 92 106.5 233t112.5 340q8 27 35 57q23 27 66.5 61t119.5 73q6 2 10 4q8 4 8 12q0 6 -6 14q-23 31 -43 64q-16 29 -29.5 58.5t-13.5 57.5q0 16 6 29q35 84 68 176q29 78 55.5 174.5t42.5 192.5q12 68 13 125q0 104 -39 170l-3 6 q-1 2 -1 6q0 12 14 19q8 4 14 4q84 -35 139.5 -80t90.5 -86q39 -47 61 -92q4 -8 4 -13q0 -8 -4 -16q-2 -4 -6 -8q-43 -106 -85 -214t-75 -200t-53.5 -159.5t-20.5 -94.5q0 -35 9.5 -60.5t19.5 -41.5q12 -20 29 -33q10 -10 10 -21q0 -12 -14 -20q-8 -4 -15 -8 q-25 -10 -45 -20.5t-38.5 -26t-37 -38t-36.5 -57.5q-47 -88 -87 -199.5t-69 -213.5q-35 -119 -59 -240q-2 -4 -7 -10q-4 -4 -7 -10.5t-11 -10.5q-33 -27 -84 -49q-43 -20 -106.5 -40.5t-149.5 -32.5q-4 0 -10 2t-6 8z" />
<glyph unicode="&#xa0;" />
<glyph unicode="&#xa1;" horiz-adv-x="567" d="M-293 -520q0 6 2 10t4 6q39 59 83 143.5t88 179.5t86 194.5t77 187.5q27 68 44.5 125t27.5 98q12 49 18 86q0 4 2 8q4 8 15 14q12 8 34 17q18 6 46 11t63 5q53 0 72.5 -6t19.5 -16q0 -4 -2 -8q-66 -137 -123 -295q-49 -135 -98 -312.5t-74 -371.5q0 -4 -3 -12.5 t-13 -12.5q-80 -41 -159 -52t-132 -11h-29q-12 0 -22 2t-21 2q-6 2 -6 8zM260 891q0 47 17.5 93t46 83t65.5 60.5t76 23.5q47 0 75.5 -38t28.5 -97q0 -45 -18.5 -91t-47 -83t-65.5 -59.5t-73 -22.5q-49 0 -77 37t-28 94z" />
<glyph unicode="&#xa2;" horiz-adv-x="913" d="M-12 291q0 102 34.5 232t108.5 252t187.5 214t271.5 119q8 29 16 53q6 23 13.5 45.5t9.5 36.5q0 2 2 4l6 6q20 8 43 17q20 6 47 11t55 5q29 0 29 -8q0 -2 -12.5 -26.5t-27.5 -54.5t-27.5 -56.5t-12.5 -32.5q18 -2 45 -11.5t51.5 -24.5t42 -39.5t17.5 -59.5 q0 -74 -25.5 -138.5t-66.5 -112.5t-91.5 -76t-97.5 -28q-16 0 -26.5 6.5t-10.5 24.5q0 6 9.5 23.5t21.5 38.5q16 25 27 51q10 23 17 49.5t7 52.5q0 35 -12 54.5t-57 19.5q-49 0 -107.5 -47t-109 -128t-83 -187.5t-32.5 -225.5q2 -27 8 -49q4 -20 15.5 -39.5t27.5 -30.5 q14 35 27 72q10 31 21 68t18 71q0 2 2 7q4 6 6 6q14 4 35 8q35 6 90 6q6 0 6 -4q-2 -6 -14 -37l-29 -72q-16 -41 -30.5 -85t-20.5 -74q-2 -6 18 -7q16 0 42 5.5t60.5 27t80.5 66.5t102 125q2 4 6 8q8 8 18 8q6 0 9 -2q12 -2 20 -10q8 -6 13 -14.5t5 -24.5q0 -31 -25.5 -92.5 t-79.5 -128t-137 -122.5t-198 -75q-4 -16 -10 -35q-10 -35 -10 -63q0 -16 -2 -18.5t-11 -6.5q-33 -16 -63.5 -20t-52.5 -4q-20 0 -29 2q-8 2 -12 2q-10 2 -11 8q0 2 1 2t1 2v2q12 18 22.5 42t18.5 44q8 23 17 47q-63 12 -105.5 45t-67 77t-34.5 97.5t-10 106.5z" />
<glyph unicode="&#xa3;" horiz-adv-x="1071" d="M-113 -20q0 8 7 14l6 6q35 41 69.5 106.5t67.5 144.5t62.5 164t54 162.5t43 141t28.5 98.5q-43 -2 -79.5 -4t-65.5 -6q-33 -4 -60 -6q-6 0 -6 6q12 33 28.5 54.5t31.5 37.5q16 18 32 29q2 0 5 2q2 2 8 2q2 0 38 -3t99 -7q43 141 67.5 241.5t39 169t18.5 108.5t4 60v25 q0 4 -2 6q0 4 2 11t12 11q33 14 78 25q39 10 97.5 16.5t136.5 6.5h44q22 0 46 -3q4 2 8 0q6 -2 6 -8q0 -4 -2 -6q-31 -45 -70 -133q-35 -76 -84 -203t-114 -327q94 2 184 6t162 12q6 0 6 -4q0 -10 -11.5 -29.5t-27.5 -38.5q-18 -23 -41 -45q-4 -4 -6 -4t-6 -2t-8 -2 q-6 0 -31 1t-63.5 3t-88 3t-102.5 1q-16 -51 -42 -132t-51.5 -172t-46 -184t-30.5 -167v-6q0 -18 10 -21.5t37 -3.5q123 0 218 51.5t163 114.5q80 74 137 166q35 47 61.5 57.5t34.5 10.5q20 0 27 -11q4 -6 6 -10q-23 -104 -54.5 -193.5t-61.5 -154.5q-37 -78 -74 -141 q-6 -10 -19 -15l-12 -4q-154 -33 -304.5 -44t-277.5 -11q-74 0 -135 2t-106 6q-53 4 -92 8q-11 5 -11 11z" />
<glyph unicode="&#xa4;" horiz-adv-x="1181" d="M-102 -4q0 8 2 10l4 4q43 49 87 129t85 174.5t79 192.5t66 182q-109 -4 -178.5 -10t-71.5 -8q-6 0 -6 6q12 33 28.5 54.5t31.5 37.5q16 18 32 29q2 0 4 2t9 2q4 0 52 -5t134 -5q23 66 32 93t13 44q-109 -4 -179.5 -10.5t-72.5 -8.5q-6 0 -6 6q12 33 28.5 54.5t30.5 38.5 q16 18 33 28q2 0 4 2t8 2q4 0 51.5 -4t131.5 -6q31 117 49 206t27.5 153.5t12.5 104.5t3 60q0 14 6 17q4 2 6 2q92 6 191 14q86 6 189.5 10.5t207.5 4.5q94 0 177 -5.5t142 -17.5q10 -4 11 -14q0 -2 -14.5 -57.5t-44 -128t-74.5 -141.5t-107 -99q-6 -4 -18.5 -7.5 t-28.5 -3.5q-10 0 -19.5 4.5t-9.5 14.5q0 4 4 16q4 14 9 35q4 16 6 39t2 45q0 76 -34 123t-124 47q-31 0 -55 -8q-29 -10 -66 -60q-31 -41 -69.5 -122.5t-85.5 -229.5q80 2 156.5 5t138.5 12q6 0 6 -5q0 -10 -11.5 -29.5t-27.5 -37.5q-18 -23 -41 -45q-4 -4 -6 -4t-7 -2 q-4 -2 -8 -2q-10 0 -76.5 2t-158.5 4q-10 -27 -20.5 -61.5t-24.5 -75.5q80 2 157.5 5t139.5 11q6 0 6 -4q0 -10 -11.5 -29.5t-27.5 -38.5q-18 -23 -41 -45q-4 -4 -6 -4t-6 -2t-9 -2q-10 0 -76.5 2t-158.5 4q-25 -74 -48.5 -152.5t-42 -149.5t-29.5 -129t-11 -91 q0 -6 8 -21.5t49 -15.5q25 0 84.5 9.5t140 46t176 112.5t189.5 209q10 14 25 27q12 10 28.5 18t36.5 8q6 0 22.5 -3t16.5 -23q0 -2 -1 -4.5t-1 -6.5q-4 -18 -17.5 -57t-31 -87t-37.5 -101.5t-40.5 -100.5t-39 -84t-33.5 -53q-4 -8 -14 -12l-8 -4q-137 -39 -285.5 -52.5 t-286.5 -13.5q-96 0 -179 4t-144 10q-72 8 -133 15q-6 2 -6 8z" />
<glyph unicode="&#xa5;" horiz-adv-x="882" d="M-55 524q12 33 28.5 54.5t30.5 37.5q16 18 33 29q2 0 4 2t8 2q4 0 60.5 -5t154.5 -5v139q-51 -2 -95 -5t-77 -7q-37 -4 -69 -6q-6 0 -7 6q12 33 28.5 54.5t31.5 37.5q16 18 33 29q2 0 4 2t8 2q2 0 37 -3t96 -7q-18 133 -51 259t-58 208q-14 47 -30.5 81.5t-28.5 57.5 q-14 27 -29 45l-4 4q-6 6 -6 12t8 15q39 16 90 28q43 10 105.5 18.5t142.5 8.5h45q23 0 47 -4q4 0 8.5 -2t4.5 -8q0 -4 -8.5 -52.5t-8.5 -146.5q0 -88 8.5 -216t55.5 -294v-4q0 -2 4 -10h18l6 6q78 80 160 182q70 88 152 209t155 272q2 6 7 13q4 4 8 10t10 8q37 8 82 16 q39 6 89 11.5t105 5.5h30q24 0 51.5 -2t49 -7.5t21.5 -13.5q0 -4 -6 -10q-106 -84 -221 -192q-98 -92 -219 -219.5t-240 -282.5q55 2 103 5t83 7q6 0 6 -4q0 -10 -11 -29.5t-27 -38.5q-18 -23 -41 -45q-4 -4 -6.5 -4t-6.5 -2t-8 -2q-6 0 -55 2t-115 2q-25 -35 -47.5 -68.5 t-44.5 -68.5q84 4 158.5 7t126.5 9q6 0 6 -4q0 -10 -11.5 -29.5t-27.5 -37.5q-18 -23 -41 -45q-4 -4 -6 -4t-6 -2t-9 -3q-8 0 -80.5 2.5t-166.5 4.5q-14 -31 -40 -94.5t-51.5 -142.5t-45 -165t-19.5 -160q0 -4 -3 -16t-18 -16q-100 -35 -179 -45.5t-130 -10.5h-36 q-15 0 -25 2q-12 2 -21 5q-12 2 -12 12q0 2 1 3t1 3v2q109 186 167 346t81 277q-125 -4 -211 -11.5t-88 -9.5q-6 0 -6 6z" />
<glyph unicode="&#xa7;" horiz-adv-x="1132" d="M-39 131q6 41 24.5 71.5t39.5 51.5q23 23 49 41q10 6 14 6q8 0 10 -2t2 -4q20 -43 53 -68.5t69 -38t66.5 -15.5t47.5 -3q80 0 128 22.5t73.5 52t33 59.5t7.5 44q0 49 -37 79t-92.5 52.5t-119 42t-118.5 48t-92 71.5t-37 111q0 55 30.5 102t78 86t102.5 68.5t103 49t81 30 t37 8.5q10 2 10 8q0 4 -4 8q-2 2 -6 4q-57 14 -91 36t-51.5 45.5t-21.5 46t-4 34.5q0 74 54.5 131t137.5 98t182 62.5t189 21.5q59 0 109.5 -6t85.5 -14q41 -8 74 -23q4 0 8 -4q6 -6 6 -18q0 -2 -3 -17.5t-13.5 -38t-30 -51t-53.5 -59.5h-2q-2 0 -2.5 -1t-4.5 -1 q-10 0 -22 14q-14 20 -41 37q-23 14 -58.5 24.5t-89.5 10.5q-10 0 -47 -4t-76.5 -16.5t-71.5 -36t-32 -62.5q0 -35 36 -61.5t90 -50t116.5 -47t117 -53.5t90 -69.5t35.5 -95.5q0 -20 -9 -65t-47 -97.5t-115.5 -106.5t-215.5 -97q-2 0 -6 -2q-6 -2 -6 -9q0 -4 4 -6 q27 -20 49 -47q18 -23 34 -54.5t16 -72.5q0 -29 -23 -90t-82 -123.5t-163.5 -110t-268.5 -47.5q-70 0 -128 11.5t-99 25.5q-49 16 -88 35q-14 8 -17.5 19.5t-3.5 19.5zM367 811q0 -2 3 -15.5t19.5 -32t55 -40t108.5 -43.5q53 0 111.5 20.5t107.5 50t81 64.5t32 66 q0 16 -18.5 38.5t-46 43t-62.5 35t-68 14.5h-16q-4 0 -6 -2q-82 -20 -150 -52q-57 -27 -104 -63.5t-47 -83.5z" />
<glyph unicode="&#xa8;" horiz-adv-x="737" d="M0 1368q0 33 12.5 64.5t34 57.5t48 41t55.5 15q41 0 64.5 -28.5t23.5 -73.5q0 -33 -12.5 -65.5t-34 -58.5t-48 -41t-55.5 -15q-41 0 -64.5 28.5t-23.5 75.5zM498 1368q0 33 12 64.5t33.5 57.5t48 41t55.5 15q41 0 64.5 -28.5t23.5 -73.5q0 -33 -12 -65.5t-33.5 -58.5 t-48.5 -41t-55 -15q-41 0 -64.5 28.5t-23.5 75.5z" />
<glyph unicode="&#xa9;" horiz-adv-x="1685" d="M109 702q0 152 57 285t155.5 232.5t231.5 157t285 57.5t284.5 -57.5t232 -157t157 -232.5t57.5 -285t-57.5 -284.5t-157 -231t-232.5 -156t-284 -57.5q-152 0 -285 57.5t-231.5 156t-155.5 231t-57 284.5zM242 702q0 -119 47 -223t128 -181t189.5 -122t231.5 -45 q125 0 234.5 45t190 122t128 181.5t47.5 222.5q0 121 -47.5 225.5t-128 182.5t-190 123t-234.5 45q-123 0 -231.5 -45t-189.5 -123t-128 -182.5t-47 -225.5zM492 502q0 47 12 113.5t38.5 138t68.5 143.5t99.5 129t134.5 92t171 35q20 0 44.5 -2t45 -10t35 -20.5t14.5 -35.5 q0 -27 -18.5 -75.5t-47 -96t-62.5 -82t-64 -34.5q-25 0 -25 20q0 4 1 9t5 16q14 25 25 53q10 25 17 54.5t7 62.5q0 23 -14 29t-29 6q-39 0 -86 -47.5t-88 -121t-67.5 -162.5t-26.5 -171q0 -53 17.5 -91t74.5 -38q18 0 45 8t57.5 32.5t61.5 68.5t59 116q0 2 2 4t15 2 q16 0 27.5 -13t11.5 -30q0 -14 -10.5 -46t-30 -72t-50 -80.5t-70.5 -75.5t-92 -57.5t-116 -22.5q-55 0 -93 20.5t-59.5 56t-30.5 81t-9 94.5z" />
<glyph unicode="&#xaa;" horiz-adv-x="976" d="M31 432q12 33 28.5 54.5t30.5 37.5q16 18 33 29q2 0 4 2t8 2q4 0 61.5 -5t155.5 -5q66 0 138.5 1t146.5 2t143.5 5t124.5 10q6 0 6 -4q0 -10 -11 -29.5t-28 -37.5q-18 -23 -41 -45q-4 -4 -6 -4.5t-6 -2.5t-8 -2q-6 0 -42 2t-89 3t-117.5 2.5t-130.5 1.5 q-80 0 -150.5 -4.5t-125 -7.5t-86.5 -7l-33 -4q-6 0 -6 6zM176 852q0 47 13.5 113.5t41 139.5t68.5 145.5t96.5 129t125 92t153.5 35.5q27 0 59.5 -8t59.5 -31q4 -2 7 -4t7 -2q2 0 10 4q14 12 37 21q18 8 47 13t64 5q6 0 30.5 -2t24.5 -12q0 -4 -2 -6q-18 -31 -39 -70 q-16 -35 -37.5 -81t-44.5 -105q-23 -61 -44.5 -128t-38.5 -132.5t-28.5 -125t-11.5 -104.5q0 -29 3 -36t3 -13q0 -8 -8 -10q-49 -29 -102.5 -37t-83.5 -8q-6 0 -11.5 1t-9.5 1h-8q-10 2 -14 10q-2 4 -2 8q2 25 3 49.5t5 45.5q4 23 8 43q2 4 2 12v4h-2q-6 0 -12 -6l-6 -6 q-39 -45 -76 -71t-69 -39t-55.5 -16t-33.5 -3q-39 0 -64.5 16t-40 43t-19.5 59.5t-5 65.5zM412 956q0 -29 9 -50t34 -23q6 0 27.5 4t49 23.5t60.5 61.5t59 115q18 49 37 95q16 39 30.5 80t22.5 67q2 6 2 17q0 16 -8 24t-18 12q-12 6 -27 7q-37 0 -85 -36t-91 -96.5 t-72.5 -138.5t-29.5 -162z" />
<glyph unicode="&#xab;" horiz-adv-x="1714" d="M31 453q0 2 1 3t1 3v2q12 49 31.5 84t37.5 57q23 25 43 41q63 29 159.5 86t202 128t207 146.5t175.5 139.5q2 4 10 10q14 10 33 10q4 0 27.5 -3t57.5 -13t70.5 -29.5t67.5 -54.5q2 0 4 -2t2 -8q0 -8 -18 -17q-109 -49 -234 -114q-106 -55 -240 -135t-278 -185 q-27 -18 -42 -31.5t-42 -35.5l-4 -5q-6 -6 -6 -10q0 -8 10 -20.5t43 -40.5q33 -29 84 -68t115.5 -84t140.5 -91t156 -89q2 0 4 -2t2 -6q0 -8 -4 -15q-18 -33 -46 -59.5t-57 -44.5q-33 -23 -67 -39q-2 -2 -6 -2q-10 0 -17 10l-8 13q-104 117 -207.5 200.5t-189.5 139.5 q-98 66 -193 108q-16 4 -21 11.5t-5 11.5zM635 475q0 25 16.5 52.5t37 51t42 40t29.5 20.5q20 10 47 27q23 14 55.5 33.5t71.5 41.5q59 37 133 84t149.5 99.5t150.5 107.5t136 107q6 6 15 12q16 12 24 12q4 0 28.5 -3t58.5 -14t72 -31.5t68 -55.5l5 -4q2 -2 2 -8 q0 -8 -19 -17q-123 -51 -260 -123q-117 -61 -266.5 -153t-304.5 -215q-2 -2 -6 -4q-6 -2 -7 -13q0 -6 9 -12q2 -4 8 -12q4 -6 14 -15.5t25 -21.5q33 -27 83 -68t113.5 -87t138 -94t154.5 -91q2 2 4 0q4 -4 4 -8q0 -6 -4 -13q-18 -33 -48 -59.5t-57.5 -46t-48 -30.5 t-22.5 -11q-4 0 -16 12q-6 6 -10 12q-104 117 -210 202t-192 145q-100 68 -194 116q-18 4 -23.5 14.5t-5.5 20.5z" />
<glyph unicode="&#xad;" horiz-adv-x="1079" d="M100 483q0 4 11.5 31t30 57.5t44 55t54.5 24.5q8 0 14 -2q12 -4 45 -8t73 -6t82 -3t70 -1q74 0 138.5 1t124 4t120 7t125.5 10q6 0 13.5 -2t7.5 -10q0 -2 -6.5 -18.5t-18.5 -39t-30.5 -50t-43.5 -52.5q-4 0 -10 -2t-31 -2q-86 4 -161 4h-148q-156 0 -247 -4t-138 -9 t-61.5 -9t-18.5 -4q-27 0 -35 14q-4 8 -4 14z" />
<glyph unicode="&#xae;" horiz-adv-x="1685" d="M109 702q0 152 57 285t155.5 232.5t231.5 157t285 57.5t284.5 -57.5t232 -157t157 -232.5t57.5 -285t-57.5 -284.5t-157 -231t-232.5 -156t-284 -57.5q-152 0 -285 57.5t-231.5 156t-155.5 231t-57 284.5zM242 702q0 -123 47 -227t131 -182q31 51 58.5 112.5t51 127 t45 132t39.5 128.5q45 152 57.5 226.5t12.5 92.5v12l2 2q2 2 2 3t4 4l23 3q23 3 57.5 6t75.5 6t78 3q25 0 69.5 -3t88.5 -19.5t77 -51.5t33 -100q0 -76 -32 -128t-73.5 -84t-84.5 -47.5t-68 -21.5q-6 0 -6 -10v-8q14 -111 35.5 -182.5t44.5 -114.5q25 -51 53 -78q6 -6 6 -8 l-2 -4q-2 -2 -4 -2q-61 -35 -104.5 -41t-65.5 -6h-12q-6 0 -11 4q-25 47 -42 118.5t-27 137.5q-12 78 -23 162h-51q-29 -80 -46 -149t-28 -120q-10 -59 -14 -110q0 -10 -4 -15q-2 -2 -4 -2q-90 -23 -154 -22q76 -53 167 -84t194 -31q125 0 234.5 45t190 122t128 181.5 t47.5 222.5q0 121 -47.5 225.5t-128 182.5t-190 123t-234.5 45q-123 0 -231.5 -45t-189.5 -123t-128 -182.5t-47 -225.5zM764 770q72 0 120 21.5t76.5 52t41 66.5t12.5 67q0 27 -8.5 43t-21.5 25.5t-28.5 12.5t-29.5 3q-18 0 -31 -4q-6 -2 -10 -4q-4 0 -8 -4q-2 -2 -5 -7 q-16 -25 -34.5 -66.5t-35 -84.5t-27.5 -77t-11 -44z" />
<glyph unicode="&#xaf;" horiz-adv-x="993" d="M381 1192q12 33 28.5 57.5t30.5 42.5q16 23 33 39q2 0 4 2t8 2q4 0 61.5 -5t155.5 -5q129 0 244 3t228 15q6 0 6 -4q0 -10 -11.5 -31.5t-27.5 -43.5q-18 -25 -41 -56q-4 -4 -6 -4t-7 -2q-4 -2 -8 -2q-6 0 -42 2t-89 3t-117.5 2t-130.5 1q-160 -2 -235.5 -11t-77.5 -11 q-6 0 -6 6z" />
<glyph unicode="&#xb0;" horiz-adv-x="573" d="M199 1206q0 55 25.5 107.5t65.5 91.5t90 62.5t101 23.5q76 0 121 -46t45 -120q0 -55 -23.5 -106.5t-62.5 -91.5t-90 -63.5t-106 -23.5q-76 0 -121 46t-45 120zM324 1237q0 -35 19 -57.5t54 -22.5q47 0 86 42t39 93q0 35 -19.5 57.5t-53.5 22.5q-25 0 -47.5 -11t-40 -29.5 t-27.5 -43t-10 -51.5z" />
<glyph unicode="&#xb2;" horiz-adv-x="1030" d="M31 219q0 63 17.5 152.5t54 186.5t91 192.5t128 172t166 124t204.5 47.5q35 0 80 -10.5t80 -41.5q8 -8 18 -8q4 0 13 4q23 16 51 27q25 10 61.5 17.5t83.5 7.5q4 0 17 -1l24 -3q12 -1 22.5 -5t10.5 -10q0 -4 -2 -8q-25 -39 -51 -92q-23 -45 -51.5 -107.5t-57.5 -140.5 q-31 -82 -60.5 -172t-53 -177t-38 -166t-14.5 -138q0 -37 4.5 -47.5t4.5 -18.5q0 -10 -11 -14q-66 -39 -136.5 -49.5t-111.5 -10.5h-28q-6 0 -10 2q-14 0 -19 15q-2 6 -2 12q2 33 5 64.5t7 58.5q6 31 11 59q2 6 2 17q0 6 -4 6q-2 0 -15 -8q-6 -4 -10 -11q-51 -59 -100.5 -93 t-91 -51t-72.5 -21.5t-45 -4.5q-53 0 -87 21.5t-52.5 57.5t-25.5 79t-7 86zM344 360q0 -41 11.5 -68.5t45.5 -29.5q8 0 37 5t67 31t80 81t79 153q25 66 47 127q20 53 40.5 107.5t30.5 89.5q4 16 4 23q0 20 -10 30.5t-24 16.5q-16 8 -37 8q-49 0 -113.5 -48t-122 -128 t-96.5 -183.5t-39 -214.5z" />
<glyph unicode="&#xb3;" horiz-adv-x="743" d="M-29 -57q0 2 2 2q43 70 86 168t82 204.5t73 213t58.5 191.5t39 139t14.5 57q0 14 -17 14h-37q-25 0 -44 -1t-35 -3q-18 -2 -33 -4q-4 0 -8 2q-10 6 -11 14q0 2 2 13.5t6.5 25.5t13.5 28.5t21 22.5q98 59 197 135q84 66 178 156t172 205q10 12 25 20q12 8 31.5 14.5 t46.5 6.5q20 0 20 -15q0 -10 -6 -20q-29 -55 -57 -123q-25 -57 -54.5 -134t-56.5 -169q0 -6 3 -12.5t17 -10.5q6 0 15 -2q8 -2 37 -2q20 0 45.5 3t60.5 8l16 2q10 0 11 -13q0 -2 -6.5 -23.5t-19.5 -49t-35.5 -54t-53.5 -37.5h-6q-4 0 -8 -1t-11 -1q-55 0 -95 -3t-52 -19 q-68 -172 -121 -338q-23 -70 -45 -145.5t-39.5 -149.5t-28 -142.5t-10.5 -123.5q0 -14 -12 -19q-86 -35 -165 -45t-132 -10h-45q-8 0 -16 2q-12 2 -13 14v9z" />
<glyph unicode="&#xb4;" horiz-adv-x="380" d="M0 1286q0 4 1 6t1 4v2q12 29 39 66q23 31 61.5 74t104.5 96q2 2 8 4q12 4 23 4q18 0 42.5 -9t46 -23.5t37 -33t15.5 -34.5q0 -6 -4 -15.5t-25 -13.5q-49 -14 -102 -37q-45 -18 -100.5 -47t-108.5 -65q-2 0 -6 -2q-8 -4 -15 -5q-6 0 -12 7.5t-6 21.5z" />
<glyph unicode="&#xb5;" horiz-adv-x="804" d="M0 -39q0 8 2 10t2 4q43 72 89 170.5t91 212t88 234.5t80 235q88 270 172 568q0 12 -8 16q-4 2 -8 2q-10 2 -20 2h-19q-78 0 -138.5 -23.5t-103.5 -52.5q-51 -35 -88 -75q-10 -10 -20 -15q-6 -2 -10 -2q-23 0 -27 11.5t-4 17.5q12 70 34.5 124t45.5 95q27 47 55 82 q8 8 33 14l30 6q35 6 113 7q76 0 187.5 -11.5t228.5 -11.5q51 0 113.5 3t126 12.5t124 26.5t105.5 46q0 2 2 2h8q16 0 16 -22q0 -4 -8 -36t-24.5 -73t-44 -82t-66.5 -63q-6 -2 -14 -4t-20.5 -4.5t-30.5 -2.5q-31 0 -54 4l-45 6q-23 3 -51.5 6t-71.5 3q-4 0 -10 -2 q-4 -2 -8 -3t-8 -5q-25 -61 -56 -140q-27 -66 -59.5 -156.5t-69.5 -201.5q-37 -113 -72.5 -228.5t-64 -226t-48 -214t-25.5 -189.5q0 -12 -3.5 -19.5t-7.5 -11.5q-4 -6 -10 -6q-76 -35 -157 -45t-144 -10h-47q-20 0 -37 2q-18 2 -33 4q-10 0 -10 10z" />
<glyph unicode="&#xb6;" horiz-adv-x="1105" d="M82 1028q0 123 44 214t117.5 154.5t168 103.5t196 62.5t201.5 31t184 8.5q61 0 112.5 -2.5t88.5 -6.5q43 -4 78 -10q10 -4 10 -10q0 -4 -2 -8q-76 -98 -150 -234q-63 -117 -133.5 -284.5t-128.5 -391.5q-51 -141 -92 -280q-18 -59 -35.5 -124t-32 -128.5t-23.5 -124.5 t-13 -115q0 -10 -6 -12l-9 -4q-39 -16 -74.5 -20.5t-64.5 -4.5q-35 0 -55.5 3t-20.5 16q0 2 1 3t1 3v2q37 145 80 288.5t88 278.5t90.5 260t88.5 232q98 252 200 473q4 12 4 14q0 8 -4 9t-8 1q-37 0 -63.5 -15t-45.5 -36q-23 -23 -36 -53q-55 -113 -105.5 -232.5 t-96.5 -239.5t-86 -234.5t-75 -219.5q-80 -244 -143 -477q0 -6 -10 -10q-4 -2 -11 -4q-45 -10 -83 -14.5t-66 -4.5q-33 0 -43 2q-8 2 -17 2q-12 0 -12 9q0 4 2 6l2 2q41 63 81 148t75 173t65.5 173t52 153t34 110t12.5 44q0 12 -6 14q-4 2 -9 2q-90 8 -150.5 36.5t-97 70.5 t-53 93.5t-16.5 104.5z" />
<glyph unicode="&#xb7;" horiz-adv-x="559" d="M164 487q0 39 14.5 77t39 69t56 49t64.5 18q47 0 75.5 -35.5t28.5 -89.5q0 -45 -16 -83.5t-42 -66.5t-57.5 -43t-60.5 -15q-47 0 -74.5 33.5t-27.5 86.5z" />
<glyph unicode="&#xb8;" horiz-adv-x="466" d="M84 -408q0 16 10 37l10 21q6 6 11 6q4 0 6 -2l2 -2q10 -16 27.5 -21.5t25.5 -5.5q27 0 42 10.5t22.5 23.5t9.5 24.5t2 15.5q0 25 -11.5 38t-28.5 19t-35.5 8.5t-33.5 2.5q-10 0 -10 10q0 18 13.5 41.5t31 47t30.5 41t13 21.5h107q-12 -16 -21 -32q-8 -14 -15 -26.5 t-7 -23.5q0 -8 6 -10q27 -8 49 -26q18 -16 32.5 -40t14.5 -59q0 -49 -21.5 -83t-52 -53t-63.5 -28.5t-55 -9.5q-25 0 -43.5 5t-32.5 12q-16 8 -27 18q-8 6 -8 20z" />
<glyph unicode="&#xb9;" horiz-adv-x="763" d="M-25 -16q0 2 2 2q53 84 94.5 177t80.5 179q66 150 112.5 275.5t77.5 220.5q37 111 59 198v8q0 10 -6 12.5t-10 2.5q-66 8 -107.5 20.5t-64.5 26.5q-27 16 -39 35q-6 10 -6 16q0 12 20 21q104 37 199 90q80 47 163 118.5t128 169.5q0 2 2 7q4 8 16 12q23 8 52 16 q25 6 58.5 11.5t74.5 5.5q51 0 51 -11q0 -6 -2 -8q-61 -113 -121 -239q-51 -109 -107.5 -246t-101.5 -279q-37 -113 -74 -227.5t-68.5 -221t-53 -197.5t-25.5 -156q0 -10 -10 -21q-4 -4 -9 -4q-80 -23 -151.5 -31t-124.5 -8h-41q-18 0 -31 2q-14 2 -26 4q-10 0 -11 10v9z " />
<glyph unicode="&#xba;" horiz-adv-x="905" d="M31 438q12 33 28.5 54.5t30.5 37.5q16 18 33 29q2 0 4 2t8 2q4 0 61.5 -5t155.5 -5q66 0 138.5 1t146.5 2t143.5 5t124.5 10q6 0 6 -4q0 -10 -11 -29.5t-28 -37.5q-18 -23 -41 -45q-4 -4 -6 -4t-6 -2t-8 -3q-6 0 -42 2.5t-89 3.5t-117.5 2t-130.5 1q-80 0 -150.5 -4.5 t-125 -7.5t-86.5 -7l-33 -4q-6 0 -6 6zM193 940q0 96 35.5 198.5t100 186.5t154.5 139.5t201 55.5q68 0 118 -25t81.5 -67t47 -98t15.5 -120q0 -94 -32.5 -195.5t-95 -184t-150.5 -136t-199 -53.5q-74 0 -126 23.5t-86 64.5t-49 95.5t-15 115.5zM401 926q0 -70 22.5 -115 t76.5 -45q47 0 91 48t77.5 120t53 154.5t19.5 152.5q0 68 -21.5 113t-70.5 45t-93 -47t-79 -119t-55.5 -153.5t-20.5 -153.5z" />
<glyph unicode="&#xbb;" horiz-adv-x="1705" d="M-117 76q0 8 19 16q123 51 260 123q117 61 266.5 153.5t304.5 215.5q2 2 6 4q6 4 6 12q0 6 -8 12q-2 4 -8 13q-10 14 -39 37q-33 29 -83 68.5t-113.5 85.5t-138 94t-154.5 91q-2 0 -4 3q-4 4 -4 6q0 6 4 12q18 33 47.5 59.5t57.5 46t48.5 30.5t22.5 11q4 0 16 -12 q6 -6 10 -12q104 -115 210 -201t192 -145q100 -68 194 -117q18 -4 23.5 -14.5t5.5 -20.5q0 -25 -16.5 -52.5t-37 -51t-41 -40t-30.5 -20.5q-20 -10 -47 -26q-23 -14 -54.5 -32.5t-72.5 -43.5q-59 -37 -133 -84t-149.5 -99.5t-150.5 -106.5t-136 -107q-6 -6 -15 -13 q-16 -12 -24 -12q-4 0 -29 3t-58.5 14.5t-71.5 32t-69 54.5l-4 5q-2 2 -2 8zM498 70q0 8 18 16q109 49 234 115q106 55 240 135t278 184q27 18 42 31.5t42 36.5q4 2 6 4q4 4 4 10q0 8 -10.5 20.5t-42.5 41.5q-33 29 -84 67.5t-116 83.5t-140.5 91t-155.5 89l-2 2q-4 4 -4 7 q0 8 4 14q18 33 47 59.5t57 44.5q33 23 66 39q2 2 6 2q10 0 17 -10l8 -12q104 -117 207.5 -201t189.5 -139q98 -66 193 -109q16 -4 21 -11t5 -11v-6q0 -2 -2 -2q-12 -49 -30.5 -83t-36.5 -57q-23 -25 -46 -43q-63 -27 -159.5 -85t-201.5 -128.5t-206.5 -146.5t-175.5 -139 q-2 -4 -10 -11q-14 -10 -33 -10q-4 0 -27.5 3t-57.5 13.5t-70.5 30t-67.5 53.5l-2 2q-4 5 -4 9z" />
<glyph unicode="&#xbc;" horiz-adv-x="2926" d="M1694 514q0 10 4 18q2 4 2 9q25 37 62 86q31 41 77 98t107 125q68 76 155 164t190 181t221 190.5t247 189.5q16 14 39 22q20 8 49 14.5t70 6.5h20q14 0 29.5 -2t28 -6t12.5 -13q0 -4 -6 -14q-25 -43 -54 -102q-25 -51 -57.5 -124t-71.5 -167q-43 -106 -88 -229t-86 -248 v-4q0 -2 -1 -3t-1 -4q0 -12 17 -12q53 2 100 7t88 20q6 0 14.5 -3t8.5 -20q0 -23 -10.5 -47t-25 -46.5t-28.5 -39t-20 -22.5q-39 -31 -90.5 -40.5t-79.5 -9.5h-17q-12 0 -22 -10q-6 -6 -8 -10q-39 -137 -62.5 -250t-23.5 -184q0 -4 -1.5 -11.5t-9.5 -11.5 q-72 -37 -147.5 -49t-134.5 -12q-25 0 -44.5 1t-35.5 3q-18 2 -31 4q-12 2 -12 12q0 4 4 9q2 2 2 4q43 86 81 169t65.5 148.5t44 107.5t16.5 44q0 12 -23 12q-74 -4 -134 -4h-109q-78 0 -129.5 1t-83.5 5q-37 4 -60 6q-29 2 -38 15.5t-9 25.5zM2087 702q0 -6 2 -12 q4 -14 17 -16h24q12 0 27.5 -1t36.5 -1q31 0 69.5 1t79.5 5h2q4 0 13.5 3t15.5 17q51 125 85 215.5t54 149.5q23 68 37 115q2 4 2 12t-8 8q-6 0 -16 -6q-6 -4 -11 -6q-102 -90 -190 -178q-37 -37 -75 -78t-70.5 -81t-57.5 -78t-37 -69zM541 -53q0 2 4 10q92 98 196.5 220 t212 254t214 267.5t204.5 262.5q229 297 459 612q6 14 15.5 28.5t24.5 24.5t43 17.5t71 7.5q49 0 81.5 -3t32.5 -26q0 -8 -4 -18.5t-16 -24.5q-49 -51 -111 -119q-53 -59 -125.5 -142t-163.5 -194q-72 -86 -151.5 -187t-162.5 -206.5t-164 -212t-151.5 -205t-129 -183.5 t-95.5 -148q-14 -23 -52 -37.5t-79 -22.5q-47 -8 -102 -12q-23 2 -37 13.5t-14 23.5zM-25 -16q0 2 2 2q53 84 94.5 177t80.5 179q66 150 112.5 275.5t77.5 220.5q37 111 59 198v8q0 10 -6 12.5t-10 2.5q-66 8 -107.5 20.5t-64.5 26.5q-27 16 -39 35q-6 10 -6 16q0 12 20 21 q104 37 199 90q80 47 163 118.5t128 169.5q0 2 2 7q4 8 16 12q23 8 52 16q25 6 58.5 11.5t74.5 5.5q51 0 51 -11q0 -6 -2 -8q-61 -113 -121 -239q-51 -109 -107.5 -246t-101.5 -279q-37 -113 -74 -227.5t-68.5 -221t-53 -197.5t-25.5 -156q0 -10 -10 -21q-4 -4 -9 -4 q-80 -23 -151.5 -31t-124.5 -8h-41q-18 0 -31 2q-14 2 -26 4q-10 0 -11 10v9z" />
<glyph unicode="&#xbd;" horiz-adv-x="2762" d="M1479 16q10 41 20.5 65.5t20.5 39.5q10 16 22 22q90 66 200 162t219.5 207t213 228.5t182 228t127 207t48.5 163.5q0 37 -12.5 58.5t-31 33t-38 14.5t-31.5 3q-88 -8 -154.5 -58.5t-111.5 -107.5q-53 -68 -90 -149q-14 -35 -44 -43.5t-46 -8.5q-25 0 -33 12.5t-8 28.5 t2 23q16 90 44.5 162.5t57.5 126.5q35 63 72 112l12 13q4 4 11 9t12 7q33 14 73 24q35 10 88.5 16.5t118.5 6.5q59 0 132 -7t135.5 -35t104.5 -83t42 -151q0 -98 -43 -186.5t-112.5 -172.5t-157 -165t-177.5 -165t-174 -174t-145 -190v-2q0 -2 -1 -3t-1 -5q0 -16 41 -20.5 t100 -4.5q41 0 88 4t97.5 15.5t100.5 32t95 50.5q4 2 10 7q12 8 17 8q23 0 27.5 -6.5t4.5 -22.5q-10 -59 -34.5 -112.5t-51.5 -94.5q-31 -49 -65 -90q-31 -29 -51 -37q-12 -6 -23 -6q-111 -25 -233.5 -34t-239.5 -9q-86 0 -161.5 3t-133.5 7q-68 6 -123 13q-12 1 -12 30z M541 -53q0 2 4 10q92 98 196.5 220t212 254t214 267.5t204.5 262.5q229 297 459 612q6 14 15.5 28.5t24.5 24.5t43 17.5t71 7.5q49 0 81.5 -3t32.5 -26q0 -8 -4 -18.5t-16 -24.5q-49 -51 -111 -119q-53 -59 -125.5 -142t-163.5 -194q-72 -86 -151.5 -187t-162.5 -206.5 t-164 -212t-151.5 -205t-129 -183.5t-95.5 -148q-14 -23 -52 -37.5t-79 -22.5q-47 -8 -102 -12q-23 2 -37 13.5t-14 23.5zM-25 -16q0 2 2 2q53 84 94.5 177t80.5 179q66 150 112.5 275.5t77.5 220.5q37 111 59 198v8q0 10 -6 12.5t-10 2.5q-66 8 -107.5 20.5t-64.5 26.5 q-27 16 -39 35q-6 10 -6 16q0 12 20 21q104 37 199 90q80 47 163 118.5t128 169.5q0 2 2 7q4 8 16 12q23 8 52 16q25 6 58.5 11.5t74.5 5.5q51 0 51 -11q0 -6 -2 -8q-61 -113 -121 -239q-51 -109 -107.5 -246t-101.5 -279q-37 -113 -74 -227.5t-68.5 -221t-53 -197.5 t-25.5 -156q0 -10 -10 -21q-4 -4 -9 -4q-80 -23 -151.5 -31t-124.5 -8h-41q-18 0 -31 2q-14 2 -26 4q-10 0 -11 10v9z" />
<glyph unicode="&#xbe;" horiz-adv-x="3239" d="M2007 514q0 10 4 18q2 4 2 9q25 37 62 86q31 41 77 98t107 125q68 76 155 164t190 181t221 190.5t247 189.5q16 14 39 22q20 8 49 14.5t70 6.5h20q14 0 29.5 -2t28 -6t12.5 -13q0 -4 -6 -14q-25 -43 -54 -102q-25 -51 -57.5 -124t-71.5 -167q-43 -106 -88 -229t-86 -248 v-4q0 -2 -1 -3t-1 -4q0 -12 17 -12q53 2 100 7t88 20q6 0 14.5 -3t8.5 -20q0 -23 -10.5 -47t-25 -46.5t-28.5 -39t-20 -22.5q-39 -31 -90.5 -40.5t-79.5 -9.5h-17q-12 0 -22 -10q-6 -6 -8 -10q-39 -137 -62.5 -250t-23.5 -184q0 -4 -1.5 -11.5t-9.5 -11.5 q-72 -37 -147.5 -49t-134.5 -12q-25 0 -44.5 1t-35.5 3q-18 2 -31 4q-12 2 -12 12q0 4 4 9q2 2 2 4q43 86 81 169t65.5 148.5t44 107.5t16.5 44q0 12 -23 12q-74 -4 -134 -4h-109q-78 0 -129.5 1t-83.5 5q-37 4 -60 6q-29 2 -38 15.5t-9 25.5zM2400 702q0 -6 2 -12 q4 -14 17 -16h24q12 0 27.5 -1t36.5 -1q31 0 69.5 1t79.5 5h2q4 0 13.5 3t15.5 17q51 125 85 215.5t54 149.5q23 68 37 115q2 4 2 12t-8 8q-6 0 -16 -6q-6 -4 -11 -6q-102 -90 -190 -178q-37 -37 -75 -78t-70.5 -81t-57.5 -78t-37 -69zM854 -53q0 2 4 10q92 98 196.5 220 t212 254t214 267.5t204.5 262.5q229 297 459 612q6 14 15.5 28.5t24.5 24.5t43 17.5t71 7.5q49 0 81.5 -3t32.5 -26q0 -8 -4 -18.5t-16 -24.5q-49 -51 -111 -119q-53 -59 -125.5 -142t-163.5 -194q-72 -86 -151.5 -187t-162.5 -206.5t-164 -212t-151.5 -205t-129 -183.5 t-95.5 -148q-14 -23 -52 -37.5t-79 -22.5q-47 -8 -102 -12q-23 2 -37 13.5t-14 23.5zM-76 176q0 63 26.5 118.5t57.5 98.5q37 51 82 92q55 47 103.5 73t82.5 38q41 14 74 16q29 0 38 -7t9 -17q0 -8 -8 -21q-4 -6 -8 -10q-57 -51 -93 -97t-56.5 -85t-26.5 -72t-6 -57 q0 -72 29.5 -93.5t76.5 -21.5q78 0 143.5 51t113.5 125t76 158t28 147q0 61 -25 102.5t-62.5 65t-87 32.5t-98.5 9q-23 0 -42 -1t-34 -3q-16 -2 -30 -4q-4 -2 -11 -2q-8 0 -8 10q10 41 23.5 69t25.5 46q14 23 31 35q4 4 7 5t7 3t9 2q12 -2 24 -2h23q135 0 219 44t131 101.5 t64.5 115.5t17.5 85q0 45 -19.5 69.5t-44 37t-48 14.5t-29.5 2q-82 0 -142.5 -37t-101.5 -82q-47 -53 -78 -119q-10 -27 -30.5 -31.5t-28.5 -4.5q-27 0 -33 9t-6 15q0 61 18.5 121.5t44 110t55 84t54.5 42.5q35 16 78 29q37 10 89 19.5t117 9.5q100 0 173 -22.5t121 -59.5 t71 -87t23 -106q0 -63 -30 -130.5t-87.5 -127t-141 -105.5t-192.5 -71q-2 -2 -6 -4q-8 -4 -8 -10t12 -8q76 -18 133 -56q49 -33 90 -92t41 -160q0 -43 -14.5 -104t-47 -128t-86 -133.5t-129 -119.5t-178 -86t-233.5 -33q-180 0 -256 53.5t-76 151.5z" />
<glyph unicode="&#xbf;" horiz-adv-x="817" d="M-186 -197q0 84 43 152t108.5 126t141 112.5t141 110.5t108.5 118.5t43 138.5v19q0 4 -2 6q0 14 11 18q25 10 55 19q27 8 60.5 13t74.5 5q59 0 70.5 -6t11.5 -29q0 -12 -8 -44t-42 -82t-99.5 -121.5t-180.5 -163.5q-70 -57 -123 -121q-47 -53 -86 -120t-39 -132 q2 -37 17 -68q12 -27 39.5 -47t74.5 -20q16 0 58.5 9t85.5 40t75.5 89t32.5 157v32q0 16 -4 35q0 8 8 14q6 4 18.5 8.5t35.5 4.5q12 0 18 -1t10 -9q16 -39 31 -93q12 -45 21.5 -110.5t9.5 -151.5q0 -10 -10 -20q-55 -55 -132 -87t-147 -47.5t-122 -18.5t-58 -3 q-125 0 -194.5 35t-104.5 81t-43 90t-8 62zM504 905q0 47 17.5 93t46 83t65.5 60.5t76 23.5q47 0 75.5 -37.5t28.5 -97.5q0 -45 -18.5 -91t-47 -83t-65.5 -59.5t-74 -22.5q-49 0 -76.5 37t-27.5 94z" />
<glyph unicode="&#xc0;" horiz-adv-x="1417" d="M-156 121q0 59 19.5 124.5t52.5 120t73 89t83 34.5q20 0 28 -20q6 -18 19 -35q10 -14 27.5 -25.5t41.5 -11.5q29 0 60 15q37 12 96 67q51 47 134 147.5t206 280.5q92 137 186 260q41 53 84 107.5t88 105t88.5 92t81.5 70.5q31 25 80 45q41 16 103.5 31.5t148.5 15.5 q6 0 12 -4q4 -4 8.5 -7t4.5 -13q0 -2 -4 -19q-78 -193 -130.5 -368.5t-82.5 -313.5q-37 -160 -58 -301q-16 -96 -23 -172t-7 -135q0 -129 18 -187.5t18 -62.5q0 -8 -4 -12l-4 -4q-53 -35 -107.5 -54.5t-102.5 -29.5t-88 -13.5t-68 -3.5q-4 0 -8 5q-2 2 -3 4q-4 16 -6 37.5 t-2 46.5q0 92 9.5 159.5t20.5 125t20.5 110.5t9.5 115q0 68 -14.5 107.5t-32.5 62.5q-23 25 -50 32q-8 8 -8 21q0 23 26.5 36t59.5 20t62.5 9t33.5 2q8 4 11 13q2 6 4 10q18 68 37.5 134.5t36.5 119.5q20 63 38 119q6 18 7 24q0 10 -7 10q-4 0 -14 -6q-6 -4 -10 -6 q-23 -18 -54.5 -56t-69.5 -88t-79 -107.5t-80 -114.5q-92 -135 -194 -295q-162 -223 -278 -351.5t-194.5 -192t-126.5 -78.5t-75 -15q-82 0 -117 51t-35 123zM1120 1884q0 12 13.5 28.5t34 32t44 25.5t41.5 10q29 0 39 -8q66 -53 106 -96t62 -74q25 -37 37 -65q2 0 2 -2v-11 q0 -16 -8 -24q-4 -4 -10 -4t-15 4q-4 2 -6 2q-53 37 -108.5 65.5t-100.5 47.5q-53 23 -102 36q-20 4 -24.5 13.5t-4.5 19.5z" />
<glyph unicode="&#xc1;" horiz-adv-x="1417" d="M-156 121q0 59 19.5 124.5t52.5 120t73 89t83 34.5q20 0 28 -20q6 -18 19 -35q10 -14 27.5 -25.5t41.5 -11.5q29 0 60 15q37 12 96 67q51 47 134 147.5t206 280.5q92 137 186 260q41 53 84 107.5t88 105t88.5 92t81.5 70.5q31 25 80 45q41 16 103.5 31.5t148.5 15.5 q6 0 12 -4q4 -4 8.5 -7t4.5 -13q0 -2 -4 -19q-78 -193 -130.5 -368.5t-82.5 -313.5q-37 -160 -58 -301q-16 -96 -23 -172t-7 -135q0 -129 18 -187.5t18 -62.5q0 -8 -4 -12l-4 -4q-53 -35 -107.5 -54.5t-102.5 -29.5t-88 -13.5t-68 -3.5q-4 0 -8 5q-2 2 -3 4q-4 16 -6 37.5 t-2 46.5q0 92 9.5 159.5t20.5 125t20.5 110.5t9.5 115q0 68 -14.5 107.5t-32.5 62.5q-23 25 -50 32q-8 8 -8 21q0 23 26.5 36t59.5 20t62.5 9t33.5 2q8 4 11 13q2 6 4 10q18 68 37.5 134.5t36.5 119.5q20 63 38 119q6 18 7 24q0 10 -7 10q-4 0 -14 -6q-6 -4 -10 -6 q-23 -18 -54.5 -56t-69.5 -88t-79 -107.5t-80 -114.5q-92 -135 -194 -295q-162 -223 -278 -351.5t-194.5 -192t-126.5 -78.5t-75 -15q-82 0 -117 51t-35 123zM1362 1731q0 4 1 6t1 4v2q12 29 39 65q23 31 61.5 74t104.5 96q2 2 8 4q12 4 22 5q18 0 43 -9.5t46.5 -24 t37 -32.5t15.5 -35q0 -6 -4 -15t-25 -13q-49 -14 -102 -37q-45 -18 -100.5 -47t-108.5 -66q-2 0 -6 -2q-8 -4 -15 -4q-6 0 -12 7.5t-6 21.5z" />
<glyph unicode="&#xc2;" horiz-adv-x="1417" d="M-156 121q0 59 19.5 124.5t52.5 120t73 89t83 34.5q20 0 28 -20q6 -18 19 -35q10 -14 27.5 -25.5t41.5 -11.5q29 0 60 15q37 12 96 67q51 47 134 147.5t206 280.5q92 137 186 260q41 53 84 107.5t88 105t88.5 92t81.5 70.5q31 25 80 45q41 16 103.5 31.5t148.5 15.5 q6 0 12 -4q4 -4 8.5 -7t4.5 -13q0 -2 -4 -19q-78 -193 -130.5 -368.5t-82.5 -313.5q-37 -160 -58 -301q-16 -96 -23 -172t-7 -135q0 -129 18 -187.5t18 -62.5q0 -8 -4 -12l-4 -4q-53 -35 -107.5 -54.5t-102.5 -29.5t-88 -13.5t-68 -3.5q-4 0 -8 5q-2 2 -3 4q-4 16 -6 37.5 t-2 46.5q0 92 9.5 159.5t20.5 125t20.5 110.5t9.5 115q0 68 -14.5 107.5t-32.5 62.5q-23 25 -50 32q-8 8 -8 21q0 23 26.5 36t59.5 20t62.5 9t33.5 2q8 4 11 13q2 6 4 10q18 68 37.5 134.5t36.5 119.5q20 63 38 119q6 18 7 24q0 10 -7 10q-4 0 -14 -6q-6 -4 -10 -6 q-23 -18 -54.5 -56t-69.5 -88t-79 -107.5t-80 -114.5q-92 -135 -194 -295q-162 -223 -278 -351.5t-194.5 -192t-126.5 -78.5t-75 -15q-82 0 -117 51t-35 123zM1128 1694q0 8 5 16l4 8q29 43 65 84q33 35 79 76t105 76q4 2 11 4q12 4 22 4q6 0 25.5 -7t46.5 -24l2 -2 q2 -2 4 -2l6 2q35 20 62.5 26.5t33.5 6.5q23 0 40.5 -22.5t29.5 -55.5t19.5 -70.5t7.5 -66.5q0 -18 -6.5 -39.5t-32.5 -30.5h-2q-4 0 -8 4q-2 2 -5 2q-41 55 -89 93.5t-76 54.5q-2 2 -9 2q-47 -16 -129 -55t-174 -95q-2 0 -6 -2q-8 -4 -14 -4q-17 1 -17 17z" />
<glyph unicode="&#xc3;" horiz-adv-x="1417" d="M-156 121q0 59 19.5 124.5t52.5 120t73 89t83 34.5q20 0 28 -20q6 -18 19 -35q10 -14 27.5 -25.5t41.5 -11.5q29 0 60 15q37 12 96 67q51 47 134 147.5t206 280.5q92 137 186 260q41 53 84 107.5t88 105t88.5 92t81.5 70.5q31 25 80 45q41 16 103.5 31.5t148.5 15.5 q6 0 12 -4q4 -4 8.5 -7t4.5 -13q0 -2 -4 -19q-78 -193 -130.5 -368.5t-82.5 -313.5q-37 -160 -58 -301q-16 -96 -23 -172t-7 -135q0 -129 18 -187.5t18 -62.5q0 -8 -4 -12l-4 -4q-53 -35 -107.5 -54.5t-102.5 -29.5t-88 -13.5t-68 -3.5q-4 0 -8 5q-2 2 -3 4q-4 16 -6 37.5 t-2 46.5q0 92 9.5 159.5t20.5 125t20.5 110.5t9.5 115q0 68 -14.5 107.5t-32.5 62.5q-23 25 -50 32q-8 8 -8 21q0 23 26.5 36t59.5 20t62.5 9t33.5 2q8 4 11 13q2 6 4 10q18 68 37.5 134.5t36.5 119.5q20 63 38 119q6 18 7 24q0 10 -7 10q-4 0 -14 -6q-6 -4 -10 -6 q-23 -18 -54.5 -56t-69.5 -88t-79 -107.5t-80 -114.5q-92 -135 -194 -295q-162 -223 -278 -351.5t-194.5 -192t-126.5 -78.5t-75 -15q-82 0 -117 51t-35 123zM1083 1759q0 2 8.5 27.5t22.5 58.5t35.5 63.5t46.5 41.5q10 6 31 12q37 10 110 10q37 0 62.5 -3t52.5 -6t57.5 -6 t79.5 -3q55 0 116.5 10t106.5 39q2 0 5 2q2 2 8 2t6 -8v-8q-8 -53 -23.5 -92t-31.5 -64q-18 -29 -39 -49q-16 -18 -49 -25.5t-74 -7.5q-70 0 -112 6t-72 13l-62 12q-31 6 -80 6q-47 0 -82 -6t-57 -15q-27 -8 -45 -20q-4 -2 -10 -2t-8.5 4t-2.5 8z" />
<glyph unicode="&#xc4;" horiz-adv-x="1417" d="M-156 121q0 59 19.5 124.5t52.5 120t73 89t83 34.5q20 0 28 -20q6 -18 19 -35q10 -14 27.5 -25.5t41.5 -11.5q29 0 60 15q37 12 96 67q51 47 134 147.5t206 280.5q92 137 186 260q41 53 84 107.5t88 105t88.5 92t81.5 70.5q31 25 80 45q41 16 103.5 31.5t148.5 15.5 q6 0 12 -4q4 -4 8.5 -7t4.5 -13q0 -2 -4 -19q-78 -193 -130.5 -368.5t-82.5 -313.5q-37 -160 -58 -301q-16 -96 -23 -172t-7 -135q0 -129 18 -187.5t18 -62.5q0 -8 -4 -12l-4 -4q-53 -35 -107.5 -54.5t-102.5 -29.5t-88 -13.5t-68 -3.5q-4 0 -8 5q-2 2 -3 4q-4 16 -6 37.5 t-2 46.5q0 92 9.5 159.5t20.5 125t20.5 110.5t9.5 115q0 68 -14.5 107.5t-32.5 62.5q-23 25 -50 32q-8 8 -8 21q0 23 26.5 36t59.5 20t62.5 9t33.5 2q8 4 11 13q2 6 4 10q18 68 37.5 134.5t36.5 119.5q20 63 38 119q6 18 7 24q0 10 -7 10q-4 0 -14 -6q-6 -4 -10 -6 q-23 -18 -54.5 -56t-69.5 -88t-79 -107.5t-80 -114.5q-92 -135 -194 -295q-162 -223 -278 -351.5t-194.5 -192t-126.5 -78.5t-75 -15q-82 0 -117 51t-35 123zM1085 1778q0 33 12.5 64.5t34 57t48 41t55.5 15.5q41 0 64.5 -29t23.5 -74q0 -33 -12.5 -65.5t-34 -58t-48 -41 t-54.5 -15.5q-41 0 -65 29t-24 76zM1583 1778q0 33 12.5 64.5t34 57t48 41t55.5 15.5q41 0 64.5 -29t23.5 -74q0 -33 -12.5 -65.5t-34 -58t-48 -41t-55.5 -15.5q-41 0 -64.5 29t-23.5 76z" />
<glyph unicode="&#xc5;" horiz-adv-x="1417" d="M-156 121q0 59 19.5 124.5t52.5 120t73 89t83 34.5q20 0 28 -20q6 -18 19 -35q10 -14 27.5 -25.5t41.5 -11.5q29 0 60 15q37 12 96 67q51 47 134 147.5t206 280.5q92 137 186 260q41 53 84 107.5t88 105t88.5 92t81.5 70.5q31 25 80 45q41 16 103.5 31.5t148.5 15.5 q6 0 12 -4q4 -4 8.5 -7t4.5 -13q0 -2 -4 -19q-78 -193 -130.5 -368.5t-82.5 -313.5q-37 -160 -58 -301q-16 -96 -23 -172t-7 -135q0 -129 18 -187.5t18 -62.5q0 -8 -4 -12l-4 -4q-53 -35 -107.5 -54.5t-102.5 -29.5t-88 -13.5t-68 -3.5q-4 0 -8 5q-2 2 -3 4q-4 16 -6 37.5 t-2 46.5q0 92 9.5 159.5t20.5 125t20.5 110.5t9.5 115q0 68 -14.5 107.5t-32.5 62.5q-23 25 -50 32q-8 8 -8 21q0 23 26.5 36t59.5 20t62.5 9t33.5 2q8 4 11 13q2 6 4 10q18 68 37.5 134.5t36.5 119.5q20 63 38 119q6 18 7 24q0 10 -7 10q-4 0 -14 -6q-6 -4 -10 -6 q-23 -18 -54.5 -56t-69.5 -88t-79 -107.5t-80 -114.5q-92 -135 -194 -295q-162 -223 -278 -351.5t-194.5 -192t-126.5 -78.5t-75 -15q-82 0 -117 51t-35 123zM1376 1839q0 39 17.5 75t45 63.5t63.5 44t71 16.5q53 0 85 -33t32 -84q0 -37 -16.5 -73t-44 -63.5t-62.5 -45 t-74 -17.5q-53 0 -85 33t-32 84zM1464 1860q0 -25 14.5 -40.5t37.5 -15.5q33 0 59.5 30t26.5 64q0 23 -14.5 39.5t-37.5 16.5q-33 0 -59.5 -28.5t-26.5 -65.5z" />
<glyph unicode="&#xc6;" horiz-adv-x="2054" d="M-156 121q0 59 19.5 124.5t52.5 120t73 89t83 34.5q20 0 28 -20q6 -18 19 -35q10 -14 27.5 -25.5t41.5 -11.5q29 0 60 15q37 12 96 67q51 47 134 145.5t204 274.5q92 137 186 260q41 53 84 107.5t88 104.5t88 92t82 71q14 10 31 18q14 8 31.5 14.5t34.5 6.5q92 6 190 14 q86 6 189.5 10.5t207.5 4.5q94 0 177 -5.5t143 -17.5q10 -4 10 -14q0 -2 -14.5 -57.5t-44 -128t-74.5 -141.5t-106 -99q-6 -4 -18.5 -7.5t-29.5 -3.5q-10 0 -19 4.5t-9 14.5q0 4 4 16q4 14 8 35q4 16 6 39t2 45q0 76 -33.5 123t-123.5 47q-31 0 -56 -8q-37 -12 -78 -66 q-35 -45 -81 -135t-93 -252q0 -4 1 -9t8 -7h30q16 0 37 -1t47 -1q90 0 215 6q4 0 9.5 -3t7.5 -15q0 -18 -11.5 -59.5t-31 -83.5t-44 -73.5t-51.5 -31.5q-14 0 -22 14q-10 20 -33 35q-20 12 -54 22.5t-87 10.5q-25 0 -56.5 -5.5t-39.5 -23.5q-39 -100 -74 -203 q-29 -88 -54.5 -192.5t-29.5 -202.5q0 -6 8 -21.5t49 -15.5q25 0 84.5 9.5t140 46t176 112.5t189.5 209q16 14 35 27q16 10 35.5 18t40.5 8q6 0 12 -3t6 -23q0 -2 -1 -4.5t-1 -6.5q-4 -18 -17.5 -57t-31 -87t-38 -101.5t-40.5 -100.5t-38.5 -84t-33.5 -53q-4 -8 -14 -12 l-8 -4q-137 -39 -285.5 -52.5t-286.5 -13.5q-96 0 -178 4t-145 8q-74 6 -135 13q-6 0 -6 8t6 14q23 27 51.5 70t57 95t52 107.5t33.5 104.5q10 43 13.5 79t3.5 66q0 68 -14.5 107t-32.5 61q-23 25 -50 35q-8 8 -8 21q0 10 8 22q4 6 9 8q12 12 64 16.5t101 4.5h62q14 0 24 -2 q6 4 11 10q2 4 4 10q16 51 33.5 113.5t34 123t28.5 114t16 88.5q2 6 2 16q0 16 -12 16q-14 0 -37 -14q-10 -8 -22 -14q-23 -18 -56.5 -57.5t-74.5 -91.5t-85 -112.5t-87 -119.5q-100 -141 -213 -308q-113 -174 -228 -313q-49 -59 -104 -115.5t-112.5 -101.5t-116 -71.5 t-113.5 -26.5q-82 0 -117 51t-35 123z" />
<glyph unicode="&#xc7;" horiz-adv-x="1085" d="M20 408q0 88 24 211.5t74 260t128 270.5t187.5 239.5t251.5 172t321 66.5q37 0 82 -4t84.5 -16.5t66.5 -36t27 -64.5q0 -35 -16.5 -88t-44 -113.5t-63.5 -122t-77 -110.5t-83 -79.5t-83 -30.5q-16 0 -29.5 8t-13.5 30q0 16 14 43q25 47 45 101q16 45 31 103.5t15 119.5 q0 37 -26 51.5t-48 14.5q-51 0 -109.5 -42t-115 -113t-107.5 -165t-90 -199.5t-62.5 -216t-23.5 -215.5q0 -47 7 -90t25.5 -74.5t52.5 -50t85 -18.5q37 0 86 14.5t105.5 59.5t115.5 126.5t113 217.5q2 4 6 8q6 6 24 6q29 0 51.5 -24.5t22.5 -57.5q0 -25 -15.5 -76 t-46 -116.5t-76.5 -137t-108.5 -135t-141.5 -113t-177 -69.5q-16 -4 -25.5 -8t-17.5 -8q-8 -6 -14 -9q-12 -16 -21 -32q-8 -14 -15 -26.5t-7 -23.5q0 -8 6 -10q27 -8 49 -26q18 -16 32.5 -40t14.5 -59q0 -49 -21.5 -83t-52 -53t-63.5 -28.5t-56 -9.5q-25 0 -43 5t-32 12 q-16 8 -27 18q-8 6 -8 20q0 16 10 37l10 21q6 6 11 6q4 0 6 -2l2 -2q10 -16 27.5 -21.5t25.5 -5.5q27 0 42 10.5t22.5 23.5t9.5 24.5t2 15.5q0 25 -11.5 38t-29 19t-35.5 8.5t-33 2.5q-10 0 -10 10q0 18 13.5 41.5t30.5 47t30.5 41t13.5 21.5q0 6 -8 10.5t-12 4.5 q-88 12 -146.5 54t-93.5 104.5t-49.5 141.5t-14.5 165z" />
<glyph unicode="&#xc8;" horiz-adv-x="1171" d="M-113 -4q0 8 2 10l5 4q33 39 67.5 98.5t68 130t66.5 147.5t62 153q68 176 129 374q43 147 68.5 258t38 189t15.5 125t3 69q0 14 6 17q4 2 6 2q92 6 190 14q86 6 189.5 10.5t208.5 4.5q94 0 177 -5.5t142 -17.5q10 -4 10 -14q0 -2 -14 -57.5t-44 -128t-75 -141.5t-106 -99 q-6 -4 -18.5 -7.5t-28.5 -3.5q-10 0 -19.5 4.5t-9.5 14.5q0 4 4 16q4 14 8 35q4 16 6.5 39t2.5 45q0 76 -34 123t-124 47q-31 0 -55 -8q-31 -12 -68 -66q-33 -45 -75 -135t-89 -252q0 -4 1 -9t7 -7h31q16 0 36.5 -1t47.5 -1q90 0 215 6q4 0 9 -3t7 -15q0 -18 -11 -59.5 t-30.5 -83.5t-44 -73.5t-51.5 -31.5q-14 0 -22 14q-10 20 -33 35q-20 12 -54 22.5t-87 10.5q-25 0 -56.5 -5.5t-40.5 -23.5q-39 -100 -73 -203q-29 -88 -54.5 -192.5t-29.5 -202.5q0 -6 8 -21.5t49 -15.5q25 0 84 9.5t140 46t176.5 112.5t189.5 209q10 14 24 27 q12 10 28.5 18t37.5 8q6 0 22.5 -3t16.5 -23q0 -2 -1 -4.5t-1 -6.5q-4 -18 -17.5 -57t-31 -87t-38 -101.5t-41 -100.5t-39 -84t-32.5 -53q-4 -8 -14 -12l-8 -4q-137 -39 -286 -52.5t-286 -13.5q-96 0 -179 4t-144 10q-72 8 -133 15q-7 2 -7 8zM758 1878q0 12 13 28.5 t33.5 32t44 25.5t42.5 10q29 0 39 -8q66 -53 105.5 -96t62.5 -74q25 -37 37 -65q2 0 2 -2v-11q0 -16 -9 -24q-4 -4 -10 -4t-14 4q-4 2 -6 2q-53 37 -108.5 65.5t-100.5 46.5q-53 23 -103 37q-20 4 -24 13.5t-4 19.5z" />
<glyph unicode="&#xc9;" horiz-adv-x="1171" d="M-113 -4q0 8 2 10l5 4q33 39 67.5 98.5t68 130t66.5 147.5t62 153q68 176 129 374q43 147 68.5 258t38 189t15.5 125t3 69q0 14 6 17q4 2 6 2q92 6 190 14q86 6 189.5 10.5t208.5 4.5q94 0 177 -5.5t142 -17.5q10 -4 10 -14q0 -2 -14 -57.5t-44 -128t-75 -141.5t-106 -99 q-6 -4 -18.5 -7.5t-28.5 -3.5q-10 0 -19.5 4.5t-9.5 14.5q0 4 4 16q4 14 8 35q4 16 6.5 39t2.5 45q0 76 -34 123t-124 47q-31 0 -55 -8q-31 -12 -68 -66q-33 -45 -75 -135t-89 -252q0 -4 1 -9t7 -7h31q16 0 36.5 -1t47.5 -1q90 0 215 6q4 0 9 -3t7 -15q0 -18 -11 -59.5 t-30.5 -83.5t-44 -73.5t-51.5 -31.5q-14 0 -22 14q-10 20 -33 35q-20 12 -54 22.5t-87 10.5q-25 0 -56.5 -5.5t-40.5 -23.5q-39 -100 -73 -203q-29 -88 -54.5 -192.5t-29.5 -202.5q0 -6 8 -21.5t49 -15.5q25 0 84 9.5t140 46t176.5 112.5t189.5 209q10 14 24 27 q12 10 28.5 18t37.5 8q6 0 22.5 -3t16.5 -23q0 -2 -1 -4.5t-1 -6.5q-4 -18 -17.5 -57t-31 -87t-38 -101.5t-41 -100.5t-39 -84t-32.5 -53q-4 -8 -14 -12l-8 -4q-137 -39 -286 -52.5t-286 -13.5q-96 0 -179 4t-144 10q-72 8 -133 15q-7 2 -7 8zM891 1731q0 4 1 6t1 4v2 q12 29 39 65q23 31 61.5 74t104.5 96q2 2 8 4q12 4 22 5q18 0 43 -9.5t46.5 -24t37 -32.5t15.5 -35q0 -6 -4 -15t-25 -13q-49 -14 -102 -37q-45 -18 -100.5 -47t-108.5 -66q-2 0 -6 -2q-8 -4 -15 -4q-6 0 -12 7.5t-6 21.5z" />
<glyph unicode="&#xca;" horiz-adv-x="1171" d="M-113 -4q0 8 2 10l5 4q33 39 67.5 98.5t68 130t66.5 147.5t62 153q68 176 129 374q43 147 68.5 258t38 189t15.5 125t3 69q0 14 6 17q4 2 6 2q92 6 190 14q86 6 189.5 10.5t208.5 4.5q94 0 177 -5.5t142 -17.5q10 -4 10 -14q0 -2 -14 -57.5t-44 -128t-75 -141.5t-106 -99 q-6 -4 -18.5 -7.5t-28.5 -3.5q-10 0 -19.5 4.5t-9.5 14.5q0 4 4 16q4 14 8 35q4 16 6.5 39t2.5 45q0 76 -34 123t-124 47q-31 0 -55 -8q-31 -12 -68 -66q-33 -45 -75 -135t-89 -252q0 -4 1 -9t7 -7h31q16 0 36.5 -1t47.5 -1q90 0 215 6q4 0 9 -3t7 -15q0 -18 -11 -59.5 t-30.5 -83.5t-44 -73.5t-51.5 -31.5q-14 0 -22 14q-10 20 -33 35q-20 12 -54 22.5t-87 10.5q-25 0 -56.5 -5.5t-40.5 -23.5q-39 -100 -73 -203q-29 -88 -54.5 -192.5t-29.5 -202.5q0 -6 8 -21.5t49 -15.5q25 0 84 9.5t140 46t176.5 112.5t189.5 209q10 14 24 27 q12 10 28.5 18t37.5 8q6 0 22.5 -3t16.5 -23q0 -2 -1 -4.5t-1 -6.5q-4 -18 -17.5 -57t-31 -87t-38 -101.5t-41 -100.5t-39 -84t-32.5 -53q-4 -8 -14 -12l-8 -4q-137 -39 -286 -52.5t-286 -13.5q-96 0 -179 4t-144 10q-72 8 -133 15q-7 2 -7 8zM651 1700q0 8 4 16l4 8 q29 43 66 84q33 35 79 76t105 76q4 2 11 4q12 4 22 4q6 0 25.5 -7t46.5 -24l2 -2q2 -2 4 -2l6 2q35 20 62.5 26.5t33.5 6.5q23 0 40.5 -22.5t29.5 -55t19.5 -70.5t7.5 -67q0 -18 -6.5 -39.5t-32.5 -30.5h-2q-4 0 -9 5q-2 2 -4 2q-41 55 -89 93t-77 54q-2 2 -8 2 q-47 -16 -129 -55t-174 -94q-2 0 -6 -2q-8 -4 -14 -5q-17 1 -17 17z" />
<glyph unicode="&#xcb;" horiz-adv-x="1171" d="M-113 -4q0 8 2 10l5 4q33 39 67.5 98.5t68 130t66.5 147.5t62 153q68 176 129 374q43 147 68.5 258t38 189t15.5 125t3 69q0 14 6 17q4 2 6 2q92 6 190 14q86 6 189.5 10.5t208.5 4.5q94 0 177 -5.5t142 -17.5q10 -4 10 -14q0 -2 -14 -57.5t-44 -128t-75 -141.5t-106 -99 q-6 -4 -18.5 -7.5t-28.5 -3.5q-10 0 -19.5 4.5t-9.5 14.5q0 4 4 16q4 14 8 35q4 16 6.5 39t2.5 45q0 76 -34 123t-124 47q-31 0 -55 -8q-31 -12 -68 -66q-33 -45 -75 -135t-89 -252q0 -4 1 -9t7 -7h31q16 0 36.5 -1t47.5 -1q90 0 215 6q4 0 9 -3t7 -15q0 -18 -11 -59.5 t-30.5 -83.5t-44 -73.5t-51.5 -31.5q-14 0 -22 14q-10 20 -33 35q-20 12 -54 22.5t-87 10.5q-25 0 -56.5 -5.5t-40.5 -23.5q-39 -100 -73 -203q-29 -88 -54.5 -192.5t-29.5 -202.5q0 -6 8 -21.5t49 -15.5q25 0 84 9.5t140 46t176.5 112.5t189.5 209q10 14 24 27 q12 10 28.5 18t37.5 8q6 0 22.5 -3t16.5 -23q0 -2 -1 -4.5t-1 -6.5q-4 -18 -17.5 -57t-31 -87t-38 -101.5t-41 -100.5t-39 -84t-32.5 -53q-4 -8 -14 -12l-8 -4q-137 -39 -286 -52.5t-286 -13.5q-96 0 -179 4t-144 10q-72 8 -133 15q-7 2 -7 8zM606 1804q0 33 12.5 65 t34 57.5t48 40.5t55.5 15q41 0 64.5 -28.5t23.5 -73.5q0 -33 -12.5 -65.5t-34 -58t-48 -41t-55.5 -15.5q-41 0 -64.5 28.5t-23.5 75.5zM1104 1804q0 33 12 65t33.5 57.5t48.5 40.5t55 15q41 0 64.5 -28.5t23.5 -73.5q0 -33 -12 -65.5t-33.5 -58t-48 -41t-55.5 -15.5 q-41 0 -64.5 28.5t-23.5 75.5z" />
<glyph unicode="&#xcc;" horiz-adv-x="550" d="M-113 -31q0 2 4 11q51 90 101.5 208.5t97.5 248.5t92 263.5t84 251.5q47 135 78 248t49.5 194t26.5 126l8 45q0 4 2 9t8 7q12 4 41 9t69 9.5t87 8.5t96 4h43q14 0 31 -2q4 0 9 -2t5 -6q0 -2 -24.5 -55.5t-63.5 -146.5t-89 -218t-99 -273q-39 -115 -77 -223t-71 -214.5 t-60.5 -216.5t-45.5 -226q0 -4 -2 -9q-4 -8 -8 -10q-86 -35 -167 -44t-137 -9h-33q-15 0 -26 2q-12 2 -20 2q-9 0 -9 8zM479 1866q0 12 13.5 28.5t34 32t44 25.5t41.5 10q29 0 39 -8q66 -53 106 -96t62 -74q25 -37 37 -66q2 0 2 -2v-10q0 -16 -8 -25q-4 -4 -10 -4t-15 4 q-4 2 -6 2q-53 37 -108.5 66t-100.5 47q-53 23 -102 37q-20 4 -24.5 13.5t-4.5 19.5z" />
<glyph unicode="&#xcd;" horiz-adv-x="550" d="M-113 -31q0 2 4 11q51 90 101.5 208.5t97.5 248.5t92 263.5t84 251.5q47 135 78 248t49.5 194t26.5 126l8 45q0 4 2 9t8 7q12 4 41 9t69 9.5t87 8.5t96 4h43q14 0 31 -2q4 0 9 -2t5 -6q0 -2 -24.5 -55.5t-63.5 -146.5t-89 -218t-99 -273q-39 -115 -77 -223t-71 -214.5 t-60.5 -216.5t-45.5 -226q0 -4 -2 -9q-4 -8 -8 -10q-86 -35 -167 -44t-137 -9h-33q-15 0 -26 2q-12 2 -20 2q-9 0 -9 8zM559 1714q0 4 1 6t1 4v2q12 29 39 66q23 31 61.5 74t104.5 96q2 2 8 4q12 4 23 4q18 0 42.5 -9t46 -23.5t37 -33t15.5 -34.5q0 -6 -4 -15.5t-25 -13.5 q-49 -14 -102 -37q-45 -18 -100.5 -46.5t-108.5 -65.5q-2 0 -6 -2q-8 -4 -14 -4t-12.5 7t-6.5 21z" />
<glyph unicode="&#xce;" horiz-adv-x="550" d="M-113 -31q0 2 4 11q51 90 101.5 208.5t97.5 248.5t92 263.5t84 251.5q47 135 78 248t49.5 194t26.5 126l8 45q0 4 2 9t8 7q12 4 41 9t69 9.5t87 8.5t96 4h43q14 0 31 -2q4 0 9 -2t5 -6q0 -2 -24.5 -55.5t-63.5 -146.5t-89 -218t-99 -273q-39 -115 -77 -223t-71 -214.5 t-60.5 -216.5t-45.5 -226q0 -4 -2 -9q-4 -8 -8 -10q-86 -35 -167 -44t-137 -9h-33q-15 0 -26 2q-12 2 -20 2q-9 0 -9 8zM410 1694q0 8 4 16l4 8q29 43 65 84q33 35 79 76t106 76q4 2 10 4q12 4 22 4q6 0 25.5 -7t46.5 -24l2 -2q2 -2 4 -2l6 2q35 20 62.5 26.5t34.5 6.5 q23 0 40 -22.5t29.5 -55.5t19.5 -70.5t7 -66.5q0 -18 -6 -39.5t-33 -30.5h-2q-4 0 -8 4q-2 2 -4 2q-41 55 -89.5 93.5t-76.5 54.5q-2 2 -8 2q-47 -16 -129 -55t-175 -95q-2 0 -6 -2q-8 -4 -14 -4q-16 1 -16 17z" />
<glyph unicode="&#xcf;" horiz-adv-x="550" d="M-113 -31q0 2 4 11q51 90 101.5 208.5t97.5 248.5t92 263.5t84 251.5q47 135 78 248t49.5 194t26.5 126l8 45q0 4 2 9t8 7q12 4 41 9t69 9.5t87 8.5t96 4h43q14 0 31 -2q4 0 9 -2t5 -6q0 -2 -24.5 -55.5t-63.5 -146.5t-89 -218t-99 -273q-39 -115 -77 -223t-71 -214.5 t-60.5 -216.5t-45.5 -226q0 -4 -2 -9q-4 -8 -8 -10q-86 -35 -167 -44t-137 -9h-33q-15 0 -26 2q-12 2 -20 2q-9 0 -9 8zM328 1794q0 33 12 64.5t33.5 57.5t48.5 41t55 15q41 0 64.5 -28.5t23.5 -73.5q0 -33 -12 -65.5t-33.5 -58.5t-48.5 -41t-55 -15q-41 0 -64.5 28.5 t-23.5 75.5zM825 1794q0 33 12.5 64.5t34 57.5t48 41t55.5 15q41 0 64.5 -28.5t23.5 -73.5q0 -33 -12.5 -65.5t-34 -58.5t-48 -41t-55.5 -15q-41 0 -64.5 28.5t-23.5 75.5z" />
<glyph unicode="&#xd0;" horiz-adv-x="1210" d="M-102 4q0 6 2 8l2 2q76 106 135 228.5t103 230t71 186t35 99.5q-127 -4 -213 -11.5t-88 -9.5q-6 0 -6 6q12 33 27.5 54.5t29.5 38.5q16 18 35 28q2 0 4 2t8 2q4 0 61.5 -5t155.5 -5h19q27 84 42 141.5t23 96.5t10 60.5t2 29.5q0 4 2 9t9 7q27 8 57 17q27 6 62.5 11 t76.5 5q16 0 42 -2t49.5 -6t41 -10.5t17.5 -12.5q-6 -8 -19.5 -38.5t-32 -77t-42 -104.5t-48.5 -124q66 4 128.5 7t113.5 10q6 0 6 -5q0 -10 -11 -29.5t-28 -37.5q-18 -23 -41 -45q-4 -4 -6 -4t-6 -2t-8 -2q-8 0 -60.5 2t-126.5 4q-35 -92 -67.5 -184.5t-59 -171t-42 -136 t-15.5 -82.5q0 -20 11.5 -27t48.5 -7q61 0 121.5 29.5t113.5 82.5t105.5 140t93.5 190.5t66.5 215.5t25.5 214q0 74 -15.5 138.5t-50.5 115.5q-43 63 -114.5 100t-180.5 37q-84 0 -149.5 -11t-110.5 -26q-53 -16 -92 -39q-2 -2 -6 -2q-6 0 -8 6.5t-2 12.5q0 27 11 54.5 t26 49.5q16 27 34 55q20 27 61.5 41.5t82.5 24.5q49 10 102 14q29 2 52.5 3t46.5 1q305 -6 470.5 -150t165.5 -441q0 -115 -27.5 -237t-83.5 -239.5t-140 -222t-198 -184.5t-256 -126t-314 -46q-158 0 -249 19.5t-91 33.5z" />
<glyph unicode="&#xd1;" horiz-adv-x="1241" d="M-113 -39q0 4 2 6l5 4q27 37 55 90.5t58 116t58.5 130t53.5 132.5q59 154 119 324q74 170 110.5 297t53 219t17.5 149.5t1 88.5q0 23 -1 32t-1 13q0 10 6 12q4 2 6 2q33 8 72 16q35 6 81 11.5t101 5.5q68 0 89.5 -4t21.5 -15q0 -41 4 -115.5t20.5 -186t49 -260 t89.5 -337.5l5 -12q4 -12 12 -12q10 0 20 24q55 145 97 289q18 61 34.5 128t29.5 133.5t21.5 129t8.5 117.5q0 35 -3 51t-3 25q0 10 8 12q39 6 80 14q35 6 82 10.5t94 4.5q51 0 100 -7q2 0 6 -2q6 -2 6 -8q0 -4 -2 -8q-53 -51 -106 -147q-47 -82 -100.5 -215.5 t-100.5 -335.5q-57 -166 -102 -326q-18 -68 -38 -141.5t-34 -146t-23.5 -141.5t-9.5 -126q0 -10 -4 -14l-4 -4q-57 -27 -106 -35t-84 -8h-27q-10 0 -20 2t-19 4q-12 2 -12 10q-16 223 -53 411.5t-74 329.5q-43 164 -94 299q-6 18 -13 19q-6 0 -10 -8l-4 -9 q-92 -229 -143 -403t-76 -295t-30 -190.5t-5 -87.5q0 -10 -6 -15q-4 -2 -6 -4q-84 -35 -157 -44t-124 -9q-82 0 -82 10zM739 1759q0 2 8.5 27.5t22.5 58.5t35.5 63.5t46.5 41.5q10 6 31 12q37 10 110 10q37 0 62.5 -3t52.5 -6t57.5 -6t79.5 -3q55 0 116.5 10t106.5 39 q2 0 5 2q2 2 8 2t6 -8v-8q-8 -53 -23.5 -92t-31.5 -64q-18 -29 -39 -49q-16 -18 -49 -25.5t-74 -7.5q-70 0 -112 6t-73 13l-61 12q-31 6 -80 6q-47 0 -82 -6t-57 -15q-27 -8 -45 -20q-4 -2 -10 -2t-8.5 4t-2.5 8z" />
<glyph unicode="&#xd2;" horiz-adv-x="1292" d="M43 489q0 125 28.5 258.5t83 260.5t132.5 241.5t178 200.5t220 136t257 50q113 0 195 -42t134 -115.5t77.5 -173t25.5 -211.5q0 -125 -28.5 -259.5t-84 -262.5t-134 -243.5t-178 -202.5t-218.5 -138t-254 -51q-113 0 -194.5 43t-135 118.5t-79 175.5t-25.5 215zM365 442 q0 -135 43 -224t137 -89q66 0 128 49t117.5 131t103.5 186.5t83 218t54.5 227.5t19.5 210q0 129 -39 212t-127 83q-68 0 -133.5 -47t-124 -126t-106.5 -182.5t-83 -215t-54 -223.5t-19 -210zM782 1884q0 12 13.5 28.5t34 32t44 25.5t41.5 10q29 0 39 -8q66 -53 106 -96 t62 -74q25 -37 37 -65q2 0 2 -2v-11q0 -16 -8 -24q-4 -4 -10 -4t-15 4q-4 2 -6 2q-53 37 -108.5 65.5t-100.5 47.5q-53 23 -102 36q-20 4 -24.5 13.5t-4.5 19.5z" />
<glyph unicode="&#xd3;" horiz-adv-x="1292" d="M43 489q0 125 28.5 258.5t83 260.5t132.5 241.5t178 200.5t220 136t257 50q113 0 195 -42t134 -115.5t77.5 -173t25.5 -211.5q0 -125 -28.5 -259.5t-84 -262.5t-134 -243.5t-178 -202.5t-218.5 -138t-254 -51q-113 0 -194.5 43t-135 118.5t-79 175.5t-25.5 215zM365 442 q0 -135 43 -224t137 -89q66 0 128 49t117.5 131t103.5 186.5t83 218t54.5 227.5t19.5 210q0 129 -39 212t-127 83q-68 0 -133.5 -47t-124 -126t-106.5 -182.5t-83 -215t-54 -223.5t-19 -210zM909 1737q0 4 1 6t1 4v2q12 29 39 66q23 31 62 73.5t104 96.5q2 2 8 4q12 4 23 4 q18 0 42.5 -9.5t46 -23.5t37 -32.5t15.5 -35.5q0 -6 -4 -15t-24 -13q-49 -14 -103 -37q-45 -18 -100.5 -47t-108.5 -66q-2 0 -6 -2q-8 -4 -14 -4t-12.5 7.5t-6.5 21.5z" />
<glyph unicode="&#xd4;" horiz-adv-x="1292" d="M43 489q0 125 28.5 258.5t83 260.5t132.5 241.5t178 200.5t220 136t257 50q113 0 195 -42t134 -115.5t77.5 -173t25.5 -211.5q0 -125 -28.5 -259.5t-84 -262.5t-134 -243.5t-178 -202.5t-218.5 -138t-254 -51q-113 0 -194.5 43t-135 118.5t-79 175.5t-25.5 215zM365 442 q0 -135 43 -224t137 -89q66 0 128 49t117.5 131t103.5 186.5t83 218t54.5 227.5t19.5 210q0 129 -39 212t-127 83q-68 0 -133.5 -47t-124 -126t-106.5 -182.5t-83 -215t-54 -223.5t-19 -210zM651 1696q0 8 4 16l4 8q29 43 66 84q33 35 79 76t105 76q4 2 11 4q12 4 22 4 q6 0 25.5 -7t46.5 -24l2 -2q2 -2 4 -2l6 2q35 20 62.5 26.5t33.5 6.5q23 0 40.5 -22.5t29.5 -55.5t19.5 -70.5t7.5 -66.5q0 -18 -6.5 -39.5t-32.5 -30.5h-2q-4 0 -9 4q-2 2 -4 3q-41 55 -89 93t-77 54q-2 2 -8 2q-47 -16 -129 -55t-174 -94q-2 0 -6 -3q-8 -4 -14 -4 q-17 1 -17 17z" />
<glyph unicode="&#xd5;" horiz-adv-x="1292" d="M43 489q0 125 28.5 258.5t83 260.5t132.5 241.5t178 200.5t220 136t257 50q113 0 195 -42t134 -115.5t77.5 -173t25.5 -211.5q0 -125 -28.5 -259.5t-84 -262.5t-134 -243.5t-178 -202.5t-218.5 -138t-254 -51q-113 0 -194.5 43t-135 118.5t-79 175.5t-25.5 215zM365 442 q0 -135 43 -224t137 -89q66 0 128 49t117.5 131t103.5 186.5t83 218t54.5 227.5t19.5 210q0 129 -39 212t-127 83q-68 0 -133.5 -47t-124 -126t-106.5 -182.5t-83 -215t-54 -223.5t-19 -210zM657 1759q0 2 8.5 27.5t22.5 58.5t35.5 63.5t46.5 41.5q10 6 31 12q37 10 110 10 q37 0 62.5 -3t52.5 -6t57.5 -6t79.5 -3q55 0 116.5 10t106.5 39q2 0 5 2q2 2 8 2t6 -8v-8q-8 -53 -23.5 -92t-31.5 -64q-18 -29 -39 -49q-16 -18 -49 -25.5t-74 -7.5q-70 0 -112 6t-72 13l-62 12q-31 6 -80 6q-47 0 -82 -6t-57 -15q-27 -8 -45 -20q-4 -2 -10 -2t-8.5 4 t-2.5 8z" />
<glyph unicode="&#xd6;" horiz-adv-x="1292" d="M43 489q0 125 28.5 258.5t83 260.5t132.5 241.5t178 200.5t220 136t257 50q113 0 195 -42t134 -115.5t77.5 -173t25.5 -211.5q0 -125 -28.5 -259.5t-84 -262.5t-134 -243.5t-178 -202.5t-218.5 -138t-254 -51q-113 0 -194.5 43t-135 118.5t-79 175.5t-25.5 215zM365 442 q0 -135 43 -224t137 -89q66 0 128 49t117.5 131t103.5 186.5t83 218t54.5 227.5t19.5 210q0 129 -39 212t-127 83q-68 0 -133.5 -47t-124 -126t-106.5 -182.5t-83 -215t-54 -223.5t-19 -210zM662 1812q0 33 12 65t33.5 57.5t48 41t55.5 15.5q41 0 64.5 -29t23.5 -74 q0 -33 -12.5 -65.5t-34 -58t-48 -41t-54.5 -15.5q-41 0 -64.5 28.5t-23.5 75.5zM1159 1812q0 33 12.5 65t34 57.5t48 41t55.5 15.5q41 0 64.5 -29t23.5 -74q0 -33 -12.5 -65.5t-34 -58t-48 -41t-55.5 -15.5q-41 0 -64.5 28.5t-23.5 75.5z" />
<glyph unicode="&#xd7;" horiz-adv-x="1064" d="M-131 274q0 6 14 21q78 63 172 141q80 66 186.5 157t229.5 200q10 10 10 20q0 6 -19.5 49t-51 101.5t-70.5 120t-78 104.5v2q0 2 -1 2t-1 2q0 6 12 14q29 16 64 27q29 10 65.5 17.5t77.5 7.5q8 0 13 -13q18 -57 40 -110q18 -47 41 -97.5t45 -91.5q2 0 5 -2q4 -4 12 -4 q4 0 12 4q49 39 101 82q43 37 91 85t87 101q4 6 8 11q10 10 16 10q16 2 37 6q35 6 92 6q23 0 48.5 -2t54.5 -6q14 -4 14 -12q0 -6 -6 -13q-70 -47 -150 -110q-68 -53 -153.5 -128t-179.5 -169l-7 -6q-6 -6 -6 -15q0 -2 22.5 -53t57.5 -121.5t80 -145.5t90 -124l4 -4 q4 -4 4 -8q0 -6 -8 -13q-25 -12 -53 -22q-25 -10 -55.5 -17.5t-65.5 -7.5q-25 0 -53 6q-4 2 -10 7q-10 6 -13 22q-10 45 -28 98q-16 47 -42 111t-63 135q0 2 -2 4t-8 2q-8 0 -21 -10q-88 -76 -168 -147q-68 -61 -134 -128t-101 -114q-10 -14 -35.5 -19.5t-79.5 -5.5 q-35 0 -73.5 6.5t-63.5 26.5q-2 0 -4 2t-2 8z" />
<glyph unicode="&#xd8;" horiz-adv-x="1292" d="M-199 -131q0 6 4 10l5 4q59 63 130.5 144.5t149.5 177.5q-25 61 -36 134t-11 150q0 125 28.5 258.5t83 260.5t132.5 241.5t178 200.5t220 136t257 50q66 0 119 -14t98 -41q23 29 40.5 52.5t29.5 39.5q14 20 26 35l21 29q8 10 15 21t12 14q20 8 45 14q23 4 50 8t60 4 q27 0 53.5 -3t55.5 -13q4 0 8 -2q6 -2 6 -11l-92 -102q-41 -47 -92 -104.5t-105 -118.5q41 -72 61.5 -161t20.5 -189q0 -125 -28.5 -259.5t-84 -262.5t-134 -243.5t-178 -202.5t-218.5 -138t-254 -51q-88 0 -155.5 26.5t-120.5 73.5q-29 -41 -51.5 -77t-40.5 -66 q-12 -20 -38 -32t-58.5 -18t-68.5 -8t-65 -2q-47 0 -62.5 12.5t-15.5 22.5zM371 551q86 109 172 219.5t168 216t156.5 203.5t138.5 182q-41 74 -121 74q-63 0 -123 -40t-113 -106.5t-100 -156.5t-83 -189.5t-60.5 -203t-34.5 -199.5zM381 289q18 -74 58 -117t106 -43t128 49 t117.5 131t103.5 186.5t83 218t54.5 227.5t19.5 210v6q-76 -96 -162 -204.5t-173 -221.5t-172 -225.5t-163 -216.5z" />
<glyph unicode="&#xd9;" horiz-adv-x="1173" d="M0 274q0 33 11.5 86.5t29.5 114t38.5 124t39 113.5t31 82.5t14.5 34.5q61 174 97 300t54.5 212t22.5 135.5t4 67.5q0 10 -1 14.5t-1 8.5q0 10 16 16q33 10 72 19q35 6 82 11t104 5q18 0 48 -1t58 -3t48 -7t20 -16q0 6 -33.5 -61.5t-83.5 -179t-108.5 -253t-109 -284.5 t-84 -273t-33.5 -218q0 -33 7 -67t26.5 -60.5t52.5 -43t82 -16.5q16 0 47 6t67.5 31t76.5 72t73 127q80 186 147 387q29 86 56.5 181t51.5 196.5t39 205t21 203.5q0 2 2 6q4 6 11 11q31 14 71 22q35 8 86.5 14.5t116.5 6.5q53 0 115 -7q4 0 8 -2q6 -2 6 -10q0 -6 -4 -12 q-53 -70 -115 -184q-53 -98 -122.5 -259t-149.5 -401q-14 -49 -33 -102q-16 -45 -33.5 -98.5t-35.5 -106.5q-49 -141 -112 -233.5t-138.5 -145.5t-166.5 -74.5t-198 -21.5q-135 0 -213 39t-118 93t-50 109t-10 86zM786 1872q0 12 13.5 28.5t34 32t44 25.5t42.5 10 q29 0 38 -8q66 -53 106 -96t62 -74q25 -37 37 -66q2 0 2 -2v-10q0 -16 -8 -24q-4 -4 -10 -5q-6 0 -14 5q-4 2 -7 2q-53 37 -108 65.5t-100 46.5q-53 23 -103 37q-20 4 -24.5 13.5t-4.5 19.5z" />
<glyph unicode="&#xda;" horiz-adv-x="1173" d="M0 274q0 33 11.5 86.5t29.5 114t38.5 124t39 113.5t31 82.5t14.5 34.5q61 174 97 300t54.5 212t22.5 135.5t4 67.5q0 10 -1 14.5t-1 8.5q0 10 16 16q33 10 72 19q35 6 82 11t104 5q18 0 48 -1t58 -3t48 -7t20 -16q0 6 -33.5 -61.5t-83.5 -179t-108.5 -253t-109 -284.5 t-84 -273t-33.5 -218q0 -33 7 -67t26.5 -60.5t52.5 -43t82 -16.5q16 0 47 6t67.5 31t76.5 72t73 127q80 186 147 387q29 86 56.5 181t51.5 196.5t39 205t21 203.5q0 2 2 6q4 6 11 11q31 14 71 22q35 8 86.5 14.5t116.5 6.5q53 0 115 -7q4 0 8 -2q6 -2 6 -10q0 -6 -4 -12 q-53 -70 -115 -184q-53 -98 -122.5 -259t-149.5 -401q-14 -49 -33 -102q-16 -45 -33.5 -98.5t-35.5 -106.5q-49 -141 -112 -233.5t-138.5 -145.5t-166.5 -74.5t-198 -21.5q-135 0 -213 39t-118 93t-50 109t-10 86zM946 1696q0 4 1 6t1 4v2q12 29 39 66q23 31 61.5 73.5 t104.5 96.5q2 2 8 4q12 4 23 4q18 0 42.5 -9.5t46 -23.5t37 -32.5t15.5 -35.5q0 -6 -4 -15t-25 -13q-49 -14 -102 -37q-45 -18 -100.5 -47t-108.5 -66q-2 0 -6 -2q-8 -4 -14 -4t-12.5 7.5t-6.5 21.5z" />
<glyph unicode="&#xdb;" horiz-adv-x="1173" d="M0 274q0 33 11.5 86.5t29.5 114t38.5 124t39 113.5t31 82.5t14.5 34.5q61 174 97 300t54.5 212t22.5 135.5t4 67.5q0 10 -1 14.5t-1 8.5q0 10 16 16q33 10 72 19q35 6 82 11t104 5q18 0 48 -1t58 -3t48 -7t20 -16q0 6 -33.5 -61.5t-83.5 -179t-108.5 -253t-109 -284.5 t-84 -273t-33.5 -218q0 -33 7 -67t26.5 -60.5t52.5 -43t82 -16.5q16 0 47 6t67.5 31t76.5 72t73 127q80 186 147 387q29 86 56.5 181t51.5 196.5t39 205t21 203.5q0 2 2 6q4 6 11 11q31 14 71 22q35 8 86.5 14.5t116.5 6.5q53 0 115 -7q4 0 8 -2q6 -2 6 -10q0 -6 -4 -12 q-53 -70 -115 -184q-53 -98 -122.5 -259t-149.5 -401q-14 -49 -33 -102q-16 -45 -33.5 -98.5t-35.5 -106.5q-49 -141 -112 -233.5t-138.5 -145.5t-166.5 -74.5t-198 -21.5q-135 0 -213 39t-118 93t-50 109t-10 86zM684 1706q0 8 4 16l4 9q29 43 66 84q33 35 79 75.5 t105 75.5q4 2 10 4q12 4 23 4q6 0 25.5 -7t46.5 -23l2 -2q2 -2 4 -3l6 3q35 20 62.5 26t33.5 6q23 0 40 -22.5t29.5 -55t19.5 -70.5t7 -67q0 -18 -6 -39.5t-33 -29.5h-2q-4 0 -8 4q-2 2 -4 2q-41 55 -89 93t-77 54q-2 2 -8 2q-47 -16 -129 -55t-174 -94q-2 0 -6 -2 q-8 -4 -15 -4q-16 0 -16 16z" />
<glyph unicode="&#xdc;" horiz-adv-x="1173" d="M0 274q0 33 11.5 86.5t29.5 114t38.5 124t39 113.5t31 82.5t14.5 34.5q61 174 97 300t54.5 212t22.5 135.5t4 67.5q0 10 -1 14.5t-1 8.5q0 10 16 16q33 10 72 19q35 6 82 11t104 5q18 0 48 -1t58 -3t48 -7t20 -16q0 6 -33.5 -61.5t-83.5 -179t-108.5 -253t-109 -284.5 t-84 -273t-33.5 -218q0 -33 7 -67t26.5 -60.5t52.5 -43t82 -16.5q16 0 47 6t67.5 31t76.5 72t73 127q80 186 147 387q29 86 56.5 181t51.5 196.5t39 205t21 203.5q0 2 2 6q4 6 11 11q31 14 71 22q35 8 86.5 14.5t116.5 6.5q53 0 115 -7q4 0 8 -2q6 -2 6 -10q0 -6 -4 -12 q-53 -70 -115 -184q-53 -98 -122.5 -259t-149.5 -401q-14 -49 -33 -102q-16 -45 -33.5 -98.5t-35.5 -106.5q-49 -141 -112 -233.5t-138.5 -145.5t-166.5 -74.5t-198 -21.5q-135 0 -213 39t-118 93t-50 109t-10 86zM664 1804q0 33 12 65t33.5 57.5t48 40.5t55.5 15 q41 0 64.5 -28.5t23.5 -73.5q0 -33 -12 -65.5t-33.5 -58t-48.5 -41t-55 -15.5q-41 0 -64.5 28.5t-23.5 75.5zM1161 1804q0 33 12.5 65t34 57.5t48 40.5t55.5 15q41 0 64.5 -28.5t23.5 -73.5q0 -33 -12.5 -65.5t-34 -58t-48 -41t-55.5 -15.5q-41 0 -64.5 28.5t-23.5 75.5z " />
<glyph unicode="&#xdd;" horiz-adv-x="882" d="M0 -92q0 2 1 3t1 3v2q76 131 127 251t82 221t44 179t13 123q0 82 -12 174t-30.5 181.5t-40 168t-40.5 134.5q-14 47 -30.5 81.5t-28.5 57.5q-14 27 -29 45l-4 4q-6 6 -6 12t8 15q39 16 90 28q43 10 105.5 18.5t142.5 8.5h45q23 0 47 -4q4 0 8.5 -2t4.5 -8 q0 -4 -8.5 -52.5t-8.5 -146.5q0 -88 12.5 -215t51.5 -295q0 -4 2 -8q4 -8 10 -8q8 0 16 8q78 80 160 182q70 88 152 209t155 272q2 6 7 13q4 4 8 10t10 8q37 8 82 16q39 6 89 11.5t105 5.5h30q24 0 51.5 -2t49 -7.5t21.5 -13.5q0 -4 -6 -10q-164 -131 -324 -291 q-68 -68 -142.5 -149.5t-149 -174t-146.5 -193.5t-135 -212q-45 -100 -82 -203q-31 -88 -57.5 -189t-26.5 -192q0 -4 -3 -16t-18 -16q-100 -35 -179 -45.5t-130 -10.5h-36q-15 0 -25 2q-12 2 -21 5q-12 2 -12 12zM745 1696q0 4 1.5 6t1.5 4v2q12 29 38 66q23 31 62 73.5 t104 96.5q2 2 9 4q12 4 22 4q18 0 43 -9.5t46.5 -23.5t36.5 -32.5t15 -35.5q0 -6 -4 -15t-24 -13q-49 -14 -103 -37q-45 -18 -100 -47t-109 -66q-2 0 -6 -2q-8 -4 -14 -4t-12.5 7.5t-6.5 21.5z" />
<glyph unicode="&#xde;" horiz-adv-x="1173" d="M-113 -31q0 2 4 11q51 90 101.5 208.5t97.5 248.5t92 263.5t84 251.5q47 135 78 248t49.5 194t26.5 126l8 45q0 4 2 9t8 7q12 4 41 9t69 9.5t87 8.5t96 4h43q14 0 31 -2q4 0 9 -2t5 -6l-112 -256h53q125 0 216 -29t151.5 -80t89 -120.5t28.5 -149.5q0 -119 -49 -224.5 t-144.5 -184.5t-233.5 -125t-316 -46q-20 0 -54 -1t-65 -7q-2 0 -6 -2t-5 -2t-5 -2q-25 -84 -44.5 -168t-33.5 -176q0 -4 -2 -9q-4 -8 -8 -10q-86 -35 -167 -44t-137 -9h-33q-15 0 -26 2q-12 2 -20 2q-9 0 -9 8zM428 573q4 -4 8 -4q10 -2 23 -4q10 -2 24.5 -3t32.5 -1 q80 0 154.5 33t132 91t91.5 139t34 180q0 72 -41 122t-150 50q-20 0 -35.5 -1t-25.5 -4q-12 -2 -21 -6q-10 -2 -20 -12q-4 -4 -6 -8h-2q-49 -135 -102.5 -286t-96.5 -286z" />
<glyph unicode="&#xdf;" horiz-adv-x="1153" d="M-180 -250q35 68 70.5 150t70.5 172t67.5 182t63.5 178q70 203 135 412q47 129 73 228t36 175t11 127t1 84q0 23 -1 36t-3 22q-2 8 -4 14v2q0 2 -1 3t-1 3q0 14 16 18q51 12 111 21q51 8 116.5 13t139.5 5t166 -7t174 -41t138 -101.5t56 -188.5q0 -51 -20.5 -114.5 t-66.5 -122.5t-118.5 -105.5t-179.5 -62.5q-2 -2 -6 -4q-6 -2 -6 -8t8 -9q70 -20 123 -65q47 -39 85 -105.5t38 -175.5q0 -39 -11 -94t-39 -116.5t-71 -122t-107.5 -108.5t-150.5 -77.5t-198 -29.5q-37 0 -74 7t-70 23q-4 2 -10 10q-4 6 -8 16.5t-4 26.5l2 20q2 19 7 42.5 t14 42t26 18.5q6 0 12 -4t15.5 -9t23.5 -9t39 -4q51 0 105.5 31.5t99.5 90t73.5 140.5t28.5 182q0 37 -8 75t-29.5 70.5t-61.5 55t-104 26.5q-4 0 -13 3.5t-9 13.5q0 4 6 23.5t18.5 42t31 42t42.5 19.5q37 0 85 19.5t92 58.5t75 99t31 144q0 29 -7.5 61t-28 58.5t-58 44 t-97.5 17.5q-33 0 -61.5 -11.5t-46.5 -62.5q-29 -49 -64 -131q-29 -72 -68.5 -189.5t-86.5 -298.5q-53 -166 -99 -321q-18 -66 -37.5 -136.5t-36 -138t-28.5 -130t-19 -111.5q0 -12 -12 -25l-12 -12q-55 -51 -120.5 -79t-121.5 -42q-66 -16 -129 -20q-12 0 -15 7t-3 17z" />
<glyph unicode="&#xe0;" horiz-adv-x="993" d="M-20 215q0 102 33.5 182t90 140.5t128 102.5t149.5 68.5t153.5 39t139.5 14.5q10 0 15 3t9 7t4 8q16 45 17 74q0 37 -16.5 56.5t-38.5 29.5q-25 10 -58 10q-47 0 -84 -14t-63 -31q-31 -20 -51 -45q-14 -14 -27 -14q-10 0 -17.5 13t-12.5 31.5t-7 36t-2 23.5q0 18 2 36 t6 30q4 14 6 26l4 9q2 4 6.5 8t8.5 6q29 14 67 25q35 10 82 17t107 7q37 0 95 -4t112.5 -26.5t94.5 -74t40 -143.5q0 -72 -32 -164t-71 -193t-70.5 -208.5t-31.5 -210.5q0 -25 3 -45t13 -35l4 -4q2 -2 3 -10q0 -6 -3 -8q-2 -2 -4 -2q-49 -33 -100 -43.5t-88 -10.5 q-35 0 -54.5 3.5t-29.5 19.5q-8 14 -10 36.5t-2 45.5q0 29 2 49t2 25q0 12 -8 12q-2 0 -11 -4q-4 -2 -6 -4q-43 -49 -89 -77t-86 -41t-71.5 -17.5t-48.5 -4.5q-55 0 -94 21.5t-63.5 56.5t-35.5 77t-11 85zM293 322q0 -29 13 -61t61 -32q61 0 110 46.5t84 105.5t53.5 115.5 t18.5 81.5q0 12 -6 14q-4 2 -6 2q-61 0 -120 -15.5t-105 -49t-74.5 -84.5t-28.5 -123zM524 1446q0 12 13.5 28.5t34 32t44 25.5t41.5 10q29 0 39 -8q66 -53 106 -96t62 -74q25 -37 37 -66q2 0 2 -2v-10q0 -16 -8 -24q-4 -4 -10 -5q-6 0 -15 5q-4 2 -6 2q-53 37 -108.5 65.5 t-100.5 46.5q-53 23 -102 37q-20 4 -24.5 13.5t-4.5 19.5z" />
<glyph unicode="&#xe1;" horiz-adv-x="993" d="M-20 215q0 102 33.5 182t90 140.5t128 102.5t149.5 68.5t153.5 39t139.5 14.5q10 0 15 3t9 7t4 8q16 45 17 74q0 37 -16.5 56.5t-38.5 29.5q-25 10 -58 10q-47 0 -84 -14t-63 -31q-31 -20 -51 -45q-14 -14 -27 -14q-10 0 -17.5 13t-12.5 31.5t-7 36t-2 23.5q0 18 2 36 t6 30q4 14 6 26l4 9q2 4 6.5 8t8.5 6q29 14 67 25q35 10 82 17t107 7q37 0 95 -4t112.5 -26.5t94.5 -74t40 -143.5q0 -72 -32 -164t-71 -193t-70.5 -208.5t-31.5 -210.5q0 -25 3 -45t13 -35l4 -4q2 -2 3 -10q0 -6 -3 -8q-2 -2 -4 -2q-49 -33 -100 -43.5t-88 -10.5 q-35 0 -54.5 3.5t-29.5 19.5q-8 14 -10 36.5t-2 45.5q0 29 2 49t2 25q0 12 -8 12q-2 0 -11 -4q-4 -2 -6 -4q-43 -49 -89 -77t-86 -41t-71.5 -17.5t-48.5 -4.5q-55 0 -94 21.5t-63.5 56.5t-35.5 77t-11 85zM293 322q0 -29 13 -61t61 -32q61 0 110 46.5t84 105.5t53.5 115.5 t18.5 81.5q0 12 -6 14q-4 2 -6 2q-61 0 -120 -15.5t-105 -49t-74.5 -84.5t-28.5 -123zM651 1286q0 4 1 6t1 4v2q12 29 39 66q23 31 62 74t104 96q2 2 8 4q12 4 23 4q18 0 42.5 -9t46 -23.5t37 -33t15.5 -34.5q0 -6 -4 -15.5t-25 -13.5q-49 -14 -102 -37q-45 -18 -100.5 -47 t-108.5 -65q-2 0 -6 -2q-8 -4 -14 -5q-6 0 -12.5 7.5t-6.5 21.5z" />
<glyph unicode="&#xe2;" horiz-adv-x="993" d="M-20 215q0 102 33.5 182t90 140.5t128 102.5t149.5 68.5t153.5 39t139.5 14.5q10 0 15 3t9 7t4 8q16 45 17 74q0 37 -16.5 56.5t-38.5 29.5q-25 10 -58 10q-47 0 -84 -14t-63 -31q-31 -20 -51 -45q-14 -14 -27 -14q-10 0 -17.5 13t-12.5 31.5t-7 36t-2 23.5q0 18 2 36 t6 30q4 14 6 26l4 9q2 4 6.5 8t8.5 6q29 14 67 25q35 10 82 17t107 7q37 0 95 -4t112.5 -26.5t94.5 -74t40 -143.5q0 -72 -32 -164t-71 -193t-70.5 -208.5t-31.5 -210.5q0 -25 3 -45t13 -35l4 -4q2 -2 3 -10q0 -6 -3 -8q-2 -2 -4 -2q-49 -33 -100 -43.5t-88 -10.5 q-35 0 -54.5 3.5t-29.5 19.5q-8 14 -10 36.5t-2 45.5q0 29 2 49t2 25q0 12 -8 12q-2 0 -11 -4q-4 -2 -6 -4q-43 -49 -89 -77t-86 -41t-71.5 -17.5t-48.5 -4.5q-55 0 -94 21.5t-63.5 56.5t-35.5 77t-11 85zM293 322q0 -29 13 -61t61 -32q61 0 110 46.5t84 105.5t53.5 115.5 t18.5 81.5q0 12 -6 14q-4 2 -6 2q-61 0 -120 -15.5t-105 -49t-74.5 -84.5t-28.5 -123zM469 1274q0 8 4 16l4 8q29 43 66 84q33 35 79 76t105 76q4 2 10 4q12 4 23 4q6 0 25.5 -7t45.5 -24l3 -2q2 -2 4 -2l6 2q35 20 62.5 26.5t33.5 6.5q23 0 40 -22.5t29.5 -55t19.5 -70.5 t7 -67q0 -18 -6 -39.5t-33 -30.5h-2q-4 0 -8 5q-2 2 -4 2q-41 55 -89 93t-77 54q-2 2 -8 2q-47 -16 -129 -55t-174 -94q-2 0 -6 -2q-8 -4 -15 -5q-16 1 -16 17z" />
<glyph unicode="&#xe3;" horiz-adv-x="993" d="M-20 215q0 102 33.5 182t90 140.5t128 102.5t149.5 68.5t153.5 39t139.5 14.5q10 0 15 3t9 7t4 8q16 45 17 74q0 37 -16.5 56.5t-38.5 29.5q-25 10 -58 10q-47 0 -84 -14t-63 -31q-31 -20 -51 -45q-14 -14 -27 -14q-10 0 -17.5 13t-12.5 31.5t-7 36t-2 23.5q0 18 2 36 t6 30q4 14 6 26l4 9q2 4 6.5 8t8.5 6q29 14 67 25q35 10 82 17t107 7q37 0 95 -4t112.5 -26.5t94.5 -74t40 -143.5q0 -72 -32 -164t-71 -193t-70.5 -208.5t-31.5 -210.5q0 -25 3 -45t13 -35l4 -4q2 -2 3 -10q0 -6 -3 -8q-2 -2 -4 -2q-49 -33 -100 -43.5t-88 -10.5 q-35 0 -54.5 3.5t-29.5 19.5q-8 14 -10 36.5t-2 45.5q0 29 2 49t2 25q0 12 -8 12q-2 0 -11 -4q-4 -2 -6 -4q-43 -49 -89 -77t-86 -41t-71.5 -17.5t-48.5 -4.5q-55 0 -94 21.5t-63.5 56.5t-35.5 77t-11 85zM293 322q0 -29 13 -61t61 -32q61 0 110 46.5t84 105.5t53.5 115.5 t18.5 81.5q0 12 -6 14q-4 2 -6 2q-61 0 -120 -15.5t-105 -49t-74.5 -84.5t-28.5 -123zM502 1329q8 33 20 60q10 23 25.5 46t34.5 31q8 6 22 11q12 4 30.5 6t47.5 2q35 0 59.5 -3t46 -7.5t44 -7.5t55.5 -3q41 0 88 8.5t90 34.5q2 2 4 2h6q8 0 8 -10q0 -20 -11 -46 t-26.5 -50.5t-33 -44t-27.5 -27.5q-20 -16 -47 -21t-55 -5q-66 0 -125.5 16t-130.5 16q-27 0 -45.5 -2t-30.5 -6q-14 -4 -25 -8l-6 -3q-2 -1 -6 -1q-6 0 -10 6q-2 4 -2 6z" />
<glyph unicode="&#xe4;" horiz-adv-x="993" d="M-20 215q0 102 33.5 182t90 140.5t128 102.5t149.5 68.5t153.5 39t139.5 14.5q10 0 15 3t9 7t4 8q16 45 17 74q0 37 -16.5 56.5t-38.5 29.5q-25 10 -58 10q-47 0 -84 -14t-63 -31q-31 -20 -51 -45q-14 -14 -27 -14q-10 0 -17.5 13t-12.5 31.5t-7 36t-2 23.5q0 18 2 36 t6 30q4 14 6 26l4 9q2 4 6.5 8t8.5 6q29 14 67 25q35 10 82 17t107 7q37 0 95 -4t112.5 -26.5t94.5 -74t40 -143.5q0 -72 -32 -164t-71 -193t-70.5 -208.5t-31.5 -210.5q0 -25 3 -45t13 -35l4 -4q2 -2 3 -10q0 -6 -3 -8q-2 -2 -4 -2q-49 -33 -100 -43.5t-88 -10.5 q-35 0 -54.5 3.5t-29.5 19.5q-8 14 -10 36.5t-2 45.5q0 29 2 49t2 25q0 12 -8 12q-2 0 -11 -4q-4 -2 -6 -4q-43 -49 -89 -77t-86 -41t-71.5 -17.5t-48.5 -4.5q-55 0 -94 21.5t-63.5 56.5t-35.5 77t-11 85zM293 322q0 -29 13 -61t61 -32q61 0 110 46.5t84 105.5t53.5 115.5 t18.5 81.5q0 12 -6 14q-4 2 -6 2q-61 0 -120 -15.5t-105 -49t-74.5 -84.5t-28.5 -123zM416 1368q0 33 12 64.5t33.5 57.5t48.5 41t55 15q41 0 64.5 -28.5t23.5 -73.5q0 -33 -12 -65.5t-33.5 -58.5t-48.5 -41t-55 -15q-41 0 -64.5 28.5t-23.5 75.5zM913 1368q0 33 12.5 64.5 t34 57.5t48 41t55.5 15q41 0 64.5 -28.5t23.5 -73.5q0 -33 -12.5 -65.5t-34 -58.5t-48 -41t-55.5 -15q-41 0 -64.5 28.5t-23.5 75.5z" />
<glyph unicode="&#xe5;" horiz-adv-x="993" d="M-20 215q0 102 33.5 182t90 140.5t128 102.5t149.5 68.5t153.5 39t139.5 14.5q10 0 15 3t9 7t4 8q16 45 17 74q0 37 -16.5 56.5t-38.5 29.5q-25 10 -58 10q-47 0 -84 -14t-63 -31q-31 -20 -51 -45q-14 -14 -27 -14q-10 0 -17.5 13t-12.5 31.5t-7 36t-2 23.5q0 18 2 36 t6 30q4 14 6 26l4 9q2 4 6.5 8t8.5 6q29 14 67 25q35 10 82 17t107 7q37 0 95 -4t112.5 -26.5t94.5 -74t40 -143.5q0 -72 -32 -164t-71 -193t-70.5 -208.5t-31.5 -210.5q0 -25 3 -45t13 -35l4 -4q2 -2 3 -10q0 -6 -3 -8q-2 -2 -4 -2q-49 -33 -100 -43.5t-88 -10.5 q-35 0 -54.5 3.5t-29.5 19.5q-8 14 -10 36.5t-2 45.5q0 29 2 49t2 25q0 12 -8 12q-2 0 -11 -4q-4 -2 -6 -4q-43 -49 -89 -77t-86 -41t-71.5 -17.5t-48.5 -4.5q-55 0 -94 21.5t-63.5 56.5t-35.5 77t-11 85zM293 322q0 -29 13 -61t61 -32q61 0 110 46.5t84 105.5t53.5 115.5 t18.5 81.5q0 12 -6 14q-4 2 -6 2q-61 0 -120 -15.5t-105 -49t-74.5 -84.5t-28.5 -123zM662 1341q0 39 17 75t45 63.5t63.5 44t70.5 16.5q53 0 85 -32.5t32 -84.5q0 -37 -16.5 -72.5t-44 -63t-62.5 -45t-74 -17.5q-53 0 -84.5 32.5t-31.5 83.5zM750 1362q0 -25 14 -40t37 -15 q33 0 59.5 29.5t26.5 64.5q0 23 -14.5 39t-36.5 16q-33 0 -59.5 -28.5t-26.5 -65.5z" />
<glyph unicode="&#xe6;" horiz-adv-x="1503" d="M-20 215q0 102 33.5 182t90 140.5t128 102.5t149.5 68.5t153.5 39t139.5 14.5q10 0 15 3t9 7t4 8q16 45 17 74q0 37 -16.5 56.5t-38.5 29.5q-25 10 -58 10q-47 0 -84 -14t-63 -31q-31 -20 -51 -45q-14 -14 -27 -14q-10 0 -17.5 13t-12.5 31.5t-7 36t-2 23.5q0 18 2 36 t6 30q4 14 6 26l4 9q2 4 6.5 8t8.5 6q29 14 67 25q35 10 82 17t107 7q29 0 68.5 -2t82.5 -12t84 -31.5t68 -62.5q70 53 151.5 83.5t180.5 30.5q33 0 73.5 -7t77.5 -27.5t61.5 -57.5t24.5 -96q0 -27 -16.5 -97.5t-76.5 -157.5t-180 -174t-329 -147q-4 -2 -6 -4l-4 -4 q-2 -2 -2 -4q4 -72 44 -101.5t105 -29.5q25 0 62 6t81 25.5t93 56.5t94 100l8 9q8 8 19 8q4 0 19.5 -6t15.5 -39q0 -39 -28 -106.5t-88.5 -134t-153.5 -115t-222 -48.5q-82 0 -147 27q0 -4 -5 -8l-2 -2q-49 -33 -100 -43.5t-88 -10.5q-35 0 -54.5 3.5t-29.5 19.5 q-8 14 -10 36.5t-2 45.5q0 29 2 49t2 25q0 12 -8 12q-2 0 -11 -4q-4 -2 -6 -4q-43 -49 -89 -77t-86 -41t-71.5 -17.5t-48.5 -4.5q-55 0 -94 21.5t-63.5 56.5t-35.5 77t-11 85zM293 322q0 -29 13 -61t61 -32q61 0 110 46.5t84 105.5t53.5 115.5t18.5 81.5q0 12 -6 14 q-4 2 -6 2q-61 0 -120 -15.5t-105 -49t-74.5 -84.5t-28.5 -123zM895 522q0 -2 2 -6q4 -6 12 -6q66 16 125.5 60t105.5 97.5t73.5 110t27.5 94.5q0 29 -15.5 45.5t-49.5 16.5q-49 0 -97.5 -43t-87.5 -106.5t-64.5 -135.5t-31.5 -127z" />
<glyph unicode="&#xe7;" horiz-adv-x="921" d="M43 309q0 127 48 269.5t136 262.5t212 197.5t274 77.5q104 0 168.5 -38t64.5 -130q0 -53 -26.5 -111.5t-67.5 -106.5t-91 -78.5t-97 -30.5q-16 0 -27.5 7t-11.5 25q0 8 7 23.5t17 36.5q16 25 27 49q10 23 17 49.5t7 52.5q0 33 -12 53.5t-55 20.5q-39 0 -93.5 -41 t-103.5 -114.5t-84 -178t-35 -233.5q2 -47 19 -84q14 -33 43 -59.5t82 -26.5q25 0 57.5 7t72.5 29.5t86 64.5t93 114q2 4 6 8q8 8 19 8q2 0 9 -2t15 -8t15.5 -16.5t7.5 -26.5q0 -18 -24.5 -83t-81 -137.5t-146.5 -132t-219 -67.5q-14 -8 -27.5 -29.5t-13.5 -38.5q0 -6 4 -8 q23 -8 39 -22q14 -12 25.5 -30.5t11.5 -47.5q0 -45 -19.5 -72.5t-45.5 -43t-51.5 -20.5t-39.5 -5q-35 0 -59 14l-21 14q-6 6 -6 17q0 10 8 30l8 17q4 6 9 6q2 0 4 -2l2 -2q8 -14 22.5 -18.5t18.5 -4.5q23 0 35 8.5t18 18.5q8 12 10 27q0 41 -30.5 50t-57.5 9q-8 0 -8 10 q0 2 1 3t1 3v4q6 18 17.5 37t21.5 34t18 24.5t8 11.5q0 10 -8 12q-57 12 -100 43t-69.5 76t-40 103.5t-13.5 121.5z" />
<glyph unicode="&#xe8;" horiz-adv-x="937" d="M41 319q0 70 18.5 156t54.5 175t90 173t128 150.5t166 106.5t202 40q33 0 74 -7t78 -27.5t61.5 -57.5t24.5 -96q0 -27 -16.5 -97.5t-77 -157.5t-180 -174t-328.5 -147q-4 -2 -6 -4l-4 -4q-2 -2 -2 -4q4 -72 44 -101.5t105 -29.5q25 0 61.5 6t80.5 25.5t93.5 56.5 t94.5 100l8 9q8 8 18 8q4 0 19.5 -6t15.5 -39q0 -39 -27.5 -106.5t-88 -134t-153.5 -115t-222 -48.5q-63 0 -124 17.5t-107 58.5t-73.5 108.5t-27.5 165.5zM330 522q0 -2 2 -6q4 -6 12 -6q66 16 125 60t105.5 97.5t74 110t27.5 94.5q0 29 -15.5 45.5t-50.5 16.5 q-49 0 -97 -43t-87 -106.5t-64.5 -135.5t-31.5 -127zM487 1446q0 12 13.5 28.5t34 32t44 25.5t42.5 10q29 0 38 -8q66 -53 106 -96t62 -74q25 -37 37 -66q2 0 2 -2v-10q0 -16 -8 -24q-4 -4 -10 -5q-6 0 -14 5q-4 2 -7 2q-53 37 -108 65.5t-101 46.5q-53 23 -102 37 q-20 4 -24.5 13.5t-4.5 19.5z" />
<glyph unicode="&#xe9;" horiz-adv-x="937" d="M41 319q0 70 18.5 156t54.5 175t90 173t128 150.5t166 106.5t202 40q33 0 74 -7t78 -27.5t61.5 -57.5t24.5 -96q0 -27 -16.5 -97.5t-77 -157.5t-180 -174t-328.5 -147q-4 -2 -6 -4l-4 -4q-2 -2 -2 -4q4 -72 44 -101.5t105 -29.5q25 0 61.5 6t80.5 25.5t93.5 56.5 t94.5 100l8 9q8 8 18 8q4 0 19.5 -6t15.5 -39q0 -39 -27.5 -106.5t-88 -134t-153.5 -115t-222 -48.5q-63 0 -124 17.5t-107 58.5t-73.5 108.5t-27.5 165.5zM330 522q0 -2 2 -6q4 -6 12 -6q66 16 125 60t105.5 97.5t74 110t27.5 94.5q0 29 -15.5 45.5t-50.5 16.5 q-49 0 -97 -43t-87 -106.5t-64.5 -135.5t-31.5 -127zM608 1286q0 4 1 6t1 4v2q12 29 39 66q23 31 62 74t104 96q2 2 8 4q12 4 23 4q18 0 42.5 -9t46 -23.5t37 -33t15.5 -34.5q0 -6 -4 -15.5t-25 -13.5q-49 -14 -102 -37q-45 -18 -100.5 -47t-108.5 -65q-2 0 -6 -2 q-8 -4 -14 -5q-6 0 -12.5 7.5t-6.5 21.5z" />
<glyph unicode="&#xea;" horiz-adv-x="937" d="M41 319q0 70 18.5 156t54.5 175t90 173t128 150.5t166 106.5t202 40q33 0 74 -7t78 -27.5t61.5 -57.5t24.5 -96q0 -27 -16.5 -97.5t-77 -157.5t-180 -174t-328.5 -147q-4 -2 -6 -4l-4 -4q-2 -2 -2 -4q4 -72 44 -101.5t105 -29.5q25 0 61.5 6t80.5 25.5t93.5 56.5 t94.5 100l8 9q8 8 18 8q4 0 19.5 -6t15.5 -39q0 -39 -27.5 -106.5t-88 -134t-153.5 -115t-222 -48.5q-63 0 -124 17.5t-107 58.5t-73.5 108.5t-27.5 165.5zM330 522q0 -2 2 -6q4 -6 12 -6q66 16 125 60t105.5 97.5t74 110t27.5 94.5q0 29 -15.5 45.5t-50.5 16.5 q-49 0 -97 -43t-87 -106.5t-64.5 -135.5t-31.5 -127zM420 1274q0 8 4 16l4 8q29 43 66 84q33 35 78.5 76t105.5 76q4 2 10 4q12 4 23 4q6 0 25.5 -7t45.5 -24l2 -2q2 -2 4 -2l7 2q35 20 62.5 26.5t33.5 6.5q23 0 40 -22.5t29.5 -55t19.5 -70.5t7 -67q0 -18 -6 -39.5 t-33 -30.5h-2q-4 0 -8 5q-2 2 -4 2q-41 55 -89 93t-77 54q-2 2 -8 2q-47 -16 -129 -55t-174 -94q-2 0 -6 -2q-8 -4 -15 -5q-16 1 -16 17z" />
<glyph unicode="&#xeb;" horiz-adv-x="937" d="M41 319q0 70 18.5 156t54.5 175t90 173t128 150.5t166 106.5t202 40q33 0 74 -7t78 -27.5t61.5 -57.5t24.5 -96q0 -27 -16.5 -97.5t-77 -157.5t-180 -174t-328.5 -147q-4 -2 -6 -4l-4 -4q-2 -2 -2 -4q4 -72 44 -101.5t105 -29.5q25 0 61.5 6t80.5 25.5t93.5 56.5 t94.5 100l8 9q8 8 18 8q4 0 19.5 -6t15.5 -39q0 -39 -27.5 -106.5t-88 -134t-153.5 -115t-222 -48.5q-63 0 -124 17.5t-107 58.5t-73.5 108.5t-27.5 165.5zM330 522q0 -2 2 -6q4 -6 12 -6q66 16 125 60t105.5 97.5t74 110t27.5 94.5q0 29 -15.5 45.5t-50.5 16.5 q-49 0 -97 -43t-87 -106.5t-64.5 -135.5t-31.5 -127zM365 1368q0 33 12 64.5t33.5 57.5t48 41t55.5 15q41 0 64.5 -28.5t23.5 -73.5q0 -33 -12 -65.5t-33.5 -58.5t-48.5 -41t-55 -15q-41 0 -64.5 28.5t-23.5 75.5zM862 1368q0 33 12.5 64.5t34 57.5t48 41t55.5 15 q41 0 64.5 -28.5t23.5 -73.5q0 -33 -12.5 -65.5t-34 -58.5t-48 -41t-55.5 -15q-41 0 -64.5 28.5t-23.5 75.5z" />
<glyph unicode="&#xec;" d="M-82 -29q0 2 2 2q45 68 92 176.5t91 229.5t81 239.5t62 210.5q12 45 19 77t11 55q6 25 7 43q0 4 4 8l7 7q3 3 9 5q25 8 55 16q27 6 62 11.5t74 5.5q29 0 53 -3t53 -7q2 0 4 -3q4 -4 4 -8q0 -6 -6 -18q-12 -23 -29 -55q-14 -29 -30.5 -67t-34.5 -85q-29 -78 -64.5 -177 t-66.5 -201.5t-52.5 -201t-21.5 -174.5v-30q0 -12 -6 -19q-4 -4 -8 -4q-92 -35 -174 -45t-131 -10q-29 0 -47.5 2t-18.5 12v8zM283 1446q0 12 13 28.5t33.5 32t44 25.5t42.5 10q29 0 39 -8q66 -53 105.5 -96t62.5 -74q25 -37 36 -66q2 0 3 -2v-10q0 -16 -9 -24q-4 -4 -10 -5 q-6 0 -14 5q-4 2 -6 2q-53 37 -108.5 65.5t-100.5 46.5q-53 23 -103 37q-20 4 -24 13.5t-4 19.5z" />
<glyph unicode="&#xed;" d="M-82 -29q0 2 2 2q45 68 92 176.5t91 229.5t81 239.5t62 210.5q12 45 19 77t11 55q6 25 7 43q0 4 4 8l7 7q3 3 9 5q25 8 55 16q27 6 62 11.5t74 5.5q29 0 53 -3t53 -7q2 0 4 -3q4 -4 4 -8q0 -6 -6 -18q-12 -23 -29 -55q-14 -29 -30.5 -67t-34.5 -85q-29 -78 -64.5 -177 t-66.5 -201.5t-52.5 -201t-21.5 -174.5v-30q0 -12 -6 -19q-4 -4 -8 -4q-92 -35 -174 -45t-131 -10q-29 0 -47.5 2t-18.5 12v8zM487 1286q0 4 1 6t1 4v2q12 29 39 66q23 31 62 74t104 96q2 2 8 4q12 4 23 4q18 0 43 -9t46.5 -23.5t36.5 -33t15 -34.5q0 -6 -4 -15.5t-24 -13.5 q-49 -14 -103 -37q-45 -18 -100 -47t-109 -65q-2 0 -6 -2q-8 -4 -14 -5q-6 0 -12.5 7.5t-6.5 21.5z" />
<glyph unicode="&#xee;" d="M-82 -29q0 2 2 2q45 68 92 176.5t91 229.5t81 239.5t62 210.5q12 45 19 77t11 55q6 25 7 43q0 4 4 8l7 7q3 3 9 5q25 8 55 16q27 6 62 11.5t74 5.5q29 0 53 -3t53 -7q2 0 4 -3q4 -4 4 -8q0 -6 -6 -18q-12 -23 -29 -55q-14 -29 -30.5 -67t-34.5 -85q-29 -78 -64.5 -177 t-66.5 -201.5t-52.5 -201t-21.5 -174.5v-30q0 -12 -6 -19q-4 -4 -8 -4q-92 -35 -174 -45t-131 -10q-29 0 -47.5 2t-18.5 12v8zM264 1274q0 8 4 16l4 8q29 43 66 84q33 35 79 76t105 76q4 2 10 4q12 4 23 4q6 0 25.5 -7t46.5 -24l2 -2q2 -2 4 -2l6 2q35 20 62.5 26.5 t33.5 6.5q23 0 40.5 -22.5t29.5 -55t19 -70.5t7 -67q0 -18 -6 -39.5t-32 -30.5h-2q-4 0 -9 5q-2 2 -4 2q-41 55 -89 93t-77 54q-2 2 -8 2q-47 -16 -129 -55t-174 -94q-2 0 -6 -2q-8 -4 -14 -5q-17 1 -17 17z" />
<glyph unicode="&#xef;" d="M-82 -29q0 2 2 2q45 68 92 176.5t91 229.5t81 239.5t62 210.5q12 45 19 77t11 55q6 25 7 43q0 4 4 8l7 7q3 3 9 5q25 8 55 16q27 6 62 11.5t74 5.5q29 0 53 -3t53 -7q2 0 4 -3q4 -4 4 -8q0 -6 -6 -18q-12 -23 -29 -55q-14 -29 -30.5 -67t-34.5 -85q-29 -78 -64.5 -177 t-66.5 -201.5t-52.5 -201t-21.5 -174.5v-30q0 -12 -6 -19q-4 -4 -8 -4q-92 -35 -174 -45t-131 -10q-29 0 -47.5 2t-18.5 12v8zM203 1368q0 33 12 64.5t33.5 57.5t48.5 41t55 15q41 0 64.5 -28.5t23.5 -73.5q0 -33 -12 -65.5t-33.5 -58.5t-48.5 -41t-55 -15q-41 0 -64.5 28.5 t-23.5 75.5zM700 1368q0 33 12.5 64.5t34 57.5t48 41t55.5 15q41 0 64.5 -28.5t23.5 -73.5q0 -33 -12.5 -65.5t-34 -58.5t-48 -41t-55.5 -15q-41 0 -64.5 28.5t-23.5 75.5z" />
<glyph unicode="&#xf0;" horiz-adv-x="1038" d="M31 215q0 59 16 148.5t52 187.5t90.5 195.5t130 175t173 127t218.5 49.5q25 0 50 -5.5t48 -17.5h2q2 0 3 -1t3 -1q12 0 17 17q10 25 20 53q10 25 21.5 58.5t23.5 74.5q-119 -4 -200 -11.5t-83 -9.5q-6 0 -6 7q12 33 28.5 54t31.5 38q16 18 32 28q2 0 5 2q2 2 8 2 q4 0 60 -5t155 -5q16 55 29.5 111.5t19.5 107.5q0 4 2 10.5t10 10.5q33 18 74 33q35 12 84 21t108 9h28q13 0 30 -2q10 -2 10 -10q0 -4 -4 -12q-14 -37 -35 -80q-16 -37 -38.5 -87t-47.5 -108q53 2 102.5 5.5t100.5 9.5q6 0 6 -4q0 -10 -11.5 -30t-27.5 -38q-18 -23 -41 -45 q-4 -4 -6 -4t-6 -2t-8 -2q-10 0 -48 2t-104 4q-39 -94 -73.5 -185.5t-57.5 -158.5q-27 -84 -61.5 -200t-66.5 -237.5t-53.5 -233t-21.5 -187.5v-31q0 -14 4 -27q2 0 2 -2v-8q0 -18 -33.5 -32.5t-76.5 -23.5t-85 -14.5t-61 -5.5h-28q-6 0 -10 2q-14 0 -19 15q-2 6 -2 12 q2 76 16.5 135.5t14.5 71.5q0 8 -4 8t-17 -8q-6 -4 -10 -10q-57 -66 -112.5 -102t-99.5 -53t-73.5 -21.5t-38.5 -4.5q-49 0 -79.5 21.5t-49 56.5t-24.5 77t-6 85zM340 362q0 -41 12.5 -69.5t46.5 -30.5q45 4 93 35q41 27 85 81t85 154q33 94 55 173q10 33 19 64.5t17.5 58 t12.5 44t4 21.5q0 20 -10 31.5t-25 15.5q-16 6 -35 6q-43 0 -105.5 -49t-118.5 -130t-96 -186.5t-40 -218.5z" />
<glyph unicode="&#xf1;" horiz-adv-x="1054" d="M-123 -20q0 2 2 2q55 80 109.5 194.5t100.5 239.5t83 245.5t57 215.5q18 78 23.5 127t5.5 73q0 16 -1 22.5t-1 10.5t3 9t13 9q33 16 70 27q33 10 77 17.5t95 7.5q27 0 43 -2t16 -19q0 -4 -8 -53t-28 -115q0 -2 2 -6q4 -8 10 -8q8 0 18 10q25 23 63 48.5t82 46t92 33.5 t93 13q18 0 49 -6t59.5 -25.5t49 -59.5t20.5 -107q0 -88 -32.5 -186.5t-72.5 -203t-74 -212t-34 -213.5q0 -53 17 -92q2 0 4 -5q2 -4 2 -12q0 -12 -25.5 -25.5t-65.5 -24.5t-88.5 -19.5t-93.5 -8.5q-27 0 -38 3t-15 16q-2 10 -2 37q0 68 17.5 146.5t45 159.5t58.5 160.5 t58.5 149.5t45 126t17.5 89q0 29 -10.5 45.5t-24.5 24.5t-28.5 9t-20.5 1q-68 0 -129.5 -56.5t-112.5 -142.5t-92 -190.5t-70.5 -200.5t-47 -171t-21.5 -103q-2 -18 -34 -32.5t-75 -24t-89 -13.5t-77 -4q-41 0 -65.5 3t-24.5 13v7zM541 1329q8 33 20 60q10 23 25.5 46 t34.5 31q8 6 22 11q12 4 30.5 6t47.5 2q35 0 59.5 -3t46 -7.5t44 -7.5t55.5 -3q41 0 88 8.5t90 34.5q2 2 4 2h6q8 0 8 -10q0 -20 -11 -46t-26.5 -50.5t-33 -44t-27.5 -27.5q-20 -16 -47 -21t-55 -5q-66 0 -125.5 16t-130.5 16q-27 0 -45.5 -2t-30.5 -6q-14 -4 -25 -8l-6 -3 q-2 -1 -6 -1q-6 0 -10 6q-2 4 -2 6z" />
<glyph unicode="&#xf2;" horiz-adv-x="1048" d="M41 356q0 127 48 263.5t134 249t207 185t268 72.5q90 0 156 -32.5t109 -88t63.5 -130t20.5 -158.5q0 -127 -44.5 -261t-126 -245t-199.5 -182.5t-265 -71.5q-98 0 -168 31.5t-115 86t-66.5 127t-21.5 154.5zM322 336q0 -92 30.5 -152.5t100.5 -60.5q63 0 121.5 64.5 t102.5 159.5t70.5 206t26.5 203t-28.5 150.5t-94.5 58.5q-63 0 -123.5 -63.5t-105.5 -158t-72.5 -204t-27.5 -203.5zM524 1446q0 12 13.5 28.5t34 32t44 25.5t41.5 10q29 0 39 -8q66 -53 106 -96t62 -74q25 -37 37 -66q2 0 2 -2v-10q0 -16 -8 -24q-4 -4 -10 -5q-6 0 -15 5 q-4 2 -6 2q-53 37 -108.5 65.5t-100.5 46.5q-53 23 -102 37q-20 4 -24.5 13.5t-4.5 19.5z" />
<glyph unicode="&#xf3;" horiz-adv-x="1048" d="M41 356q0 127 48 263.5t134 249t207 185t268 72.5q90 0 156 -32.5t109 -88t63.5 -130t20.5 -158.5q0 -127 -44.5 -261t-126 -245t-199.5 -182.5t-265 -71.5q-98 0 -168 31.5t-115 86t-66.5 127t-21.5 154.5zM322 336q0 -92 30.5 -152.5t100.5 -60.5q63 0 121.5 64.5 t102.5 159.5t70.5 206t26.5 203t-28.5 150.5t-94.5 58.5q-63 0 -123.5 -63.5t-105.5 -158t-72.5 -204t-27.5 -203.5zM674 1286q0 4 1 6t1 4v2q12 29 39 66q23 31 61.5 74t104.5 96q2 2 8 4q12 4 22 4q18 0 43 -9t46.5 -23.5t37 -33t15.5 -34.5q0 -6 -4.5 -15.5t-24.5 -13.5 q-49 -14 -102 -37q-45 -18 -100.5 -47t-108.5 -65q-2 0 -6 -2q-8 -4 -15 -5q-6 0 -12 7.5t-6 21.5z" />
<glyph unicode="&#xf4;" horiz-adv-x="1048" d="M41 356q0 127 48 263.5t134 249t207 185t268 72.5q90 0 156 -32.5t109 -88t63.5 -130t20.5 -158.5q0 -127 -44.5 -261t-126 -245t-199.5 -182.5t-265 -71.5q-98 0 -168 31.5t-115 86t-66.5 127t-21.5 154.5zM322 336q0 -92 30.5 -152.5t100.5 -60.5q63 0 121.5 64.5 t102.5 159.5t70.5 206t26.5 203t-28.5 150.5t-94.5 58.5q-63 0 -123.5 -63.5t-105.5 -158t-72.5 -204t-27.5 -203.5zM432 1274q0 8 4 16l4 8q29 43 66 84q33 35 79 76t105 76q4 2 10 4q12 4 23 4q6 0 25.5 -7t46.5 -24l2 -2q2 -2 4 -2l6 2q35 20 62.5 26.5t33.5 6.5 q23 0 40.5 -22.5t29.5 -55t19 -70.5t7 -67q0 -18 -6 -39.5t-32 -30.5h-3q-4 0 -8 5q-2 2 -4 2q-41 55 -89 93t-77 54q-2 2 -8 2q-47 -16 -129 -55t-174 -94q-2 0 -6 -2q-8 -4 -14 -5q-17 1 -17 17z" />
<glyph unicode="&#xf5;" horiz-adv-x="1048" d="M41 356q0 127 48 263.5t134 249t207 185t268 72.5q90 0 156 -32.5t109 -88t63.5 -130t20.5 -158.5q0 -127 -44.5 -261t-126 -245t-199.5 -182.5t-265 -71.5q-98 0 -168 31.5t-115 86t-66.5 127t-21.5 154.5zM322 336q0 -92 30.5 -152.5t100.5 -60.5q63 0 121.5 64.5 t102.5 159.5t70.5 206t26.5 203t-28.5 150.5t-94.5 58.5q-63 0 -123.5 -63.5t-105.5 -158t-72.5 -204t-27.5 -203.5zM481 1329q8 33 21 60q10 23 25.5 46t33.5 31q8 6 23 11q12 4 30.5 6t47.5 2q35 0 59 -3t45.5 -7.5t44.5 -7.5t55 -3q41 0 88 8.5t90 34.5q2 2 5 2h6 q8 0 8 -10q0 -20 -11.5 -46t-26.5 -50.5t-32.5 -44t-27.5 -27.5q-20 -16 -47 -21t-56 -5q-66 0 -125 16t-131 16q-27 0 -45 -2t-31 -6q-14 -4 -24 -8l-6 -3q-2 -1 -6 -1q-6 0 -11 6q-2 4 -2 6z" />
<glyph unicode="&#xf6;" horiz-adv-x="1048" d="M41 356q0 127 48 263.5t134 249t207 185t268 72.5q90 0 156 -32.5t109 -88t63.5 -130t20.5 -158.5q0 -127 -44.5 -261t-126 -245t-199.5 -182.5t-265 -71.5q-98 0 -168 31.5t-115 86t-66.5 127t-21.5 154.5zM322 336q0 -92 30.5 -152.5t100.5 -60.5q63 0 121.5 64.5 t102.5 159.5t70.5 206t26.5 203t-28.5 150.5t-94.5 58.5q-63 0 -123.5 -63.5t-105.5 -158t-72.5 -204t-27.5 -203.5zM416 1368q0 33 12 64.5t33.5 57.5t48.5 41t55 15q41 0 64.5 -28.5t23.5 -73.5q0 -33 -12 -65.5t-33.5 -58.5t-48.5 -41t-55 -15q-41 0 -64.5 28.5 t-23.5 75.5zM913 1368q0 33 12.5 64.5t34 57.5t48 41t55.5 15q41 0 64.5 -28.5t23.5 -73.5q0 -33 -12.5 -65.5t-34 -58.5t-48 -41t-55.5 -15q-41 0 -64.5 28.5t-23.5 75.5z" />
<glyph unicode="&#xf7;" horiz-adv-x="1220" d="M61 725q0 4 11.5 30.5t30 57.5t44 55.5t54.5 24.5q8 0 14 -2q12 -4 58 -8t101.5 -6.5t110 -3.5t82.5 -1q150 0 313.5 6.5t297.5 16.5q6 0 13 -2t7 -10q0 -2 -6 -18.5t-18.5 -39t-31 -50t-42.5 -52.5q-4 0 -10 -2t-31 -2q-86 4 -162 4h-147q-313 0 -478.5 -13.5 t-171.5 -13.5q-27 0 -34 15q-5 8 -5 14zM401 377q0 35 12.5 66.5t33 58t47 42t55.5 15.5q41 0 65.5 -29.5t24.5 -76.5q0 -39 -14.5 -72t-36 -56.5t-48 -37t-51.5 -13.5q-41 0 -64.5 30t-23.5 73zM651 1151q0 35 12.5 66.5t33 58.5t47 42t55.5 15q41 0 65.5 -29.5t24.5 -76.5 q0 -39 -14.5 -72t-36 -56.5t-48 -36.5t-51.5 -13q-41 0 -64.5 29.5t-23.5 72.5z" />
<glyph unicode="&#xf8;" horiz-adv-x="1048" d="M-92 -117q0 6 2 8t4 3q41 43 88 97t100 118q-33 51 -47 114.5t-14 132.5q0 127 48 263.5t134 249t207 185t268 72.5q94 0 168 -39q31 41 55.5 73t41.5 54q20 27 34 48q8 12 17 22q6 10 12 17.5t8 9.5q16 6 35 10q16 4 36.5 6t45.5 2q18 0 38.5 -2t41.5 -10q2 0 6 -2 q6 -2 6 -6q-45 -51 -94 -105q-41 -47 -89 -100t-93 -105q41 -55 60.5 -127.5t19.5 -154.5q0 -127 -44.5 -261t-126 -245t-199.5 -182.5t-265 -71.5q-121 0 -207 51q-39 -57 -66 -106q-8 -16 -28.5 -24.5t-45 -13.5t-51 -6t-49.5 -1q-35 0 -46 9t-11 17zM322 379 q111 139 217 277.5t198 258.5q-29 49 -86 50q-61 0 -117.5 -56.5t-101.5 -143.5t-74.5 -190.5t-35.5 -195.5zM342 203q16 -37 43 -58.5t68 -21.5q63 0 121.5 64.5t102.5 159.5t70.5 206t26.5 203v20q-104 -135 -219 -285.5t-213 -287.5z" />
<glyph unicode="&#xf9;" horiz-adv-x="1056" d="M20 166q0 49 18.5 122.5t46.5 160t60.5 177.5t60 177t46 158.5t18.5 121.5q4 10 11.5 16.5t29.5 16.5q53 23 105.5 29t95.5 6q47 0 74.5 -3t27.5 -13q0 -6 -2 -9q-29 -39 -60.5 -109.5t-59.5 -142.5q-33 -82 -66 -174q-49 -111 -71.5 -181t-30 -113.5t-6.5 -66t1 -40.5 q0 -39 10.5 -59.5t23 -30.5t24.5 -12t16 -2q66 0 115 48t80 105q66 117 110.5 241t73.5 228q35 121 55 236q2 10 4.5 14t6.5 8t8 4q61 25 116.5 34t96.5 9q49 0 76 -6q16 -4 28 -6q16 -6 17 -16v-4q0 -2 -2 -3q-57 -82 -108.5 -196.5t-92.5 -236.5t-73 -237.5t-52 -201.5 q-14 -61 -19.5 -106.5t-5.5 -73.5q0 -31 3.5 -44.5t3.5 -17.5q0 -8 -17 -18q-35 -14 -72 -25q-33 -10 -75.5 -17t-94.5 -7q-41 0 -53 3t-14 19q2 23 8 49q4 23 12.5 52.5t18.5 64.5q0 4 -2 8q-2 6 -10 7q-4 0 -21 -13q-20 -18 -50 -41.5t-69 -45t-87 -36t-103 -14.5 q-33 0 -67 12.5t-59.5 38t-42 64.5t-16.5 92zM504 1446q0 12 13 28.5t33.5 32t44 25.5t42.5 10q29 0 39 -8q66 -53 105.5 -96t62.5 -74q25 -37 37 -66q2 0 2 -2v-10q0 -16 -9 -24q-4 -4 -10 -5q-6 0 -14 5q-4 2 -6 2q-53 37 -108.5 65.5t-100.5 46.5q-53 23 -103 37 q-20 4 -24 13.5t-4 19.5z" />
<glyph unicode="&#xfa;" horiz-adv-x="1056" d="M20 166q0 49 18.5 122.5t46.5 160t60.5 177.5t60 177t46 158.5t18.5 121.5q4 10 11.5 16.5t29.5 16.5q53 23 105.5 29t95.5 6q47 0 74.5 -3t27.5 -13q0 -6 -2 -9q-29 -39 -60.5 -109.5t-59.5 -142.5q-33 -82 -66 -174q-49 -111 -71.5 -181t-30 -113.5t-6.5 -66t1 -40.5 q0 -39 10.5 -59.5t23 -30.5t24.5 -12t16 -2q66 0 115 48t80 105q66 117 110.5 241t73.5 228q35 121 55 236q2 10 4.5 14t6.5 8t8 4q61 25 116.5 34t96.5 9q49 0 76 -6q16 -4 28 -6q16 -6 17 -16v-4q0 -2 -2 -3q-57 -82 -108.5 -196.5t-92.5 -236.5t-73 -237.5t-52 -201.5 q-14 -61 -19.5 -106.5t-5.5 -73.5q0 -31 3.5 -44.5t3.5 -17.5q0 -8 -17 -18q-35 -14 -72 -25q-33 -10 -75.5 -17t-94.5 -7q-41 0 -53 3t-14 19q2 23 8 49q4 23 12.5 52.5t18.5 64.5q0 4 -2 8q-2 6 -10 7q-4 0 -21 -13q-20 -18 -50 -41.5t-69 -45t-87 -36t-103 -14.5 q-33 0 -67 12.5t-59.5 38t-42 64.5t-16.5 92zM723 1286q0 4 1 6t1 4v2q12 29 39 66q23 31 61.5 74t104.5 96q2 2 8 4q12 4 23 4q18 0 42.5 -9t46 -23.5t37 -33t15.5 -34.5q0 -6 -4 -15.5t-25 -13.5q-49 -14 -102 -37q-45 -18 -100.5 -47t-108.5 -65q-2 0 -6 -2q-8 -4 -15 -5 q-6 0 -12 7.5t-6 21.5z" />
<glyph unicode="&#xfb;" horiz-adv-x="1056" d="M20 166q0 49 18.5 122.5t46.5 160t60.5 177.5t60 177t46 158.5t18.5 121.5q4 10 11.5 16.5t29.5 16.5q53 23 105.5 29t95.5 6q47 0 74.5 -3t27.5 -13q0 -6 -2 -9q-29 -39 -60.5 -109.5t-59.5 -142.5q-33 -82 -66 -174q-49 -111 -71.5 -181t-30 -113.5t-6.5 -66t1 -40.5 q0 -39 10.5 -59.5t23 -30.5t24.5 -12t16 -2q66 0 115 48t80 105q66 117 110.5 241t73.5 228q35 121 55 236q2 10 4.5 14t6.5 8t8 4q61 25 116.5 34t96.5 9q49 0 76 -6q16 -4 28 -6q16 -6 17 -16v-4q0 -2 -2 -3q-57 -82 -108.5 -196.5t-92.5 -236.5t-73 -237.5t-52 -201.5 q-14 -61 -19.5 -106.5t-5.5 -73.5q0 -31 3.5 -44.5t3.5 -17.5q0 -8 -17 -18q-35 -14 -72 -25q-33 -10 -75.5 -17t-94.5 -7q-41 0 -53 3t-14 19q2 23 8 49q4 23 12.5 52.5t18.5 64.5q0 4 -2 8q-2 6 -10 7q-4 0 -21 -13q-20 -18 -50 -41.5t-69 -45t-87 -36t-103 -14.5 q-33 0 -67 12.5t-59.5 38t-42 64.5t-16.5 92zM469 1274q0 8 4 16l4 8q29 43 66 84q33 35 79 76t105 76q4 2 10 4q12 4 23 4q6 0 25.5 -7t45.5 -24l3 -2q2 -2 4 -2l6 2q35 20 62.5 26.5t33.5 6.5q23 0 40 -22.5t29.5 -55t19.5 -70.5t7 -67q0 -18 -6 -39.5t-33 -30.5h-2 q-4 0 -8 5q-2 2 -4 2q-41 55 -89 93t-77 54q-2 2 -8 2q-47 -16 -129 -55t-174 -94q-2 0 -6 -2q-8 -4 -15 -5q-16 1 -16 17z" />
<glyph unicode="&#xfc;" horiz-adv-x="1056" d="M20 166q0 49 18.5 122.5t46.5 160t60.5 177.5t60 177t46 158.5t18.5 121.5q4 10 11.5 16.5t29.5 16.5q53 23 105.5 29t95.5 6q47 0 74.5 -3t27.5 -13q0 -6 -2 -9q-29 -39 -60.5 -109.5t-59.5 -142.5q-33 -82 -66 -174q-49 -111 -71.5 -181t-30 -113.5t-6.5 -66t1 -40.5 q0 -39 10.5 -59.5t23 -30.5t24.5 -12t16 -2q66 0 115 48t80 105q66 117 110.5 241t73.5 228q35 121 55 236q2 10 4.5 14t6.5 8t8 4q61 25 116.5 34t96.5 9q49 0 76 -6q16 -4 28 -6q16 -6 17 -16v-4q0 -2 -2 -3q-57 -82 -108.5 -196.5t-92.5 -236.5t-73 -237.5t-52 -201.5 q-14 -61 -19.5 -106.5t-5.5 -73.5q0 -31 3.5 -44.5t3.5 -17.5q0 -8 -17 -18q-35 -14 -72 -25q-33 -10 -75.5 -17t-94.5 -7q-41 0 -53 3t-14 19q2 23 8 49q4 23 12.5 52.5t18.5 64.5q0 4 -2 8q-2 6 -10 7q-4 0 -21 -13q-20 -18 -50 -41.5t-69 -45t-87 -36t-103 -14.5 q-33 0 -67 12.5t-59.5 38t-42 64.5t-16.5 92zM457 1368q0 33 12 64.5t33.5 57.5t48.5 41t55 15q41 0 64.5 -28.5t23.5 -73.5q0 -33 -12 -65.5t-33.5 -58.5t-48.5 -41t-55 -15q-41 0 -64.5 28.5t-23.5 75.5zM954 1368q0 33 12.5 64.5t34 57.5t48 41t55.5 15q41 0 64.5 -28.5 t23.5 -73.5q0 -33 -12.5 -65.5t-34 -58.5t-48 -41t-55.5 -15q-41 0 -64.5 28.5t-23.5 75.5z" />
<glyph unicode="&#xfd;" horiz-adv-x="983" d="M-449 -584q0 12 11 19q6 4 10 4q96 45 173 95t135.5 102.5t101.5 102.5t71 97q68 109 92 217q23 170 31 305.5t8 241.5q0 127 -9 214t-19 142q-12 66 -29 103l-2 2q-2 2 -2 8q0 8 10 12q37 16 90 29q45 10 112.5 18.5t156.5 8.5q4 0 7 -1t3 -12q0 -2 -10.5 -33.5 t-22.5 -108.5t-23.5 -209t-13.5 -337l4 -16q4 -16 15 -17q8 0 26 21q74 90 144 197q59 92 127.5 211.5t119.5 254.5q0 4 4 11q8 12 21 14q33 8 72 16q35 6 80 10.5t100 4.5t117 -6q4 0 8 -2q6 -2 6 -9q0 -6 -10 -16q-33 -31 -82 -82q-41 -43 -101.5 -110.5t-142.5 -167.5 q-70 -82 -168 -211t-204.5 -277.5t-209 -304.5t-180.5 -293q-51 -90 -121.5 -145.5t-143.5 -86t-141.5 -40.5t-113.5 -10q-61 0 -84 9t-23 25zM672 1286q0 4 1 6t1 4v2q12 29 39 66q23 31 61.5 74t104.5 96q2 2 8 4q12 4 22 4q18 0 43 -9t46.5 -23.5t37 -33t15.5 -34.5 q0 -6 -4.5 -15.5t-24.5 -13.5q-49 -14 -102 -37q-45 -18 -100.5 -47t-108.5 -65q-2 0 -6 -2q-8 -4 -15 -5q-6 0 -12 7.5t-6 21.5z" />
<glyph unicode="&#xfe;" horiz-adv-x="1007" d="M-326 -639q0 6 2 8l2 2q57 96 114.5 219t112 259.5t105.5 283t99.5 289.5t92.5 280.5t83 255.5q51 154 83.5 269.5t53.5 195.5q23 94 37 162q0 4 4 10q4 4 8 9.5t12 9.5q27 14 64 24q31 10 77 17.5t103 7.5q49 0 69.5 -3t20.5 -15q0 -6 -6 -19q-33 -53 -72 -137 q-35 -72 -82 -187.5t-106 -281.5q33 27 70 47q31 16 71.5 30.5t81.5 14.5q23 0 60.5 -8t73.5 -41t62.5 -96.5t26.5 -171.5q0 -72 -17 -162t-51 -181.5t-86 -178.5t-123 -155.5t-158 -109.5t-193 -41q-4 -2 -11 0q-12 4 -16 8q-23 23 -37 48.5t-24 50.5q-4 12 -15 12 q-8 0 -12 -6l-4 -8q-78 -188 -118 -312.5t-58 -199.5q-23 -88 -25 -138q0 -16 -12 -24q-6 -4 -12 -4q-106 -31 -175 -40t-108 -9q-31 0 -49.5 3t-18.5 13zM299 242q0 -16 20 -17q74 0 134.5 31t108.5 81t83 112.5t58.5 125t35 120t11.5 96.5q0 66 -20.5 93t-61.5 27 q-49 0 -95.5 -48t-86.5 -119.5t-73.5 -156.5t-58 -158t-39 -122t-14.5 -51v-4q0 -2 -1 -4t-1 -6z" />
<glyph unicode="&#xff;" horiz-adv-x="983" d="M-449 -584q0 12 11 19q6 4 10 4q96 45 173 95t135.5 102.5t101.5 102.5t71 97q68 109 92 217q23 170 31 305.5t8 241.5q0 127 -9 214t-19 142q-12 66 -29 103l-2 2q-2 2 -2 8q0 8 10 12q37 16 90 29q45 10 112.5 18.5t156.5 8.5q4 0 7 -1t3 -12q0 -2 -10.5 -33.5 t-22.5 -108.5t-23.5 -209t-13.5 -337l4 -16q4 -16 15 -17q8 0 26 21q74 90 144 197q59 92 127.5 211.5t119.5 254.5q0 4 4 11q8 12 21 14q33 8 72 16q35 6 80 10.5t100 4.5t117 -6q4 0 8 -2q6 -2 6 -9q0 -6 -10 -16q-33 -31 -82 -82q-41 -43 -101.5 -110.5t-142.5 -167.5 q-70 -82 -168 -211t-204.5 -277.5t-209 -304.5t-180.5 -293q-51 -90 -121.5 -145.5t-143.5 -86t-141.5 -40.5t-113.5 -10q-61 0 -84 9t-23 25zM369 1356q0 33 12 64.5t33.5 57t48 41t55.5 15.5q41 0 64.5 -28.5t23.5 -73.5q0 -33 -12 -66t-33.5 -58.5t-48.5 -41t-55 -15.5 q-41 0 -64.5 29t-23.5 76zM866 1356q0 33 12.5 64.5t34 57t48 41t55.5 15.5q41 0 64.5 -28.5t23.5 -73.5q0 -33 -12.5 -66t-34 -58.5t-48 -41t-55.5 -15.5q-41 0 -64.5 29t-23.5 76z" />
<glyph unicode="&#x152;" horiz-adv-x="1998" d="M43 489q0 125 28.5 258.5t83 260.5t132.5 241.5t178 200.5t220 136t257 50q98 0 170 -32.5t125 -87.5q2 12 2 21v17q0 14 6 17q4 2 6 2q92 6 191 14q86 6 189.5 10.5t207.5 4.5q94 0 177 -5.5t143 -17.5q10 -4 10 -14q0 -2 -14.5 -57.5t-44 -128t-74.5 -141.5t-107 -99 q-6 -4 -18.5 -7.5t-28.5 -3.5q-10 0 -19.5 4.5t-9.5 14.5q0 4 5 16q4 14 8 35q4 16 6 39t2 45q0 76 -34 123t-124 47q-31 0 -55 -8q-31 -12 -68 -66q-33 -45 -74.5 -135t-88.5 -252q0 -4 1 -9t7 -7h30q16 0 37 -1t47 -1q90 0 215 6q4 0 9.5 -3t7.5 -15q0 -18 -11.5 -59.5 t-31 -83.5t-44 -73.5t-50.5 -31.5q-14 0 -23 14q-10 20 -33 35q-20 12 -54 22.5t-87 10.5q-25 0 -56.5 -5.5t-39.5 -23.5q-39 -100 -74 -203q-29 -88 -54.5 -192.5t-29.5 -202.5q0 -6 8 -21.5t49 -15.5q25 0 84.5 9.5t140.5 46t176 112.5t189 209q10 14 25 27q12 10 28.5 18 t36.5 8q6 0 22.5 -3t16.5 -23q0 -2 -1 -4.5t-1 -6.5q-6 -18 -18.5 -57t-29.5 -87t-37.5 -101.5t-41 -100.5t-39 -84t-32.5 -53q-4 -8 -15 -12l-8 -4q-137 -39 -285.5 -52.5t-285.5 -13.5q-88 0 -165 4t-136.5 9t-98.5 9.5t-51 6.5q-121 -51 -250 -51q-113 0 -194.5 43 t-135 118.5t-79 175.5t-25.5 215zM365 442q0 -135 43 -224t137 -89q66 0 128 49t117.5 131t103.5 186.5t83 218t54.5 227.5t19.5 210q0 129 -39 212t-127 83q-68 0 -133.5 -47t-124 -126t-106.5 -182.5t-83 -215t-54 -223.5t-19 -210z" />
<glyph unicode="&#x153;" horiz-adv-x="1622" d="M41 356q0 127 48 263.5t134 249t207 185t268 72.5q111 0 183.5 -47t113.5 -125q76 74 172.5 120t216.5 46q33 0 74 -7t78 -27.5t61.5 -57.5t24.5 -96q0 -27 -16.5 -97.5t-77 -157.5t-180 -174t-328.5 -147q-4 -2 -6 -4l-4 -4q-2 -2 -2 -4q4 -72 44 -101.5t105 -29.5 q25 0 61.5 6t80.5 25.5t93.5 56.5t94.5 100l8 9q8 8 18 8q4 0 19.5 -6t15.5 -39q0 -39 -27.5 -106.5t-88 -134t-153.5 -115t-222 -48.5q-84 0 -158 30t-121 103q-76 -68 -167 -106.5t-199 -38.5q-98 0 -168 31.5t-115 86t-66.5 127t-21.5 154.5zM322 336q0 -92 30.5 -152.5 t100.5 -60.5q63 0 121.5 64.5t102.5 159.5t70.5 206t26.5 203t-28.5 150.5t-94.5 58.5q-63 0 -123.5 -63.5t-105.5 -158t-72.5 -204t-27.5 -203.5zM1018 512q2 -2 10 -2q66 16 125 60t105.5 97.5t74 110t27.5 94.5q0 29 -15.5 45.5t-50.5 16.5q-39 0 -75.5 -25.5 t-69.5 -67.5t-60.5 -93.5t-46.5 -104.5q-6 -68 -24 -131z" />
<glyph unicode="&#x178;" horiz-adv-x="882" d="M0 -92q0 2 1 3t1 3v2q76 131 127 251t82 221t44 179t13 123q0 82 -12 174t-30.5 181.5t-40 168t-40.5 134.5q-14 47 -30.5 81.5t-28.5 57.5q-14 27 -29 45l-4 4q-6 6 -6 12t8 15q39 16 90 28q43 10 105.5 18.5t142.5 8.5h45q23 0 47 -4q4 0 8.5 -2t4.5 -8 q0 -4 -8.5 -52.5t-8.5 -146.5q0 -88 12.5 -215t51.5 -295q0 -4 2 -8q4 -8 10 -8q8 0 16 8q78 80 160 182q70 88 152 209t155 272q2 6 7 13q4 4 8 10t10 8q37 8 82 16q39 6 89 11.5t105 5.5h30q24 0 51.5 -2t49 -7.5t21.5 -13.5q0 -4 -6 -10q-164 -131 -324 -291 q-68 -68 -142.5 -149.5t-149 -174t-146.5 -193.5t-135 -212q-45 -100 -82 -203q-31 -88 -57.5 -189t-26.5 -192q0 -4 -3 -16t-18 -16q-100 -35 -179 -45.5t-130 -10.5h-36q-15 0 -25 2q-12 2 -21 5q-12 2 -12 12zM475 1806q0 33 12.5 65t34 57.5t48 41t55.5 15.5 q41 0 64.5 -29t23.5 -74q0 -33 -12.5 -65.5t-34 -58t-48 -41t-55.5 -15.5q-41 0 -64.5 28.5t-23.5 75.5zM973 1806q0 33 12 65t33.5 57.5t48.5 41t55 15.5q41 0 64.5 -29t23.5 -74q0 -33 -12 -65.5t-33.5 -58t-48 -41t-55.5 -15.5q-41 0 -64.5 28.5t-23.5 75.5z" />
<glyph unicode="&#x2c6;" horiz-adv-x="569" d="M0 1274q0 8 4 16l4 8q29 43 66 84q33 35 79 76t105 76q4 2 10 4q12 4 23 4q6 0 25.5 -7t45.5 -24l3 -2q2 -2 4 -2l6 2q35 20 62.5 26.5t33.5 6.5q23 0 40 -22.5t29.5 -55t19.5 -70.5t7 -67q0 -18 -6 -39.5t-33 -30.5h-2q-4 0 -8 5q-2 2 -4 2q-41 55 -89 93t-77 54 q-2 2 -8 2q-47 -16 -129 -55t-174 -94q-2 0 -6 -2q-8 -4 -15 -5q-16 1 -16 17z" />
<glyph unicode="&#x2dc;" horiz-adv-x="663" d="M41 1329q8 33 20 60q10 23 25.5 46t34.5 31q8 6 22 11q12 4 31 6t47 2q35 0 59.5 -3t46 -7.5t44 -7.5t55.5 -3q41 0 88 8.5t90 34.5q2 2 4 2h6q8 0 9 -10q0 -20 -11.5 -46t-27 -50.5t-32.5 -44t-28 -27.5q-20 -16 -46.5 -21t-55.5 -5q-66 0 -125 16t-131 16 q-27 0 -45.5 -2t-30.5 -6q-14 -4 -24 -8l-7 -3q-2 -1 -6 -1q-6 0 -10 6q-2 4 -2 6z" />
<glyph unicode="&#x2000;" horiz-adv-x="1017" />
<glyph unicode="&#x2001;" horiz-adv-x="2037" />
<glyph unicode="&#x2002;" horiz-adv-x="1017" />
<glyph unicode="&#x2003;" horiz-adv-x="2037" />
<glyph unicode="&#x2004;" horiz-adv-x="677" />
<glyph unicode="&#x2005;" horiz-adv-x="507" />
<glyph unicode="&#x2006;" horiz-adv-x="337" />
<glyph unicode="&#x2007;" horiz-adv-x="337" />
<glyph unicode="&#x2008;" horiz-adv-x="253" />
<glyph unicode="&#x2009;" horiz-adv-x="407" />
<glyph unicode="&#x200a;" horiz-adv-x="112" />
<glyph unicode="&#x2010;" horiz-adv-x="1079" d="M100 483q0 4 11.5 31t30 57.5t44 55t54.5 24.5q8 0 14 -2q12 -4 45 -8t73 -6t82 -3t70 -1q74 0 138.5 1t124 4t120 7t125.5 10q6 0 13.5 -2t7.5 -10q0 -2 -6.5 -18.5t-18.5 -39t-30.5 -50t-43.5 -52.5q-4 0 -10 -2t-31 -2q-86 4 -161 4h-148q-156 0 -247 -4t-138 -9 t-61.5 -9t-18.5 -4q-27 0 -35 14q-4 8 -4 14z" />
<glyph unicode="&#x2011;" horiz-adv-x="1079" d="M100 483q0 4 11.5 31t30 57.5t44 55t54.5 24.5q8 0 14 -2q12 -4 45 -8t73 -6t82 -3t70 -1q74 0 138.5 1t124 4t120 7t125.5 10q6 0 13.5 -2t7.5 -10q0 -2 -6.5 -18.5t-18.5 -39t-30.5 -50t-43.5 -52.5q-4 0 -10 -2t-31 -2q-86 4 -161 4h-148q-156 0 -247 -4t-138 -9 t-61.5 -9t-18.5 -4q-27 0 -35 14q-4 8 -4 14z" />
<glyph unicode="&#x2012;" horiz-adv-x="1079" d="M100 483q0 4 11.5 31t30 57.5t44 55t54.5 24.5q8 0 14 -2q12 -4 45 -8t73 -6t82 -3t70 -1q74 0 138.5 1t124 4t120 7t125.5 10q6 0 13.5 -2t7.5 -10q0 -2 -6.5 -18.5t-18.5 -39t-30.5 -50t-43.5 -52.5q-4 0 -10 -2t-31 -2q-86 4 -161 4h-148q-156 0 -247 -4t-138 -9 t-61.5 -9t-18.5 -4q-27 0 -35 14q-4 8 -4 14z" />
<glyph unicode="&#x2013;" horiz-adv-x="909" d="M100 483q0 4 5.5 31t14.5 57.5t22.5 55t27.5 24.5q4 0 8 -2q6 -4 48 -8t93.5 -6t97.5 -3t60 -1q37 0 82 1t90 4t88 7t76 10q10 0 10 -12q0 -2 -3 -18.5t-9 -39t-15.5 -50t-21.5 -52.5l-4 -2q-4 -2 -16 -2q-20 2 -53 3t-68 1h-66h-49q-78 0 -149.5 -4t-126 -9t-87 -9 t-34.5 -4q-14 0 -19 14q-2 8 -2 14z" />
<glyph unicode="&#x2014;" horiz-adv-x="1630" d="M100 483q0 4 11.5 31t30 57.5t44 55t54.5 24.5q8 0 14 -2q8 -4 50 -6t102.5 -4t130 -3t133 -2t114 -2t68.5 -1q74 0 164 1t180 4t176 7t152 10q6 0 13 -2t7 -10q0 -2 -6 -18.5t-18.5 -39t-31 -50t-42.5 -52.5q-4 0 -10 -2t-31 -2q-43 2 -108.5 3t-135.5 1h-132h-97 q-156 0 -298 -4t-251 -9t-174.5 -9t-69.5 -4q-27 0 -35 14q-4 8 -4 14z" />
<glyph unicode="&#x2018;" horiz-adv-x="292" d="M238 1294q0 41 8 82t18 76q10 39 25 76q0 4 4 10q8 10 18 16q18 8 41 17q20 6 48 10t63 4q29 0 29 -12q0 -4 -3 -8q-35 -57 -65 -123q-27 -55 -52.5 -123t-41.5 -135q-4 -16 -12.5 -20.5t-14.5 -4.5q-14 0 -26.5 13.5t-21.5 34t-13 44t-4 43.5z" />
<glyph unicode="&#x2019;" horiz-adv-x="337" d="M211 1182q0 2 4 10q39 68 62.5 130t37.5 112q16 57 25 106q2 10 14 19q6 4 11 4q45 10 81.5 13t65.5 3q12 -2 12 -16q0 -6 -13 -52.5t-41 -107t-70 -119.5t-97 -92q-35 -18 -49 -22.5t-27 -4.5q-16 1 -16 17z" />
<glyph unicode="&#x201a;" horiz-adv-x="405" d="M-80 -98q0 2 4 10q37 68 61.5 130t39.5 112q16 57 24 106q2 10 14 19q6 4 11 4q45 10 82 13t65 3q12 -2 12 -16q0 -6 -13 -52.5t-40.5 -107t-69.5 -119.5t-98 -92q-35 -18 -49 -22.5t-26 -4.5q-17 1 -17 17z" />
<glyph unicode="&#x201c;" horiz-adv-x="600" d="M238 1294q0 41 8 82t18 76q10 39 25 76q0 4 4 10q8 10 18 16q18 8 41 17q20 6 48 10t63 4q29 0 29 -12q0 -4 -3 -8q-35 -57 -65 -123q-27 -55 -52.5 -123t-41.5 -135q-4 -16 -12.5 -20.5t-14.5 -4.5q-14 0 -26.5 13.5t-21.5 34t-13 44t-4 43.5zM545 1294q0 41 8 82t18 76 q10 39 25 76q0 4 4 10q8 10 18 16q18 8 41 17q20 6 48 10t63 4q29 0 29 -12q0 -4 -2 -8q-35 -57 -66 -123q-27 -55 -52.5 -123t-41.5 -135q-4 -16 -12.5 -20.5t-14.5 -4.5q-14 0 -26.5 13.5t-21.5 34t-13 44t-4 43.5z" />
<glyph unicode="&#x201d;" horiz-adv-x="643" d="M211 1182q0 2 4 10q39 68 62.5 130t37.5 112q16 57 25 106q2 10 14 19q6 4 11 4q45 10 81.5 13t65.5 3q12 -2 12 -16q0 -6 -13 -52.5t-41 -107t-70 -119.5t-97 -92q-35 -18 -49 -22.5t-27 -4.5q-16 1 -16 17zM516 1182q0 2 4 10q39 68 62.5 130t38.5 112q16 57 24 106 q2 10 14 19q6 4 11 4q45 10 81.5 13t65.5 3q12 -2 12 -16q0 -6 -13 -52.5t-40.5 -107t-69.5 -119.5t-98 -92q-35 -18 -49 -22.5t-27 -4.5q-16 1 -16 17z" />
<glyph unicode="&#x201e;" horiz-adv-x="710" d="M-80 -98q0 2 4 10q37 68 61.5 130t39.5 112q16 57 24 106q2 10 14 19q6 4 11 4q45 10 82 13t65 3q12 -2 12 -16q0 -6 -13 -52.5t-40.5 -107t-69.5 -119.5t-98 -92q-35 -18 -49 -22.5t-26 -4.5q-17 1 -17 17zM225 -98q0 2 4 10q39 68 62.5 130t38.5 112q16 57 24 106 q2 10 15 19q6 4 10 4q45 10 82 13t65 3q12 -2 13 -16q0 -6 -13.5 -52.5t-41 -107t-69.5 -119.5t-98 -92q-35 -18 -49 -22.5t-26 -4.5q-17 1 -17 17z" />
<glyph unicode="&#x2022;" horiz-adv-x="606" d="M135 477q0 47 17.5 93t47 82t67.5 58.5t77 22.5q59 0 93 -42t34 -107q0 -55 -20.5 -101.5t-51 -79t-68.5 -51t-73 -18.5q-57 0 -90 41t-33 102z" />
<glyph unicode="&#x2026;" horiz-adv-x="1413" d="M2 106q0 39 14.5 77t39 69t56 49t64.5 18q47 0 76 -35.5t29 -88.5q0 -45 -16.5 -84t-42 -67t-57.5 -43t-61 -15q-47 0 -74.5 33.5t-27.5 86.5zM492 106q0 39 14 77t38.5 69t56.5 49t65 18q47 0 75.5 -35.5t28.5 -88.5q0 -45 -16.5 -84t-42 -67t-57 -43t-60.5 -15 q-47 0 -74.5 33.5t-27.5 86.5zM967 106q0 39 14 77t38.5 69t56.5 49t65 18q47 0 75.5 -35.5t28.5 -88.5q0 -45 -16.5 -84t-42 -67t-57 -43t-60.5 -15q-47 0 -74.5 33.5t-27.5 86.5z" />
<glyph unicode="&#x202f;" horiz-adv-x="407" />
<glyph unicode="&#x2039;" horiz-adv-x="1110" d="M31 475q0 25 16 52.5t36.5 51t42 40t30.5 20.5q20 10 47 27q23 14 55.5 33.5t71.5 41.5q59 37 133 84t149.5 99.5t150.5 107.5t136 107q6 6 14 12q16 12 25 12q4 0 28.5 -3t58.5 -14t72 -31.5t68 -55.5l4 -4q2 -2 2 -8q0 -8 -18 -17q-123 -51 -260 -123 q-117 -61 -266.5 -153t-304.5 -215q-2 -2 -7 -4q-6 -2 -6 -13q0 -6 8 -12q2 -4 9 -12q4 -6 14 -15.5t25 -21.5q33 -27 83 -68t113.5 -87t138 -94t154.5 -91q2 2 4 0q4 -4 4 -8q0 -6 -4 -13q-18 -33 -48 -59.5t-57.5 -46t-48 -30.5t-22.5 -11q-4 0 -16 12q-6 6 -11 12 q-104 117 -209.5 202t-191.5 145q-100 68 -195 116q-18 4 -23 14.5t-5 20.5z" />
<glyph unicode="&#x203a;" horiz-adv-x="1101" d="M-117 76q0 8 19 16q123 51 260 123q117 61 266.5 153.5t304.5 215.5q2 2 6 4q6 4 6 12q0 6 -8 12q-2 4 -8 13q-10 14 -39 37q-33 29 -83 68.5t-113.5 85.5t-138 94t-154.5 91q-2 0 -4 3q-4 4 -4 6q0 6 4 12q18 33 47.5 59.5t57.5 46t48.5 30.5t22.5 11q4 0 16 -12 q6 -6 10 -12q104 -115 210 -201t192 -145q100 -68 194 -117q18 -4 23.5 -14.5t5.5 -20.5q0 -25 -16.5 -52.5t-37 -51t-41 -40t-30.5 -20.5q-20 -10 -47 -26q-23 -14 -54.5 -32.5t-72.5 -43.5q-59 -37 -133 -84t-149.5 -99.5t-150.5 -106.5t-136 -107q-6 -6 -15 -13 q-16 -12 -24 -12q-4 0 -29 3t-58.5 14.5t-71.5 32t-69 54.5l-4 5q-2 2 -2 8z" />
<glyph unicode="&#x2044;" horiz-adv-x="927" d="M-223 -53q0 2 4 10q92 98 196.5 220t212 254t214 267.5t204.5 262.5q229 297 459 612q6 14 15.5 28.5t24.5 24.5t43 17.5t71 7.5q49 0 81.5 -3t32.5 -26q0 -8 -4 -18.5t-16 -24.5q-49 -51 -111 -119q-53 -59 -125.5 -142t-163.5 -194q-72 -86 -151.5 -187t-162.5 -206.5 t-164 -212t-151.5 -205t-129 -183.5t-95.5 -148q-14 -23 -52 -37.5t-79 -22.5q-47 -8 -102 -12q-23 2 -37 13.5t-14 23.5z" />
<glyph unicode="&#x205f;" horiz-adv-x="507" />
<glyph unicode="&#x20ac;" horiz-adv-x="1181" d="M-102 -4q0 8 2 10l4 4q43 49 87 129t85 174.5t79 192.5t66 182q-109 -4 -178.5 -10t-71.5 -8q-6 0 -6 6q12 33 28.5 54.5t31.5 37.5q16 18 32 29q2 0 4 2t9 2q4 0 52 -5t134 -5q23 66 32 93t13 44q-109 -4 -179.5 -10.5t-72.5 -8.5q-6 0 -6 6q12 33 28.5 54.5t30.5 38.5 q16 18 33 28q2 0 4 2t8 2q4 0 51.5 -4t131.5 -6q31 117 49 206t27.5 153.5t12.5 104.5t3 60q0 14 6 17q4 2 6 2q92 6 191 14q86 6 189.5 10.5t207.5 4.5q94 0 177 -5.5t142 -17.5q10 -4 11 -14q0 -2 -14.5 -57.5t-44 -128t-74.5 -141.5t-107 -99q-6 -4 -18.5 -7.5 t-28.5 -3.5q-10 0 -19.5 4.5t-9.5 14.5q0 4 4 16q4 14 9 35q4 16 6 39t2 45q0 76 -34 123t-124 47q-31 0 -55 -8q-29 -10 -66 -60q-31 -41 -69.5 -122.5t-85.5 -229.5q80 2 156.5 5t138.5 12q6 0 6 -5q0 -10 -11.5 -29.5t-27.5 -37.5q-18 -23 -41 -45q-4 -4 -6 -4t-7 -2 q-4 -2 -8 -2q-10 0 -76.5 2t-158.5 4q-10 -27 -20.5 -61.5t-24.5 -75.5q80 2 157.5 5t139.5 11q6 0 6 -4q0 -10 -11.5 -29.5t-27.5 -38.5q-18 -23 -41 -45q-4 -4 -6 -4t-6 -2t-9 -2q-10 0 -76.5 2t-158.5 4q-25 -74 -48.5 -152.5t-42 -149.5t-29.5 -129t-11 -91 q0 -6 8 -21.5t49 -15.5q25 0 84.5 9.5t140 46t176 112.5t189.5 209q10 14 25 27q12 10 28.5 18t36.5 8q6 0 22.5 -3t16.5 -23q0 -2 -1 -4.5t-1 -6.5q-4 -18 -17.5 -57t-31 -87t-37.5 -101.5t-40.5 -100.5t-39 -84t-33.5 -53q-4 -8 -14 -12l-8 -4q-137 -39 -285.5 -52.5 t-286.5 -13.5q-96 0 -179 4t-144 10q-72 8 -133 15q-6 2 -6 8z" />
<glyph unicode="&#x2122;" horiz-adv-x="1024" d="M229 940q31 51 63 134t58 165q31 96 62 201q0 4 -4 4h-7q-31 0 -54 -7t-40 -18q-20 -10 -33 -26q-4 -4 -8 -4h-2q-10 0 -10 8q4 25 11 44t16 34q8 16 20 26q2 4 10 6q2 2 11 2h40q27 0 66 -2t80 -2q35 0 83 4t81 27h2q6 0 6 -8q0 -2 -3 -13.5t-9 -25.5t-15.5 -27.5 t-23.5 -21.5l-4 -2q-8 -4 -19 -4q-20 0 -33.5 5t-44.5 5h-2q-2 0 -6 -4q-8 -23 -18 -49q-10 -23 -20.5 -54.5t-24.5 -72.5q-27 -78 -49.5 -160t-26.5 -141q0 -6 -2 -9l-2 -2q-29 -14 -56.5 -17t-52.5 -3q-8 0 -15 1t-11 1h-11q-2 0 -2 6zM496 942q18 12 39 47q16 29 39.5 81 t46.5 142q18 47 34 95q14 41 24.5 89t14.5 89v4q0 2 2 4q16 4 39 8q20 4 48 6t63 2l2 -2q0 -8 -2 -22q-2 -12 -2 -32v-48q0 -35 2 -79t6 -105l2 -2q4 -4 6 -5q2 0 2 3v4q41 49 78 98q33 41 64.5 90t48.5 90l2 2q2 2 6 4q16 4 35 8q31 6 78 7q8 0 23 -1t15 -8q0 -4 -24.5 -53 t-63.5 -153q-8 -25 -17 -54.5t-17.5 -60.5t-15.5 -58.5t-11 -50.5q-8 -41 -8 -75q0 -16 4 -33q2 -8 2 -12v-5l-2 -2q-2 0 -4 -2q-39 -16 -65.5 -21t-43.5 -5q-16 2 -19 6t-3 8q0 35 17 98.5t40 128.5q25 76 57 160q0 6 -4 6h-6q-55 -68 -96 -130t-68 -109q-31 -55 -51 -105 q-4 -6 -19.5 -9t-25.5 -3q-12 0 -16 2t-7 2q-2 0 -2 4q4 16 5.5 46t1.5 61v56q0 36 -1 71.5t-2.5 66.5t-3.5 41q0 6 -4 6t-6 -2t-2 -4q-16 -29 -24.5 -54.5t-14.5 -51.5q-23 -63 -36 -111.5t-21 -83.5q-8 -39 -12 -68q0 -2 -2 -4l-3 -2q-29 -10 -52 -13t-38 -3q-14 0 -21 2 t-11 4z" />
<glyph unicode="&#xe000;" horiz-adv-x="1150" d="M0 1150h1150v-1150h-1150v1150z" />
<glyph unicode="&#xfb01;" horiz-adv-x="1222" d="M-236 -373q0 10 3 15q2 4 2 6q35 43 80 137t94 218t100 268.5t100 287.5q113 338 236 739q4 12 10 23q4 10 10.5 19.5t12.5 15.5q63 76 147 135q72 51 173.5 93t230.5 42q47 0 66.5 -6t19.5 -29q0 -8 -17.5 -56t-60.5 -101q-12 -16 -29.5 -34t-30.5 -18q-10 0 -19 4.5 t-9 24.5q0 8 -5.5 28.5t-33.5 20.5q-10 0 -42 -10t-74 -49t-85 -113t-76 -201q0 -23 17 -22q6 0 14 -2t22 -2h31q23 0 53.5 -1t73.5 7q2 2 4 2h9q12 0 12 -12q0 -2 -7.5 -24.5t-20.5 -50.5t-34.5 -52.5t-52.5 -30.5q-23 0 -47 -2q-23 -2 -47.5 -3t-46.5 -1q-16 0 -26.5 -3 t-16.5 -16q-59 -139 -113 -303q-47 -141 -97 -323t-85 -387q0 -6 -3 -21.5t-20 -32.5q-59 -72 -127.5 -111.5t-129 -59t-101.5 -24.5t-43 -5q-21 0 -21 20zM588 -37q0 2 1 4t1 4v2q45 68 92 176.5t91 229.5t81 239.5t61 210.5q12 45 19.5 77t11.5 55q6 25 6 43q0 4 4 8l8 7 q3 3 9 5q25 8 55 16q27 6 61.5 11.5t73.5 5.5q29 0 53.5 -3t53.5 -7q2 0 4 -3q4 -4 4 -8q0 -6 -6 -18q-12 -23 -29 -55q-14 -29 -30.5 -67t-34.5 -85q-29 -78 -65 -177t-66.5 -201.5t-52 -201t-21.5 -174.5v-30q0 -12 -6 -19q-4 -4 -9 -4q-92 -35 -174 -45t-131 -10 q-29 0 -47 2t-18 12zM1063 1333q0 55 21.5 109.5t55.5 97.5t77 69.5t88 26.5q57 0 89.5 -44t32.5 -111q0 -68 -23.5 -123t-59 -96t-77.5 -63.5t-79 -22.5q-57 0 -91 44.5t-34 112.5z" />
<glyph unicode="&#xfb02;" horiz-adv-x="1179" d="M-236 -373q0 10 3 15q2 4 2 6q35 43 80 137t94 218t100 268.5t100 287.5q113 338 236 739q4 12 10 23q4 10 10.5 19.5t12.5 15.5q63 76 147 135q72 51 173.5 93t230.5 42q47 0 66.5 -6t19.5 -29q0 -8 -17.5 -56t-60.5 -101q-12 -16 -29.5 -34t-30.5 -18q-10 0 -19 4.5 t-9 24.5q0 8 -5.5 28.5t-33.5 20.5q-10 0 -42 -10t-74 -49t-85 -113t-76 -201q0 -23 17 -22q6 0 14 -2t22 -2h31q23 0 53.5 -1t73.5 7q2 2 4 2h9q12 0 12 -12q0 -2 -7.5 -24.5t-20.5 -50.5t-34.5 -52.5t-52.5 -30.5q-23 0 -47 -2q-23 -2 -47.5 -3t-46.5 -1q-16 0 -26.5 -3 t-16.5 -16q-59 -139 -113 -303q-47 -141 -97 -323t-85 -387q0 -6 -3 -21.5t-20 -32.5q-59 -72 -127.5 -111.5t-129 -59t-101.5 -24.5t-43 -5q-21 0 -21 20zM588 -61l12 33q12 34 31.5 88.5t44 123t49.5 138.5l135 376q78 217 129 381t82 277q37 131 57 229q0 4 5 10 q4 4 8 9.5t12 9.5q27 14 64 24q31 10 76.5 17.5t103.5 7.5q49 0 69.5 -3t20.5 -15q0 -6 -6 -19q-72 -86 -150 -244q-66 -135 -144.5 -363t-154.5 -577q-23 -82 -43 -159q-16 -66 -30.5 -134.5t-14.5 -115.5q2 -16 4 -23.5t2 -11.5q0 -10 -10 -14q-37 -23 -78 -35t-80 -19.5 t-72.5 -9.5t-58.5 -2h-35q-8 0 -12 2q-10 2 -13 8.5t-3 10.5z" />
<glyph unicode="&#xfb03;" horiz-adv-x="1892" d="M1257 -29q0 2 2 2q45 68 92 176.5t91 229.5t81 239.5t62 210.5q12 45 19 77t11 55q6 25 7 43q0 4 4 8l7 7q3 3 9 5q25 8 55 16q27 6 62 11.5t74 5.5q29 0 53 -3t53 -7q2 0 4 -3q4 -4 4 -8q0 -6 -6 -18q-12 -23 -29 -55q-14 -29 -30.5 -67t-34.5 -85q-29 -78 -64.5 -177 t-66.5 -201.5t-52.5 -201t-21.5 -174.5v-30q0 -12 -6 -19q-4 -4 -8 -4q-92 -35 -174 -45t-131 -10q-29 0 -47.5 2t-18.5 12v8zM1732 1333q0 55 21.5 109.5t55.5 97.5t77 69.5t88 26.5q57 0 90 -44t33 -111q0 -68 -23.5 -123t-59.5 -96t-78 -63.5t-79 -22.5q-57 0 -91 44.5 t-34 112.5zM434 -373q0 10 3 15q2 4 2 6q35 43 80 137t94 218t100 268.5t100 287.5q113 338 236 739q4 12 10 23q4 10 10.5 19.5t12.5 15.5q63 76 147 135q72 51 173.5 93t230.5 42q47 0 66.5 -6t19.5 -29q0 -8 -17.5 -56t-60.5 -101q-12 -16 -29.5 -34t-30.5 -18 q-10 0 -19 4.5t-9 24.5q0 8 -5.5 28.5t-33.5 20.5q-10 0 -42 -10t-74 -49t-85 -113t-76 -201q0 -23 17 -22q6 0 14 -2t22 -2h31q23 0 54 -1h6q29 0 67 7q2 2 4 2h9q12 0 12 -12q0 -2 -7.5 -24.5t-20.5 -50.5t-34.5 -52.5t-52.5 -30.5q-23 0 -47 -2q-23 -2 -47.5 -3t-46.5 -1 q-16 0 -26.5 -3t-16.5 -16q-59 -139 -113 -303q-47 -141 -97 -323t-85 -387q0 -6 -3 -21.5t-20 -32.5q-59 -72 -127.5 -111.5t-129 -59t-101.5 -24.5t-43 -5q-21 0 -21 20zM-236 -373q0 10 3 15q2 4 2 6q35 43 80 137t94 218t100 268.5t100 287.5q113 338 236 739 q4 12 10 23q4 10 10.5 19.5t12.5 15.5q63 76 147 135q72 51 173.5 93t230.5 42q47 0 66.5 -6t19.5 -29q0 -8 -17.5 -56t-60.5 -101q-12 -16 -29.5 -34t-30.5 -18q-10 0 -19 4.5t-9 24.5q0 8 -5.5 28.5t-33.5 20.5q-10 0 -42 -10t-74 -49t-85 -113t-76 -201q0 -23 17 -22 q6 0 14 -2t22 -2h31q23 0 54 -1h6q29 0 67 7q2 2 4 2h9q12 0 12 -12q0 -2 -7.5 -24.5t-20.5 -50.5t-34.5 -52.5t-52.5 -30.5q-23 0 -47 -2q-23 -2 -47.5 -3t-46.5 -1q-16 0 -26.5 -3t-16.5 -16q-59 -139 -113 -303q-47 -141 -97 -323t-85 -387q0 -6 -3 -21.5t-20 -32.5 q-59 -72 -127.5 -111.5t-129 -59t-101.5 -24.5t-43 -5q-21 0 -21 20z" />
<glyph unicode="&#xfb04;" horiz-adv-x="1849" d="M1257 -61l12 33q12 34 32 88.5t44.5 123t48.5 138.5l135 376q78 217 129.5 381t81.5 277q37 131 58 229q0 4 4 10q4 4 8 9.5t12 9.5q27 14 64 24q31 10 77 17.5t103 7.5q49 0 69.5 -3t20.5 -15q0 -6 -6 -19q-72 -86 -149 -244q-66 -135 -145 -363t-155 -577 q-23 -82 -43 -159q-16 -66 -30.5 -134.5t-14.5 -115.5q2 -16 4.5 -23.5t2.5 -11.5q0 -10 -11 -14q-37 -23 -77.5 -35t-79.5 -19.5t-73 -9.5t-58 -2h-35q-8 0 -13 2q-10 2 -13 8.5t-3 10.5zM434 -373q0 10 3 15q2 4 2 6q35 43 80 137t94 218t100 268.5t100 287.5 q113 338 236 739q4 12 10 23q4 10 10.5 19.5t12.5 15.5q63 76 147 135q72 51 173.5 93t230.5 42q47 0 66.5 -6t19.5 -29q0 -8 -17.5 -56t-60.5 -101q-12 -16 -29.5 -34t-30.5 -18q-10 0 -19 4.5t-9 24.5q0 8 -5.5 28.5t-33.5 20.5q-10 0 -42 -10t-74 -49t-85 -113t-76 -201 q0 -23 17 -22q6 0 14 -2t22 -2h31q23 0 54 -1h6q29 0 67 7q2 2 4 2h9q12 0 12 -12q0 -2 -7.5 -24.5t-20.5 -50.5t-34.5 -52.5t-52.5 -30.5q-23 0 -47 -2q-23 -2 -47.5 -3t-46.5 -1q-16 0 -26.5 -3t-16.5 -16q-59 -139 -113 -303q-47 -141 -97 -323t-85 -387q0 -6 -3 -21.5 t-20 -32.5q-59 -72 -127.5 -111.5t-129 -59t-101.5 -24.5t-43 -5q-21 0 -21 20zM-236 -373q0 10 3 15q2 4 2 6q35 43 80 137t94 218t100 268.5t100 287.5q113 338 236 739q4 12 10 23q4 10 10.5 19.5t12.5 15.5q63 76 147 135q72 51 173.5 93t230.5 42q47 0 66.5 -6 t19.5 -29q0 -8 -17.5 -56t-60.5 -101q-12 -16 -29.5 -34t-30.5 -18q-10 0 -19 4.5t-9 24.5q0 8 -5.5 28.5t-33.5 20.5q-10 0 -42 -10t-74 -49t-85 -113t-76 -201q0 -23 17 -22q6 0 14 -2t22 -2h31q23 0 54 -1h6q29 0 67 7q2 2 4 2h9q12 0 12 -12q0 -2 -7.5 -24.5 t-20.5 -50.5t-34.5 -52.5t-52.5 -30.5q-23 0 -47 -2q-23 -2 -47.5 -3t-46.5 -1q-16 0 -26.5 -3t-16.5 -16q-59 -139 -113 -303q-47 -141 -97 -323t-85 -387q0 -6 -3 -21.5t-20 -32.5q-59 -72 -127.5 -111.5t-129 -59t-101.5 -24.5t-43 -5q-21 0 -21 20z" />
</font>
</defs>
</svg>
